{
.appVersion = "983";
DisplayStrings = (

glyphs = (
{
glyphname = A;
lastChange = "2017-07-23 21:07:22 +0000";
layers = (
{
layerId = "A32222FF-B936-4048-B269-9E41D1D80F08";
paths = (
{
closed = 1;
nodes = (
"96 0 OFFCURVE",
"109 2 OFFCURVE",
"116 12 CURVE SMOOTH",
"119 16 OFFCURVE",
"120 21 OFFCURVE",
"120 25 CURVE SMOOTH",
"120 32 OFFCURVE",
"117 38 OFFCURVE",
"110 42 CURVE SMOOTH",
"103 46 OFFCURVE",
"99 47 OFFCURVE",
"91 47 CURVE SMOOTH",
"87 47 OFFCURVE",
"82 46 OFFCURVE",
"74 46 CURVE",
"78 95 OFFCURVE",
"88 143 OFFCURVE",
"96 192 CURVE",
"101 216 OFFCURVE",
"104 241 OFFCURVE",
"108 265 CURVE",
"107 269 OFFCURVE",
"108 270 OFFCURVE",
"111 268 CURVE",
"122 268 LINE SMOOTH",
"128 268 OFFCURVE",
"134 269 OFFCURVE",
"140 269 CURVE SMOOTH",
"154 269 OFFCURVE",
"167 269 OFFCURVE",
"180 270 CURVE",
"193 270 OFFCURVE",
"205 270 OFFCURVE",
"217 271 CURVE",
"223 271 OFFCURVE",
"229 271 OFFCURVE",
"235 272 CURVE",
"240 272 OFFCURVE",
"239 270 OFFCURVE",
"240 265 CURVE",
"243 255 LINE",
"249 231 OFFCURVE",
"254 208 OFFCURVE",
"259 184 CURVE",
"263 160 OFFCURVE",
"268 137 OFFCURVE",
"274 113 CURVE SMOOTH",
"279 91 OFFCURVE",
"290 70 OFFCURVE",
"298 48 CURVE",
"295 49 OFFCURVE",
"292 49 OFFCURVE",
"290 49 CURVE SMOOTH",
"283 49 OFFCURVE",
"277 47 OFFCURVE",
"272 42 CURVE SMOOTH",
"269 39 OFFCURVE",
"267 34 OFFCURVE",
"267 29 CURVE SMOOTH",
"267 27 OFFCURVE",
"267 25 OFFCURVE",
"268 23 CURVE SMOOTH",
"275 8 OFFCURVE",
"290 5 OFFCURVE",
"304 3 CURVE SMOOTH",
"313 2 OFFCURVE",
"323 1 OFFCURVE",
"332 1 CURVE SMOOTH",
"338 1 OFFCURVE",
"344 1 OFFCURVE",
"350 2 CURVE SMOOTH",
"364 4 OFFCURVE",
"384 15 OFFCURVE",
"376 32 CURVE",
"373 39 OFFCURVE",
"366 44 OFFCURVE",
"358 46 CURVE",
"354 48 OFFCURVE",
"351 48 OFFCURVE",
"347 48 CURVE SMOOTH",
"343 48 OFFCURVE",
"342 57 OFFCURVE",
"341 61 CURVE",
"333 82 OFFCURVE",
"322 101 OFFCURVE",
"317 123 CURVE SMOOTH",
"311 147 OFFCURVE",
"308 173 OFFCURVE",
"302 197 CURVE SMOOTH",
"296 222 OFFCURVE",
"289 247 OFFCURVE",
"283 272 CURVE",
"301 271 OFFCURVE",
"332 275 OFFCURVE",
"324 301 CURVE",
"322 309 OFFCURVE",
"315 316 OFFCURVE",
"306 317 CURVE SMOOTH",
"299 318 OFFCURVE",
"293 317 OFFCURVE",
"286 317 CURVE SMOOTH",
"283 317 OFFCURVE",
"279 317 OFFCURVE",
"276 316 CURVE",
"270 316 OFFCURVE",
"271 321 OFFCURVE",
"270 326 CURVE SMOOTH",
"265 354 OFFCURVE",
"262 382 OFFCURVE",
"256 410 CURVE SMOOTH",
"251 438 OFFCURVE",
"242 466 OFFCURVE",
"236 494 CURVE SMOOTH",
"227 535 OFFCURVE",
"218 577 OFFCURVE",
"214 620 CURVE SMOOTH",
"213 634 OFFCURVE",
"212 648 OFFCURVE",
"209 662 CURVE SMOOTH",
"207 673 OFFCURVE",
"204 687 OFFCURVE",
"195 695 CURVE",
"191 699 OFFCURVE",
"186 701 OFFCURVE",
"181 701 CURVE SMOOTH",
"176 701 OFFCURVE",
"171 699 OFFCURVE",
"167 696 CURVE",
"154 684 OFFCURVE",
"151 663 OFFCURVE",
"147 648 CURVE",
"136 594 OFFCURVE",
"122 541 OFFCURVE",
"112 487 CURVE SMOOTH",
"101 429 OFFCURVE",
"85 373 OFFCURVE",
"73 316 CURVE SMOOTH",
"61 259 OFFCURVE",
"54 201 OFFCURVE",
"44 143 CURVE SMOOTH",
"40 121 OFFCURVE",
"36 98 OFFCURVE",
"33 75 CURVE",
"31 65 OFFCURVE",
"29 55 OFFCURVE",
"29 45 CURVE",
"21 43 OFFCURVE",
"13 40 OFFCURVE",
"8 33 CURVE SMOOTH",
"5 29 OFFCURVE",
"4 25 OFFCURVE",
"4 20 CURVE SMOOTH",
"4 13 OFFCURVE",
"7 7 OFFCURVE",
"14 4 CURVE",
"20 1 OFFCURVE",
"26 1 OFFCURVE",
"32 1 CURVE SMOOTH",
"47 1 LINE",
"56 2 OFFCURVE",
"70 0 OFFCURVE",
"83 0 CURVE SMOOTH"
);
},
{
closed = 1;
nodes = (
"151 312 OFFCURVE",
"134 315 OFFCURVE",
"117 314 CURVE",
"123 340 OFFCURVE",
"129 368 OFFCURVE",
"138 398 CURVE",
"153 456 OFFCURVE",
"163 515 OFFCURVE",
"176 573 CURVE",
"186 529 OFFCURVE",
"192 484 OFFCURVE",
"203 441 CURVE SMOOTH",
"213 399 OFFCURVE",
"218 356 OFFCURVE",
"228 315 CURVE",
"208 314 OFFCURVE",
"188 313 OFFCURVE",
"168 313 CURVE"
);
}
);
width = 371;
}
);
leftKerningGroup = A;
rightKerningGroup = A;
unicode = 0041;
},
{
glyphname = Aring;
lastChange = "2017-07-23 21:07:22 +0000";
layers = (
{
layerId = "A32222FF-B936-4048-B269-9E41D1D80F08";
paths = (
{
closed = 1;
nodes = (
"96 0 OFFCURVE",
"109 2 OFFCURVE",
"116 12 CURVE SMOOTH",
"119 16 OFFCURVE",
"120 21 OFFCURVE",
"120 25 CURVE SMOOTH",
"120 32 OFFCURVE",
"117 38 OFFCURVE",
"110 42 CURVE SMOOTH",
"103 46 OFFCURVE",
"99 47 OFFCURVE",
"91 47 CURVE SMOOTH",
"87 47 OFFCURVE",
"82 46 OFFCURVE",
"74 46 CURVE",
"78 95 OFFCURVE",
"88 143 OFFCURVE",
"96 192 CURVE",
"101 216 OFFCURVE",
"104 241 OFFCURVE",
"108 265 CURVE",
"107 269 OFFCURVE",
"108 270 OFFCURVE",
"111 268 CURVE",
"122 268 LINE SMOOTH",
"128 268 OFFCURVE",
"134 269 OFFCURVE",
"140 269 CURVE SMOOTH",
"154 269 OFFCURVE",
"167 269 OFFCURVE",
"180 270 CURVE",
"193 270 OFFCURVE",
"205 270 OFFCURVE",
"217 271 CURVE",
"223 271 OFFCURVE",
"229 271 OFFCURVE",
"235 272 CURVE",
"240 272 OFFCURVE",
"239 270 OFFCURVE",
"240 265 CURVE",
"243 255 LINE",
"249 231 OFFCURVE",
"254 208 OFFCURVE",
"259 184 CURVE",
"263 160 OFFCURVE",
"268 137 OFFCURVE",
"274 113 CURVE SMOOTH",
"279 91 OFFCURVE",
"290 70 OFFCURVE",
"298 48 CURVE",
"295 49 OFFCURVE",
"292 49 OFFCURVE",
"290 49 CURVE SMOOTH",
"283 49 OFFCURVE",
"277 47 OFFCURVE",
"272 42 CURVE SMOOTH",
"269 39 OFFCURVE",
"267 34 OFFCURVE",
"267 29 CURVE SMOOTH",
"267 27 OFFCURVE",
"267 25 OFFCURVE",
"268 23 CURVE SMOOTH",
"275 8 OFFCURVE",
"290 5 OFFCURVE",
"304 3 CURVE SMOOTH",
"313 2 OFFCURVE",
"323 1 OFFCURVE",
"332 1 CURVE SMOOTH",
"338 1 OFFCURVE",
"344 1 OFFCURVE",
"350 2 CURVE SMOOTH",
"364 4 OFFCURVE",
"384 15 OFFCURVE",
"376 32 CURVE",
"373 39 OFFCURVE",
"366 44 OFFCURVE",
"358 46 CURVE",
"354 48 OFFCURVE",
"351 48 OFFCURVE",
"347 48 CURVE SMOOTH",
"343 48 OFFCURVE",
"342 57 OFFCURVE",
"341 61 CURVE",
"333 82 OFFCURVE",
"322 101 OFFCURVE",
"317 123 CURVE SMOOTH",
"311 147 OFFCURVE",
"308 173 OFFCURVE",
"302 197 CURVE SMOOTH",
"296 222 OFFCURVE",
"289 247 OFFCURVE",
"283 272 CURVE",
"301 271 OFFCURVE",
"332 275 OFFCURVE",
"324 301 CURVE",
"322 309 OFFCURVE",
"315 316 OFFCURVE",
"306 317 CURVE SMOOTH",
"299 318 OFFCURVE",
"293 317 OFFCURVE",
"286 317 CURVE SMOOTH",
"283 317 OFFCURVE",
"279 317 OFFCURVE",
"276 316 CURVE",
"270 316 OFFCURVE",
"271 321 OFFCURVE",
"270 326 CURVE SMOOTH",
"265 354 OFFCURVE",
"262 382 OFFCURVE",
"256 410 CURVE SMOOTH",
"251 438 OFFCURVE",
"242 466 OFFCURVE",
"236 494 CURVE SMOOTH",
"227 535 OFFCURVE",
"218 577 OFFCURVE",
"214 620 CURVE SMOOTH",
"213 634 OFFCURVE",
"212 648 OFFCURVE",
"209 662 CURVE SMOOTH",
"207 673 OFFCURVE",
"204 687 OFFCURVE",
"195 695 CURVE",
"191 699 OFFCURVE",
"186 701 OFFCURVE",
"181 701 CURVE SMOOTH",
"176 701 OFFCURVE",
"171 699 OFFCURVE",
"167 696 CURVE",
"154 684 OFFCURVE",
"151 663 OFFCURVE",
"147 648 CURVE",
"136 594 OFFCURVE",
"122 541 OFFCURVE",
"112 487 CURVE SMOOTH",
"101 429 OFFCURVE",
"85 373 OFFCURVE",
"73 316 CURVE SMOOTH",
"61 259 OFFCURVE",
"54 201 OFFCURVE",
"44 143 CURVE SMOOTH",
"40 121 OFFCURVE",
"36 98 OFFCURVE",
"33 75 CURVE",
"31 65 OFFCURVE",
"29 55 OFFCURVE",
"29 45 CURVE",
"21 43 OFFCURVE",
"13 40 OFFCURVE",
"8 33 CURVE SMOOTH",
"5 29 OFFCURVE",
"4 25 OFFCURVE",
"4 20 CURVE SMOOTH",
"4 13 OFFCURVE",
"7 7 OFFCURVE",
"14 4 CURVE",
"20 1 OFFCURVE",
"26 1 OFFCURVE",
"32 1 CURVE SMOOTH",
"47 1 LINE",
"56 2 OFFCURVE",
"70 0 OFFCURVE",
"83 0 CURVE SMOOTH"
);
},
{
closed = 1;
nodes = (
"151 312 OFFCURVE",
"134 315 OFFCURVE",
"117 314 CURVE",
"123 340 OFFCURVE",
"129 368 OFFCURVE",
"138 398 CURVE",
"153 456 OFFCURVE",
"163 515 OFFCURVE",
"176 573 CURVE",
"186 529 OFFCURVE",
"192 484 OFFCURVE",
"203 441 CURVE SMOOTH",
"213 399 OFFCURVE",
"218 356 OFFCURVE",
"228 315 CURVE",
"208 314 OFFCURVE",
"188 313 OFFCURVE",
"168 313 CURVE"
);
},
{
closed = 1;
nodes = (
"222 733 OFFCURVE",
"229 804 OFFCURVE",
"233 836 CURVE SMOOTH",
"234 844 OFFCURVE",
"234 851 OFFCURVE",
"234 859 CURVE SMOOTH",
"234 871 OFFCURVE",
"233 883 OFFCURVE",
"227 895 CURVE SMOOTH",
"220 910 OFFCURVE",
"201 924 OFFCURVE",
"183 920 CURVE SMOOTH",
"133 909 OFFCURVE",
"125 859 OFFCURVE",
"125 814 CURVE SMOOTH",
"125 781 OFFCURVE",
"136 733 OFFCURVE",
"176 733 CURVE SMOOTH"
);
},
{
closed = 1;
nodes = (
"163 776 OFFCURVE",
"160 792 OFFCURVE",
"160 808 CURVE SMOOTH",
"160 816 OFFCURVE",
"161 823 OFFCURVE",
"161 830 CURVE",
"162 851 OFFCURVE",
"165 880 OFFCURVE",
"189 885 CURVE",
"198 879 OFFCURVE",
"200 869 OFFCURVE",
"200 857 CURVE SMOOTH",
"200 847 OFFCURVE",
"198 836 OFFCURVE",
"197 828 CURVE SMOOTH",
"195 815 OFFCURVE",
"193 802 OFFCURVE",
"188 790 CURVE",
"187 787 OFFCURVE",
"180 768 OFFCURVE",
"176 769 CURVE"
);
}
);
width = 371;
}
);
leftKerningGroup = A;
leftMetricsKey = "=A";
rightKerningGroup = A;
rightMetricsKey = "=A";
unicode = 00C5;
},
{
glyphname = AE;
lastChange = "2017-07-23 21:07:22 +0000";
layers = (
{
layerId = "A32222FF-B936-4048-B269-9E41D1D80F08";
paths = (
{
closed = 1;
nodes = (
"434 -14 OFFCURVE",
"440 -12 OFFCURVE",
"444 -7 CURVE SMOOTH",
"449 -1 OFFCURVE",
"450 6 OFFCURVE",
"450 14 CURVE SMOOTH",
"450 23 OFFCURVE",
"449 32 OFFCURVE",
"448 38 CURVE",
"447 52 OFFCURVE",
"447 72 OFFCURVE",
"435 82 CURVE",
"432 85 OFFCURVE",
"427 86 OFFCURVE",
"423 86 CURVE SMOOTH",
"417 86 OFFCURVE",
"414 85 OFFCURVE",
"410 82 CURVE",
"402 78 OFFCURVE",
"401 69 OFFCURVE",
"401 62 CURVE SMOOTH",
"401 55 LINE",
"332 55 OFFCURVE",
"344 45 OFFCURVE",
"271 45 CURVE",
"247 42 LINE",
"247 72 LINE SMOOTH",
"247 156 OFFCURVE",
"244 240 OFFCURVE",
"244 323 CURVE",
"274 321 OFFCURVE",
"293 325 OFFCURVE",
"321 330 CURVE",
"321 323 OFFCURVE",
"320 315 OFFCURVE",
"320 306 CURVE SMOOTH",
"320 295 OFFCURVE",
"322 283 OFFCURVE",
"332 278 CURVE",
"335 275 OFFCURVE",
"339 274 OFFCURVE",
"344 274 CURVE SMOOTH",
"351 274 OFFCURVE",
"361 280 OFFCURVE",
"364 288 CURVE",
"367 294 OFFCURVE",
"367 301 OFFCURVE",
"367 309 CURVE SMOOTH",
"367 319 LINE",
"368 334 OFFCURVE",
"366 349 OFFCURVE",
"366 363 CURVE SMOOTH",
"366 370 OFFCURVE",
"367 382 OFFCURVE",
"367 392 CURVE SMOOTH",
"367 408 OFFCURVE",
"364 423 OFFCURVE",
"344 423 CURVE SMOOTH",
"335 423 OFFCURVE",
"327 419 OFFCURVE",
"324 412 CURVE",
"321 407 OFFCURVE",
"320 401 OFFCURVE",
"320 395 CURVE SMOOTH",
"320 388 OFFCURVE",
"321 382 OFFCURVE",
"321 376 CURVE SMOOTH",
"321 374 OFFCURVE",
"321 374 OFFCURVE",
"318 373 CURVE",
"308 372 LINE SMOOTH",
"299 371 OFFCURVE",
"291 369 OFFCURVE",
"283 368 CURVE SMOOTH",
"274 367 OFFCURVE",
"264 367 OFFCURVE",
"254 367 CURVE SMOOTH",
"244 367 LINE",
"244 604 LINE SMOOTH",
"244 619 OFFCURVE",
"244 635 OFFCURVE",
"240 650 CURVE",
"275 645 OFFCURVE",
"298 645 OFFCURVE",
"333 645 CURVE SMOOTH",
"411 645 LINE",
"411 630 OFFCURVE",
"419 617 OFFCURVE",
"432 617 CURVE SMOOTH",
"435 617 OFFCURVE",
"439 618 OFFCURVE",
"442 620 CURVE",
"454 626 OFFCURVE",
"455 640 OFFCURVE",
"457 653 CURVE SMOOTH",
"458 660 OFFCURVE",
"455 667 OFFCURVE",
"455 673 CURVE",
"454 690 OFFCURVE",
"459 717 OFFCURVE",
"437 721 CURVE",
"429 723 OFFCURVE",
"420 720 OFFCURVE",
"416 714 CURVE SMOOTH",
"412 708 OFFCURVE",
"411 702 OFFCURVE",
"411 696 CURVE SMOOTH",
"411 690 LINE",
"366 690 LINE SMOOTH",
"336 690 OFFCURVE",
"306 690 OFFCURVE",
"287 692 CURVE SMOOTH",
"265 694 OFFCURVE",
"245 697 OFFCURVE",
"225 700 CURVE",
"220 701 OFFCURVE",
"214 702 OFFCURVE",
"211 702 CURVE SMOOTH",
"208 702 LINE",
"181 701 LINE",
"176 701 OFFCURVE",
"171 699 OFFCURVE",
"167 696 CURVE",
"154 684 OFFCURVE",
"151 663 OFFCURVE",
"147 648 CURVE",
"136 594 OFFCURVE",
"122 541 OFFCURVE",
"112 487 CURVE SMOOTH",
"101 428 OFFCURVE",
"85 372 OFFCURVE",
"73 316 CURVE SMOOTH",
"61 259 OFFCURVE",
"55 201 OFFCURVE",
"44 143 CURVE SMOOTH",
"40 121 OFFCURVE",
"36 98 OFFCURVE",
"33 75 CURVE",
"31 65 OFFCURVE",
"29 55 OFFCURVE",
"29 45 CURVE",
"21 43 OFFCURVE",
"13 40 OFFCURVE",
"8 33 CURVE SMOOTH",
"5 29 OFFCURVE",
"4 25 OFFCURVE",
"4 20 CURVE SMOOTH",
"4 13 OFFCURVE",
"7 7 OFFCURVE",
"14 4 CURVE",
"20 1 OFFCURVE",
"26 1 OFFCURVE",
"32 1 CURVE SMOOTH",
"47 1 LINE",
"56 2 OFFCURVE",
"70 0 OFFCURVE",
"83 0 CURVE SMOOTH",
"96 0 OFFCURVE",
"109 2 OFFCURVE",
"116 12 CURVE SMOOTH",
"119 16 OFFCURVE",
"120 21 OFFCURVE",
"120 25 CURVE SMOOTH",
"120 32 OFFCURVE",
"117 38 OFFCURVE",
"110 42 CURVE SMOOTH",
"103 46 OFFCURVE",
"99 47 OFFCURVE",
"91 47 CURVE SMOOTH",
"87 47 OFFCURVE",
"82 46 OFFCURVE",
"74 46 CURVE",
"78 95 OFFCURVE",
"88 143 OFFCURVE",
"96 192 CURVE SMOOTH",
"109 269 LINE",
"121 268 OFFCURVE",
"134 269 OFFCURVE",
"140 269 CURVE SMOOTH",
"154 269 OFFCURVE",
"167 269 OFFCURVE",
"180 270 CURVE",
"190 270 OFFCURVE",
"195 268 OFFCURVE",
"201 268 CURVE",
"201 239 OFFCURVE",
"202 211 OFFCURVE",
"202 182 CURVE",
"203 168 OFFCURVE",
"203 154 OFFCURVE",
"203 140 CURVE SMOOTH",
"203 98 LINE",
"202 84 OFFCURVE",
"204 69 OFFCURVE",
"203 55 CURVE",
"203 48 OFFCURVE",
"202 42 OFFCURVE",
"203 36 CURVE",
"203 31 OFFCURVE",
"198 30 OFFCURVE",
"195 26 CURVE",
"193 21 OFFCURVE",
"192 17 OFFCURVE",
"192 13 CURVE SMOOTH",
"192 9 OFFCURVE",
"194 4 OFFCURVE",
"197 0 CURVE",
"203 -6 OFFCURVE",
"208 -8 OFFCURVE",
"216 -8 CURVE SMOOTH",
"219 -8 OFFCURVE",
"223 -8 OFFCURVE",
"226 -7 CURVE",
"237 -4 OFFCURVE",
"238 -5 OFFCURVE",
"250 -4 CURVE SMOOTH",
"264 -3 OFFCURVE",
"277 -1 OFFCURVE",
"291 1 CURVE SMOOTH",
"336 7 OFFCURVE",
"357 7 OFFCURVE",
"406 11 CURVE",
"407 2 OFFCURVE",
"410 -8 OFFCURVE",
"419 -12 CURVE",
"422 -13 OFFCURVE",
"425 -14 OFFCURVE",
"428 -14 CURVE SMOOTH"
);
},
{
closed = 1;
nodes = (
"151 312 OFFCURVE",
"134 315 OFFCURVE",
"117 314 CURVE",
"123 340 OFFCURVE",
"129 368 OFFCURVE",
"138 398 CURVE",
"153 457 OFFCURVE",
"163 515 OFFCURVE",
"176 573 CURVE",
"184 574 OFFCURVE",
"191 576 OFFCURVE",
"200 576 CURVE",
"201 562 OFFCURVE",
"201 549 OFFCURVE",
"201 535 CURVE SMOOTH",
"200 505 OFFCURVE",
"199 474 OFFCURVE",
"199 444 CURVE SMOOTH",
"199 413 OFFCURVE",
"200 384 OFFCURVE",
"201 353 CURVE SMOOTH",
"201 313 LINE",
"168 313 LINE"
);
}
);
width = 471;
}
);
leftKerningGroup = A;
leftMetricsKey = "=A";
rightKerningGroup = E;
rightMetricsKey = "=E";
unicode = 00C6;
},
{
glyphname = B;
lastChange = "2017-07-23 21:07:22 +0000";
layers = (
{
layerId = "A32222FF-B936-4048-B269-9E41D1D80F08";
paths = (
{
closed = 1;
nodes = (
"222 -1 OFFCURVE",
"261 3 OFFCURVE",
"293 21 CURVE SMOOTH",
"330 41 OFFCURVE",
"340 84 OFFCURVE",
"340 124 CURVE SMOOTH",
"340 153 OFFCURVE",
"336 183 OFFCURVE",
"331 212 CURVE SMOOTH",
"317 299 OFFCURVE",
"304 325 OFFCURVE",
"251 346 CURVE",
"281 379 OFFCURVE",
"281 428 OFFCURVE",
"281 471 CURVE SMOOTH",
"281 506 OFFCURVE",
"278 542 OFFCURVE",
"268 576 CURVE SMOOTH",
"259 609 OFFCURVE",
"244 641 OFFCURVE",
"219 665 CURVE SMOOTH",
"191 692 OFFCURVE",
"157 700 OFFCURVE",
"120 700 CURVE",
"100 701 OFFCURVE",
"81 702 OFFCURVE",
"61 701 CURVE SMOOTH",
"48 700 OFFCURVE",
"30 701 OFFCURVE",
"19 690 CURVE SMOOTH",
"15 686 OFFCURVE",
"13 681 OFFCURVE",
"13 676 CURVE SMOOTH",
"13 673 OFFCURVE",
"14 670 OFFCURVE",
"15 667 CURVE",
"19 658 OFFCURVE",
"29 656 OFFCURVE",
"37 656 CURVE SMOOTH",
"42 656 LINE",
"40 635 OFFCURVE",
"49 614 OFFCURVE",
"51 592 CURVE SMOOTH",
"54 564 OFFCURVE",
"57 535 OFFCURVE",
"57 506 CURVE SMOOTH",
"58 477 OFFCURVE",
"58 447 OFFCURVE",
"58 418 CURVE SMOOTH",
"58 388 OFFCURVE",
"58 359 OFFCURVE",
"57 329 CURVE SMOOTH",
"56 282 OFFCURVE",
"53 234 OFFCURVE",
"53 187 CURVE SMOOTH",
"53 175 OFFCURVE",
"54 164 OFFCURVE",
"54 152 CURVE SMOOTH",
"54 123 OFFCURVE",
"56 93 OFFCURVE",
"56 64 CURVE",
"55 58 OFFCURVE",
"55 53 OFFCURVE",
"55 47 CURVE SMOOTH",
"55 42 OFFCURVE",
"53 44 OFFCURVE",
"49 43 CURVE",
"46 43 OFFCURVE",
"43 42 OFFCURVE",
"40 42 CURVE",
"30 38 OFFCURVE",
"24 30 OFFCURVE",
"24 19 CURVE",
"26 -3 OFFCURVE",
"50 -1 OFFCURVE",
"66 0 CURVE",
"74 1 OFFCURVE",
"83 1 OFFCURVE",
"91 1 CURVE SMOOTH",
"108 1 OFFCURVE",
"126 0 OFFCURVE",
"143 0 CURVE",
"156 -1 OFFCURVE",
"170 -1 OFFCURVE",
"184 -1 CURVE SMOOTH"
);
},
{
closed = 1;
nodes = (
"146 42 OFFCURVE",
"123 44 OFFCURVE",
"100 44 CURVE",
"101 62 OFFCURVE",
"99 80 OFFCURVE",
"98 98 CURVE",
"98 179 LINE SMOOTH",
"98 206 OFFCURVE",
"98 233 OFFCURVE",
"99 260 CURVE",
"99 265 OFFCURVE",
"98 292 OFFCURVE",
"101 292 CURVE",
"184 305 LINE",
"194 307 OFFCURVE",
"204 309 OFFCURVE",
"215 309 CURVE SMOOTH",
"225 309 OFFCURVE",
"236 307 OFFCURVE",
"244 300 CURVE",
"268 282 OFFCURVE",
"277 247 OFFCURVE",
"285 220 CURVE",
"293 189 OFFCURVE",
"300 156 OFFCURVE",
"300 122 CURVE SMOOTH",
"300 107 OFFCURVE",
"298 70 OFFCURVE",
"270 57 CURVE",
"238 45 OFFCURVE",
"204 42 OFFCURVE",
"169 42 CURVE SMOOTH"
);
},
{
closed = 1;
nodes = (
"101 359 OFFCURVE",
"102 382 OFFCURVE",
"102 406 CURVE SMOOTH",
"102 439 OFFCURVE",
"101 473 OFFCURVE",
"100 506 CURVE SMOOTH",
"99 536 OFFCURVE",
"97 565 OFFCURVE",
"94 594 CURVE SMOOTH",
"92 616 OFFCURVE",
"92 639 OFFCURVE",
"85 660 CURVE",
"142 662 OFFCURVE",
"174 651 OFFCURVE",
"196 626 CURVE",
"205 612 OFFCURVE",
"215 599 OFFCURVE",
"222 584 CURVE SMOOTH",
"231 565 OFFCURVE",
"234 544 OFFCURVE",
"236 523 CURVE SMOOTH",
"238 504 OFFCURVE",
"240 484 OFFCURVE",
"240 465 CURVE SMOOTH",
"240 450 OFFCURVE",
"239 435 OFFCURVE",
"236 420 CURVE SMOOTH",
"233 405 OFFCURVE",
"228 389 OFFCURVE",
"219 377 CURVE",
"210 366 OFFCURVE",
"198 359 OFFCURVE",
"186 354 CURVE SMOOTH",
"158 342 OFFCURVE",
"129 342 OFFCURVE",
"101 335 CURVE"
);
}
);
width = 366;
}
);
leftMetricsKey = "=H+15";
rightMetricsKey = "=H+5";
unicode = 0042;
},
{
glyphname = C;
lastChange = "2017-07-23 21:07:22 +0000";
layers = (
{
layerId = "A32222FF-B936-4048-B269-9E41D1D80F08";
paths = (
{
closed = 1;
nodes = (
"230 -1 OFFCURVE",
"245 0 OFFCURVE",
"260 5 CURVE SMOOTH",
"285 14 OFFCURVE",
"305 35 OFFCURVE",
"318 56 CURVE SMOOTH",
"332 79 OFFCURVE",
"339 107 OFFCURVE",
"341 134 CURVE SMOOTH",
"342 149 OFFCURVE",
"343 166 OFFCURVE",
"343 182 CURVE SMOOTH",
"343 192 OFFCURVE",
"342 201 OFFCURVE",
"342 210 CURVE",
"353 210 OFFCURVE",
"369 216 OFFCURVE",
"369 232 CURVE SMOOTH",
"369 239 OFFCURVE",
"364 252 OFFCURVE",
"347 254 CURVE",
"334 254 OFFCURVE",
"321 253 OFFCURVE",
"309 258 CURVE",
"301 260 OFFCURVE",
"294 263 OFFCURVE",
"286 263 CURVE SMOOTH",
"282 263 OFFCURVE",
"277 261 OFFCURVE",
"273 258 CURVE",
"267 254 OFFCURVE",
"265 249 OFFCURVE",
"265 244 CURVE SMOOTH",
"265 234 OFFCURVE",
"274 224 OFFCURVE",
"285 221 CURVE",
"288 219 OFFCURVE",
"291 218 OFFCURVE",
"296 215 CURVE",
"296 202 LINE",
"295 192 OFFCURVE",
"295 181 OFFCURVE",
"295 171 CURVE SMOOTH",
"295 158 OFFCURVE",
"297 146 OFFCURVE",
"297 133 CURVE SMOOTH",
"297 127 OFFCURVE",
"297 120 OFFCURVE",
"296 114 CURVE",
"294 98 OFFCURVE",
"284 81 OFFCURVE",
"273 68 CURVE",
"263 57 OFFCURVE",
"250 50 OFFCURVE",
"235 48 CURVE SMOOTH",
"227 47 OFFCURVE",
"219 45 OFFCURVE",
"210 45 CURVE SMOOTH",
"202 45 OFFCURVE",
"193 46 OFFCURVE",
"184 46 CURVE SMOOTH",
"164 46 OFFCURVE",
"144 47 OFFCURVE",
"125 53 CURVE SMOOTH",
"108 59 OFFCURVE",
"91 70 OFFCURVE",
"81 87 CURVE",
"67 109 OFFCURVE",
"67 137 OFFCURVE",
"66 161 CURVE SMOOTH",
"65 219 OFFCURVE",
"66 276 OFFCURVE",
"66 334 CURVE SMOOTH",
"66 391 OFFCURVE",
"65 448 OFFCURVE",
"67 506 CURVE SMOOTH",
"69 547 OFFCURVE",
"66 595 OFFCURVE",
"91 630 CURVE SMOOTH",
"108 653 OFFCURVE",
"132 659 OFFCURVE",
"158 659 CURVE",
"164 660 OFFCURVE",
"171 660 OFFCURVE",
"177 659 CURVE",
"193 658 OFFCURVE",
"210 657 OFFCURVE",
"225 654 CURVE",
"240 650 OFFCURVE",
"262 646 OFFCURVE",
"274 634 CURVE",
"264 635 LINE",
"259 635 OFFCURVE",
"254 634 OFFCURVE",
"250 631 CURVE SMOOTH",
"245 627 OFFCURVE",
"242 620 OFFCURVE",
"242 614 CURVE SMOOTH",
"242 612 OFFCURVE",
"242 610 OFFCURVE",
"244 608 CURVE",
"248 594 OFFCURVE",
"266 589 OFFCURVE",
"279 587 CURVE",
"292 584 OFFCURVE",
"305 580 OFFCURVE",
"317 578 CURVE SMOOTH",
"322 577 OFFCURVE",
"329 576 OFFCURVE",
"335 577 CURVE",
"343 577 OFFCURVE",
"351 579 OFFCURVE",
"355 585 CURVE",
"358 588 OFFCURVE",
"359 593 OFFCURVE",
"359 598 CURVE SMOOTH",
"359 601 OFFCURVE",
"358 604 OFFCURVE",
"357 607 CURVE",
"352 616 OFFCURVE",
"342 619 OFFCURVE",
"334 621 CURVE",
"336 620 OFFCURVE",
"329 622 OFFCURVE",
"325 622 CURVE",
"324 627 OFFCURVE",
"322 636 OFFCURVE",
"320 641 CURVE",
"316 650 OFFCURVE",
"312 658 OFFCURVE",
"304 665 CURVE SMOOTH",
"269 696 OFFCURVE",
"213 703 OFFCURVE",
"169 703 CURVE SMOOTH",
"134 702 OFFCURVE",
"99 698 OFFCURVE",
"72 675 CURVE",
"51 655 OFFCURVE",
"38 628 OFFCURVE",
"31 600 CURVE SMOOTH",
"20 560 OFFCURVE",
"19 517 OFFCURVE",
"20 475 CURVE SMOOTH",
"20 447 OFFCURVE",
"22 419 OFFCURVE",
"22 391 CURVE SMOOTH",
"23 345 OFFCURVE",
"22 299 OFFCURVE",
"22 252 CURVE SMOOTH",
"22 234 OFFCURVE",
"21 215 OFFCURVE",
"22 196 CURVE",
"22 171 OFFCURVE",
"24 146 OFFCURVE",
"28 122 CURVE SMOOTH",
"34 89 OFFCURVE",
"46 56 OFFCURVE",
"71 35 CURVE SMOOTH",
"102 9 OFFCURVE",
"143 4 OFFCURVE",
"181 0 CURVE SMOOTH",
"192 -1 OFFCURVE",
"203 -2 OFFCURVE",
"215 -2 CURVE"
);
}
);
width = 393;
}
);
leftMetricsKey = "=O";
rightMetricsKey = "=O-20";
unicode = 0043;
},
{
glyphname = D;
lastChange = "2017-07-23 21:07:22 +0000";
layers = (
{
layerId = "A32222FF-B936-4048-B269-9E41D1D80F08";
paths = (
{
closed = 1;
nodes = (
"92 0 OFFCURVE",
"116 2 OFFCURVE",
"140 4 CURVE SMOOTH",
"163 6 OFFCURVE",
"185 6 OFFCURVE",
"208 11 CURVE",
"242 17 OFFCURVE",
"271 30 OFFCURVE",
"296 50 CURVE SMOOTH",
"322 72 OFFCURVE",
"326 104 OFFCURVE",
"326 137 CURVE SMOOTH",
"326 151 OFFCURVE",
"325 165 OFFCURVE",
"325 178 CURVE SMOOTH",
"325 237 OFFCURVE",
"325 295 OFFCURVE",
"323 353 CURVE SMOOTH",
"322 409 OFFCURVE",
"320 466 OFFCURVE",
"313 522 CURVE",
"307 559 OFFCURVE",
"296 598 OFFCURVE",
"276 630 CURVE SMOOTH",
"263 652 OFFCURVE",
"246 672 OFFCURVE",
"223 684 CURVE SMOOTH",
"200 697 OFFCURVE",
"176 701 OFFCURVE",
"150 701 CURVE SMOOTH",
"110 701 OFFCURVE",
"68 698 OFFCURVE",
"29 684 CURVE",
"17 679 OFFCURVE",
"-2 671 OFFCURVE",
"-2 655 CURVE SMOOTH",
"-2 642 OFFCURVE",
"8 636 OFFCURVE",
"19 636 CURVE SMOOTH",
"22 636 OFFCURVE",
"25 636 OFFCURVE",
"28 637 CURVE",
"28 367 LINE SMOOTH",
"28 337 OFFCURVE",
"28 308 OFFCURVE",
"30 278 CURVE SMOOTH",
"31 248 OFFCURVE",
"35 219 OFFCURVE",
"37 190 CURVE SMOOTH",
"40 160 OFFCURVE",
"42 131 OFFCURVE",
"45 102 CURVE SMOOTH",
"46 88 OFFCURVE",
"48 74 OFFCURVE",
"50 60 CURVE",
"50 57 OFFCURVE",
"51 54 OFFCURVE",
"51 50 CURVE",
"52 45 OFFCURVE",
"51 47 OFFCURVE",
"47 45 CURVE",
"41 44 OFFCURVE",
"36 42 OFFCURVE",
"31 40 CURVE",
"24 36 OFFCURVE",
"19 29 OFFCURVE",
"19 21 CURVE SMOOTH",
"19 16 OFFCURVE",
"21 11 OFFCURVE",
"26 8 CURVE SMOOTH",
"37 1 OFFCURVE",
"54 0 OFFCURVE",
"68 0 CURVE SMOOTH"
);
},
{
closed = 1;
nodes = (
"125 49 OFFCURVE",
"109 50 OFFCURVE",
"96 50 CURVE",
"85 107 OFFCURVE",
"82 165 OFFCURVE",
"77 223 CURVE SMOOTH",
"73 269 OFFCURVE",
"72 314 OFFCURVE",
"72 360 CURVE SMOOTH",
"72 651 LINE",
"75 652 OFFCURVE",
"79 652 OFFCURVE",
"83 653 CURVE",
"104 657 OFFCURVE",
"126 660 OFFCURVE",
"147 660 CURVE SMOOTH",
"171 660 OFFCURVE",
"197 656 OFFCURVE",
"215 640 CURVE SMOOTH",
"230 626 OFFCURVE",
"240 608 OFFCURVE",
"248 590 CURVE",
"256 570 OFFCURVE",
"264 549 OFFCURVE",
"268 528 CURVE SMOOTH",
"273 501 OFFCURVE",
"274 474 OFFCURVE",
"275 447 CURVE SMOOTH",
"276 388 OFFCURVE",
"276 330 OFFCURVE",
"278 271 CURVE SMOOTH",
"279 246 OFFCURVE",
"280 221 OFFCURVE",
"282 197 CURVE SMOOTH",
"284 180 OFFCURVE",
"286 162 OFFCURVE",
"286 145 CURVE SMOOTH",
"286 138 OFFCURVE",
"286 132 OFFCURVE",
"285 125 CURVE",
"283 105 OFFCURVE",
"278 89 OFFCURVE",
"262 76 CURVE SMOOTH",
"248 65 OFFCURVE",
"230 59 OFFCURVE",
"213 55 CURVE SMOOTH",
"191 50 OFFCURVE",
"166 49 OFFCURVE",
"143 49 CURVE SMOOTH"
);
}
);
width = 370;
}
);
leftMetricsKey = "=H";
rightMetricsKey = "=O";
unicode = 0044;
},
{
glyphname = E;
lastChange = "2017-07-23 21:07:22 +0000";
layers = (
{
layerId = "A32222FF-B936-4048-B269-9E41D1D80F08";
paths = (
{
closed = 1;
nodes = (
"304 -7 OFFCURVE",
"310 -5 OFFCURVE",
"314 0 CURVE SMOOTH",
"319 6 OFFCURVE",
"320 13 OFFCURVE",
"320 21 CURVE SMOOTH",
"320 29 OFFCURVE",
"319 38 OFFCURVE",
"318 44 CURVE",
"317 58 OFFCURVE",
"317 78 OFFCURVE",
"305 87 CURVE",
"302 90 OFFCURVE",
"297 91 OFFCURVE",
"293 91 CURVE SMOOTH",
"288 91 OFFCURVE",
"284 90 OFFCURVE",
"280 87 CURVE",
"273 83 OFFCURVE",
"272 75 OFFCURVE",
"272 68 CURVE SMOOTH",
"272 61 LINE",
"232 61 OFFCURVE",
"193 56 OFFCURVE",
"153 52 CURVE SMOOTH",
"144 51 OFFCURVE",
"135 50 OFFCURVE",
"125 50 CURVE",
"118 49 OFFCURVE",
"112 51 OFFCURVE",
"105 51 CURVE SMOOTH",
"102 51 OFFCURVE",
"100 51 OFFCURVE",
"97 50 CURVE",
"89 49 OFFCURVE",
"81 48 OFFCURVE",
"72 48 CURVE",
"72 78 LINE SMOOTH",
"72 160 OFFCURVE",
"69 242 OFFCURVE",
"69 324 CURVE",
"98 322 OFFCURVE",
"126 326 OFFCURVE",
"154 330 CURVE",
"154 324 OFFCURVE",
"153 316 OFFCURVE",
"153 307 CURVE SMOOTH",
"153 296 OFFCURVE",
"155 284 OFFCURVE",
"165 279 CURVE",
"168 277 OFFCURVE",
"172 276 OFFCURVE",
"176 276 CURVE SMOOTH",
"184 276 OFFCURVE",
"193 281 OFFCURVE",
"196 289 CURVE",
"199 295 OFFCURVE",
"199 302 OFFCURVE",
"199 310 CURVE SMOOTH",
"199 320 LINE",
"200 334 OFFCURVE",
"198 349 OFFCURVE",
"198 363 CURVE SMOOTH",
"198 370 OFFCURVE",
"199 381 OFFCURVE",
"199 391 CURVE SMOOTH",
"199 407 OFFCURVE",
"196 422 OFFCURVE",
"176 422 CURVE SMOOTH",
"168 422 OFFCURVE",
"160 418 OFFCURVE",
"157 411 CURVE",
"154 406 OFFCURVE",
"153 400 OFFCURVE",
"153 394 CURVE SMOOTH",
"153 387 OFFCURVE",
"154 381 OFFCURVE",
"154 376 CURVE SMOOTH",
"154 374 OFFCURVE",
"154 374 OFFCURVE",
"151 373 CURVE",
"141 372 LINE SMOOTH",
"133 371 OFFCURVE",
"125 369 OFFCURVE",
"117 368 CURVE SMOOTH",
"108 367 OFFCURVE",
"98 367 OFFCURVE",
"88 367 CURVE SMOOTH",
"69 367 LINE",
"69 599 LINE SMOOTH",
"69 614 OFFCURVE",
"69 629 OFFCURVE",
"65 644 CURVE",
"99 639 OFFCURVE",
"132 640 OFFCURVE",
"166 639 CURVE SMOOTH",
"281 639 LINE",
"281 625 OFFCURVE",
"290 612 OFFCURVE",
"302 612 CURVE SMOOTH",
"305 612 OFFCURVE",
"309 613 OFFCURVE",
"312 615 CURVE",
"324 621 OFFCURVE",
"326 634 OFFCURVE",
"326 647 CURVE SMOOTH",
"326 654 OFFCURVE",
"325 661 OFFCURVE",
"325 667 CURVE",
"324 683 OFFCURVE",
"328 710 OFFCURVE",
"307 714 CURVE",
"299 716 OFFCURVE",
"291 713 OFFCURVE",
"286 707 CURVE SMOOTH",
"282 702 OFFCURVE",
"281 695 OFFCURVE",
"281 689 CURVE SMOOTH",
"281 683 LINE",
"198 683 LINE SMOOTH",
"169 683 OFFCURVE",
"140 683 OFFCURVE",
"111 685 CURVE SMOOTH",
"90 687 OFFCURVE",
"70 690 OFFCURVE",
"50 693 CURVE",
"45 694 OFFCURVE",
"40 695 OFFCURVE",
"36 695 CURVE SMOOTH",
"21 695 OFFCURVE",
"8 688 OFFCURVE",
"8 664 CURVE SMOOTH",
"8 658 OFFCURVE",
"10 653 OFFCURVE",
"15 648 CURVE",
"22 640 OFFCURVE",
"24 630 OFFCURVE",
"25 619 CURVE",
"26 589 OFFCURVE",
"26 560 OFFCURVE",
"26 531 CURVE SMOOTH",
"26 502 OFFCURVE",
"25 472 OFFCURVE",
"25 442 CURVE SMOOTH",
"25 412 OFFCURVE",
"26 383 OFFCURVE",
"26 353 CURVE SMOOTH",
"26 297 OFFCURVE",
"27 241 OFFCURVE",
"27 185 CURVE",
"28 158 OFFCURVE",
"28 130 OFFCURVE",
"28 103 CURVE SMOOTH",
"28 89 OFFCURVE",
"29 75 OFFCURVE",
"28 61 CURVE",
"28 54 OFFCURVE",
"27 48 OFFCURVE",
"28 42 CURVE",
"28 37 OFFCURVE",
"24 36 OFFCURVE",
"21 32 CURVE",
"19 28 OFFCURVE",
"18 24 OFFCURVE",
"18 20 CURVE SMOOTH",
"18 16 OFFCURVE",
"20 11 OFFCURVE",
"23 7 CURVE",
"28 1 OFFCURVE",
"34 -1 OFFCURVE",
"41 -1 CURVE SMOOTH",
"44 -1 OFFCURVE",
"48 -1 OFFCURVE",
"51 0 CURVE",
"62 3 OFFCURVE",
"73 2 OFFCURVE",
"84 3 CURVE SMOOTH",
"98 4 OFFCURVE",
"111 6 OFFCURVE",
"125 8 CURVE",
"208 14 OFFCURVE",
"228 14 OFFCURVE",
"276 18 CURVE",
"277 9 OFFCURVE",
"280 -1 OFFCURVE",
"289 -5 CURVE",
"292 -6 OFFCURVE",
"295 -7 OFFCURVE",
"298 -7 CURVE SMOOTH"
);
}
);
width = 340;
}
);
leftMetricsKey = "=H+10";
rightKerningGroup = E;
unicode = 0045;
},
{
glyphname = F;
lastChange = "2017-07-23 21:07:22 +0000";
layers = (
{
layerId = "A32222FF-B936-4048-B269-9E41D1D80F08";
paths = (
{
closed = 1;
nodes = (
"64 -2 OFFCURVE",
"73 -1 OFFCURVE",
"82 0 CURVE SMOOTH",
"93 1 OFFCURVE",
"109 1 OFFCURVE",
"120 5 CURVE",
"126 8 OFFCURVE",
"131 14 OFFCURVE",
"132 21 CURVE",
"135 32 OFFCURVE",
"130 48 OFFCURVE",
"112 47 CURVE",
"102 46 OFFCURVE",
"91 44 OFFCURVE",
"81 44 CURVE",
"82 68 OFFCURVE",
"80 93 OFFCURVE",
"80 118 CURVE SMOOTH",
"80 323 LINE SMOOTH",
"80 327 OFFCURVE",
"78 330 OFFCURVE",
"83 330 CURVE SMOOTH",
"98 330 OFFCURVE",
"113 331 OFFCURVE",
"128 331 CURVE SMOOTH",
"151 331 LINE",
"151 314 LINE",
"152 305 OFFCURVE",
"153 293 OFFCURVE",
"159 284 CURVE",
"163 277 OFFCURVE",
"169 275 OFFCURVE",
"174 275 CURVE SMOOTH",
"186 275 OFFCURVE",
"198 286 OFFCURVE",
"197 299 CURVE",
"197 313 OFFCURVE",
"193 326 OFFCURVE",
"192 339 CURVE",
"192 383 LINE SMOOTH",
"192 392 OFFCURVE",
"193 402 OFFCURVE",
"188 410 CURVE SMOOTH",
"184 416 OFFCURVE",
"178 420 OFFCURVE",
"171 420 CURVE SMOOTH",
"168 420 OFFCURVE",
"166 419 OFFCURVE",
"163 418 CURVE",
"149 412 OFFCURVE",
"150 399 OFFCURVE",
"149 386 CURVE",
"149 376 LINE SMOOTH",
"149 371 OFFCURVE",
"144 373 OFFCURVE",
"139 373 CURVE SMOOTH",
"78 373 LINE",
"78 388 LINE SMOOTH",
"78 407 OFFCURVE",
"77 425 OFFCURVE",
"76 444 CURVE SMOOTH",
"74 480 OFFCURVE",
"70 516 OFFCURVE",
"67 552 CURVE SMOOTH",
"61 604 LINE SMOOTH",
"59 621 OFFCURVE",
"60 637 OFFCURVE",
"58 654 CURVE",
"77 652 OFFCURVE",
"96 651 OFFCURVE",
"115 651 CURVE SMOOTH",
"130 651 OFFCURVE",
"146 652 OFFCURVE",
"161 652 CURVE SMOOTH",
"214 652 LINE SMOOTH",
"230 652 OFFCURVE",
"247 651 OFFCURVE",
"263 651 CURVE",
"264 641 OFFCURVE",
"263 624 OFFCURVE",
"273 615 CURVE",
"276 612 OFFCURVE",
"282 610 OFFCURVE",
"287 610 CURVE SMOOTH",
"294 610 OFFCURVE",
"301 613 OFFCURVE",
"304 619 CURVE",
"306 624 OFFCURVE",
"307 630 OFFCURVE",
"307 635 CURVE SMOOTH",
"307 640 OFFCURVE",
"306 644 OFFCURVE",
"306 648 CURVE",
"305 656 OFFCURVE",
"306 664 OFFCURVE",
"306 672 CURVE SMOOTH",
"306 677 OFFCURVE",
"307 683 OFFCURVE",
"307 689 CURVE SMOOTH",
"307 702 OFFCURVE",
"305 715 OFFCURVE",
"297 724 CURVE",
"294 727 OFFCURVE",
"289 729 OFFCURVE",
"284 729 CURVE SMOOTH",
"280 729 OFFCURVE",
"276 728 OFFCURVE",
"273 726 CURVE",
"264 722 OFFCURVE",
"263 712 OFFCURVE",
"263 703 CURVE SMOOTH",
"263 695 LINE",
"243 695 OFFCURVE",
"221 696 OFFCURVE",
"201 695 CURVE SMOOTH",
"186 694 OFFCURVE",
"170 694 OFFCURVE",
"154 694 CURVE SMOOTH",
"107 694 LINE SMOOTH",
"86 694 OFFCURVE",
"64 695 OFFCURVE",
"43 700 CURVE",
"38 701 OFFCURVE",
"31 702 OFFCURVE",
"24 702 CURVE SMOOTH",
"10 702 OFFCURVE",
"-3 697 OFFCURVE",
"-2 679 CURVE",
"-1 675 OFFCURVE",
"1 670 OFFCURVE",
"4 667 CURVE SMOOTH",
"7 664 OFFCURVE",
"14 662 OFFCURVE",
"14 658 CURVE SMOOTH",
"14 644 OFFCURVE",
"16 629 OFFCURVE",
"17 615 CURVE",
"21 586 OFFCURVE",
"23 558 OFFCURVE",
"26 529 CURVE SMOOTH",
"31 471 OFFCURVE",
"36 413 OFFCURVE",
"37 354 CURVE SMOOTH",
"37 48 LINE SMOOTH",
"37 44 OFFCURVE",
"39 42 OFFCURVE",
"34 42 CURVE SMOOTH",
"30 42 OFFCURVE",
"26 41 OFFCURVE",
"22 39 CURVE SMOOTH",
"16 36 OFFCURVE",
"14 30 OFFCURVE",
"14 24 CURVE SMOOTH",
"14 18 OFFCURVE",
"16 12 OFFCURVE",
"19 8 CURVE",
"24 2 OFFCURVE",
"31 0 OFFCURVE",
"38 -1 CURVE SMOOTH",
"44 -2 OFFCURVE",
"49 -2 OFFCURVE",
"55 -2 CURVE SMOOTH"
);
}
);
width = 327;
}
);
leftMetricsKey = "=H";
rightKerningGroup = T;
unicode = 0046;
},
{
glyphname = G;
lastChange = "2017-07-23 21:07:22 +0000";
layers = (
{
layerId = "A32222FF-B936-4048-B269-9E41D1D80F08";
paths = (
{
closed = 1;
nodes = (
"229 0 OFFCURVE",
"259 11 OFFCURVE",
"281 28 CURVE",
"312 54 OFFCURVE",
"319 98 OFFCURVE",
"321 136 CURVE SMOOTH",
"322 155 OFFCURVE",
"322 174 OFFCURVE",
"323 192 CURVE",
"323 208 OFFCURVE",
"324 224 OFFCURVE",
"321 239 CURVE",
"312 274 OFFCURVE",
"270 274 OFFCURVE",
"241 275 CURVE SMOOTH",
"230 275 OFFCURVE",
"219 275 OFFCURVE",
"209 274 CURVE",
"205 273 OFFCURVE",
"205 281 OFFCURVE",
"204 285 CURVE",
"203 298 OFFCURVE",
"193 304 OFFCURVE",
"183 304 CURVE SMOOTH",
"174 304 OFFCURVE",
"164 298 OFFCURVE",
"163 285 CURVE",
"161 272 OFFCURVE",
"166 260 OFFCURVE",
"167 247 CURVE",
"167 235 OFFCURVE",
"166 222 OFFCURVE",
"169 210 CURVE",
"171 200 OFFCURVE",
"179 192 OFFCURVE",
"189 192 CURVE SMOOTH",
"192 192 OFFCURVE",
"194 193 OFFCURVE",
"197 194 CURVE SMOOTH",
"211 199 OFFCURVE",
"211 219 OFFCURVE",
"210 231 CURVE",
"222 230 OFFCURVE",
"235 232 OFFCURVE",
"248 231 CURVE",
"256 231 OFFCURVE",
"273 234 OFFCURVE",
"279 226 CURVE",
"281 223 OFFCURVE",
"282 219 OFFCURVE",
"282 215 CURVE SMOOTH",
"282 212 OFFCURVE",
"281 208 OFFCURVE",
"281 204 CURVE",
"280 195 OFFCURVE",
"280 186 OFFCURVE",
"280 176 CURVE SMOOTH",
"281 139 OFFCURVE",
"282 95 OFFCURVE",
"257 65 CURVE",
"242 45 OFFCURVE",
"216 41 OFFCURVE",
"191 41 CURVE SMOOTH",
"182 41 OFFCURVE",
"174 41 OFFCURVE",
"166 42 CURVE SMOOTH",
"150 44 OFFCURVE",
"133 47 OFFCURVE",
"118 53 CURVE SMOOTH",
"104 59 OFFCURVE",
"93 72 OFFCURVE",
"85 85 CURVE",
"63 125 OFFCURVE",
"62 174 OFFCURVE",
"62 217 CURVE SMOOTH",
"62 249 OFFCURVE",
"63 280 OFFCURVE",
"63 312 CURVE SMOOTH",
"63 350 OFFCURVE",
"63 388 OFFCURVE",
"63 426 CURVE SMOOTH",
"63 483 LINE SMOOTH",
"63 511 OFFCURVE",
"62 539 OFFCURVE",
"63 567 CURVE",
"63 588 OFFCURVE",
"63 610 OFFCURVE",
"69 629 CURVE SMOOTH",
"77 654 OFFCURVE",
"102 659 OFFCURVE",
"126 659 CURVE SMOOTH",
"135 659 OFFCURVE",
"144 659 OFFCURVE",
"152 658 CURVE",
"173 657 OFFCURVE",
"194 654 OFFCURVE",
"212 643 CURVE",
"221 637 OFFCURVE",
"228 630 OFFCURVE",
"233 621 CURVE SMOOTH",
"239 611 OFFCURVE",
"240 598 OFFCURVE",
"243 587 CURVE",
"226 588 OFFCURVE",
"188 590 OFFCURVE",
"196 562 CURVE",
"198 553 OFFCURVE",
"205 547 OFFCURVE",
"214 546 CURVE",
"227 543 OFFCURVE",
"241 544 OFFCURVE",
"255 543 CURVE",
"269 543 OFFCURVE",
"284 544 OFFCURVE",
"298 547 CURVE",
"309 548 OFFCURVE",
"320 552 OFFCURVE",
"320 568 CURVE SMOOTH",
"320 574 OFFCURVE",
"319 579 OFFCURVE",
"316 583 CURVE SMOOTH",
"312 588 OFFCURVE",
"305 589 OFFCURVE",
"299 589 CURVE SMOOTH",
"294 589 OFFCURVE",
"288 588 OFFCURVE",
"284 588 CURVE",
"287 607 OFFCURVE",
"278 627 OFFCURVE",
"269 643 CURVE",
"259 659 OFFCURVE",
"247 672 OFFCURVE",
"230 681 CURVE SMOOTH",
"210 692 OFFCURVE",
"188 697 OFFCURVE",
"166 699 CURVE SMOOTH",
"154 700 OFFCURVE",
"143 701 OFFCURVE",
"131 701 CURVE SMOOTH",
"121 701 OFFCURVE",
"111 700 OFFCURVE",
"102 699 CURVE SMOOTH",
"73 696 OFFCURVE",
"47 680 OFFCURVE",
"34 653 CURVE SMOOTH",
"22 626 OFFCURVE",
"20 594 OFFCURVE",
"20 565 CURVE SMOOTH",
"20 525 OFFCURVE",
"21 485 OFFCURVE",
"21 445 CURVE SMOOTH",
"21 389 OFFCURVE",
"21 332 OFFCURVE",
"22 275 CURVE SMOOTH",
"22 246 OFFCURVE",
"23 218 OFFCURVE",
"25 190 CURVE SMOOTH",
"27 163 OFFCURVE",
"28 136 OFFCURVE",
"33 110 CURVE SMOOTH",
"41 71 OFFCURVE",
"62 32 OFFCURVE",
"99 15 CURVE SMOOTH",
"124 3 OFFCURVE",
"154 0 OFFCURVE",
"182 0 CURVE SMOOTH"
);
}
);
width = 367;
}
);
leftMetricsKey = "=O";
rightMetricsKey = "=O";
unicode = 0047;
},
{
glyphname = H;
lastChange = "2017-07-23 21:07:22 +0000";
layers = (
{
layerId = "A32222FF-B936-4048-B269-9E41D1D80F08";
paths = (
{
closed = 1;
nodes = (
"367 -10 OFFCURVE",
"372 -7 OFFCURVE",
"379 0 CURVE SMOOTH",
"383 4 OFFCURVE",
"385 9 OFFCURVE",
"385 15 CURVE SMOOTH",
"385 19 OFFCURVE",
"384 24 OFFCURVE",
"381 28 CURVE",
"374 36 OFFCURVE",
"363 37 OFFCURVE",
"353 37 CURVE SMOOTH",
"347 37 LINE SMOOTH",
"345 37 OFFCURVE",
"343 37 OFFCURVE",
"343 40 CURVE",
"342 46 OFFCURVE",
"342 52 OFFCURVE",
"341 59 CURVE SMOOTH",
"339 71 OFFCURVE",
"338 84 OFFCURVE",
"338 96 CURVE",
"337 126 OFFCURVE",
"337 155 OFFCURVE",
"337 185 CURVE SMOOTH",
"337 273 LINE",
"337 391 LINE SMOOTH",
"337 469 OFFCURVE",
"336 548 OFFCURVE",
"325 626 CURVE SMOOTH",
"322 644 LINE",
"322 647 OFFCURVE",
"321 650 OFFCURVE",
"321 653 CURVE",
"323 654 OFFCURVE",
"326 655 OFFCURVE",
"329 655 CURVE",
"340 659 OFFCURVE",
"352 664 OFFCURVE",
"352 679 CURVE SMOOTH",
"352 690 OFFCURVE",
"344 701 OFFCURVE",
"332 701 CURVE SMOOTH",
"331 701 LINE SMOOTH",
"326 701 OFFCURVE",
"322 699 OFFCURVE",
"318 698 CURVE",
"312 697 OFFCURVE",
"306 697 OFFCURVE",
"301 697 CURVE SMOOTH",
"289 697 OFFCURVE",
"277 697 OFFCURVE",
"265 693 CURVE",
"256 689 OFFCURVE",
"250 680 OFFCURVE",
"250 671 CURVE SMOOTH",
"250 666 OFFCURVE",
"252 661 OFFCURVE",
"256 657 CURVE",
"260 652 OFFCURVE",
"264 651 OFFCURVE",
"270 651 CURVE SMOOTH",
"276 651 LINE",
"278 642 OFFCURVE",
"280 633 OFFCURVE",
"281 624 CURVE",
"285 602 OFFCURVE",
"287 578 OFFCURVE",
"289 555 CURVE SMOOTH",
"291 526 OFFCURVE",
"293 496 OFFCURVE",
"293 467 CURVE",
"294 453 OFFCURVE",
"294 439 OFFCURVE",
"294 425 CURVE SMOOTH",
"294 393 LINE SMOOTH",
"294 387 OFFCURVE",
"290 388 OFFCURVE",
"285 387 CURVE SMOOTH",
"257 381 OFFCURVE",
"229 379 OFFCURVE",
"201 380 CURVE",
"159 380 LINE SMOOTH",
"145 380 OFFCURVE",
"131 380 OFFCURVE",
"117 381 CURVE",
"111 381 OFFCURVE",
"105 382 OFFCURVE",
"99 383 CURVE",
"98 390 OFFCURVE",
"97 397 OFFCURVE",
"97 404 CURVE",
"95 419 OFFCURVE",
"94 434 OFFCURVE",
"92 449 CURVE SMOOTH",
"89 477 OFFCURVE",
"84 505 OFFCURVE",
"79 533 CURVE SMOOTH",
"75 561 OFFCURVE",
"71 589 OFFCURVE",
"70 618 CURVE",
"70 624 OFFCURVE",
"70 630 OFFCURVE",
"71 637 CURVE",
"71 639 OFFCURVE",
"71 642 OFFCURVE",
"72 645 CURVE",
"72 650 OFFCURVE",
"74 648 OFFCURVE",
"78 649 CURVE",
"88 649 OFFCURVE",
"100 651 OFFCURVE",
"106 659 CURVE",
"110 663 OFFCURVE",
"111 669 OFFCURVE",
"111 674 CURVE SMOOTH",
"111 683 OFFCURVE",
"107 691 OFFCURVE",
"99 694 CURVE",
"96 695 OFFCURVE",
"92 696 OFFCURVE",
"88 696 CURVE SMOOTH",
"81 696 OFFCURVE",
"73 694 OFFCURVE",
"66 694 CURVE SMOOTH",
"52 694 OFFCURVE",
"38 697 OFFCURVE",
"24 697 CURVE SMOOTH",
"10 697 OFFCURVE",
"-2 689 OFFCURVE",
"-2 677 CURVE SMOOTH",
"-2 673 OFFCURVE",
"0 668 OFFCURVE",
"4 663 CURVE SMOOTH",
"10 656 OFFCURVE",
"18 654 OFFCURVE",
"27 652 CURVE",
"27 638 OFFCURVE",
"26 624 OFFCURVE",
"26 609 CURVE",
"27 581 OFFCURVE",
"33 552 OFFCURVE",
"38 523 CURVE SMOOTH",
"42 494 OFFCURVE",
"46 465 OFFCURVE",
"49 436 CURVE SMOOTH",
"57 376 OFFCURVE",
"62 317 OFFCURVE",
"63 257 CURVE SMOOTH",
"64 227 OFFCURVE",
"64 197 OFFCURVE",
"64 167 CURVE SMOOTH",
"64 148 OFFCURVE",
"65 130 OFFCURVE",
"65 111 CURVE SMOOTH",
"65 102 OFFCURVE",
"65 93 OFFCURVE",
"64 84 CURVE SMOOTH",
"63 72 OFFCURVE",
"62 60 OFFCURVE",
"62 49 CURVE",
"52 50 OFFCURVE",
"41 48 OFFCURVE",
"35 39 CURVE",
"32 35 OFFCURVE",
"31 31 OFFCURVE",
"31 26 CURVE SMOOTH",
"31 21 OFFCURVE",
"33 16 OFFCURVE",
"37 12 CURVE",
"46 2 OFFCURVE",
"65 1 OFFCURVE",
"81 1 CURVE SMOOTH",
"97 1 OFFCURVE",
"109 0 OFFCURVE",
"129 0 CURVE SMOOTH",
"139 0 OFFCURVE",
"145 -1 OFFCURVE",
"156 0 CURVE SMOOTH",
"165 1 OFFCURVE",
"169 3 OFFCURVE",
"174 11 CURVE SMOOTH",
"176 14 OFFCURVE",
"177 18 OFFCURVE",
"177 23 CURVE SMOOTH",
"177 28 OFFCURVE",
"175 33 OFFCURVE",
"172 38 CURVE",
"166 45 OFFCURVE",
"163 47 OFFCURVE",
"153 47 CURVE SMOOTH",
"142 47 OFFCURVE",
"134 44 OFFCURVE",
"125 44 CURVE SMOOTH",
"115 44 LINE SMOOTH",
"110 44 OFFCURVE",
"108 42 OFFCURVE",
"108 48 CURVE SMOOTH",
"108 174 LINE SMOOTH",
"108 210 OFFCURVE",
"108 246 OFFCURVE",
"106 282 CURVE SMOOTH",
"105 301 OFFCURVE",
"104 320 OFFCURVE",
"102 339 CURVE",
"134 334 OFFCURVE",
"166 334 OFFCURVE",
"198 334 CURVE",
"247 337 LINE SMOOTH",
"263 338 OFFCURVE",
"279 339 OFFCURVE",
"294 343 CURVE",
"294 294 OFFCURVE",
"293 244 OFFCURVE",
"293 195 CURVE SMOOTH",
"293 157 OFFCURVE",
"292 118 OFFCURVE",
"292 79 CURVE",
"293 70 OFFCURVE",
"293 60 OFFCURVE",
"294 50 CURVE",
"294 48 OFFCURVE",
"295 46 OFFCURVE",
"295 44 CURVE SMOOTH",
"295 40 OFFCURVE",
"294 42 OFFCURVE",
"290 41 CURVE SMOOTH",
"286 40 OFFCURVE",
"283 38 OFFCURVE",
"280 35 CURVE SMOOTH",
"275 30 OFFCURVE",
"273 26 OFFCURVE",
"273 21 CURVE SMOOTH",
"273 12 OFFCURVE",
"281 4 OFFCURVE",
"292 0 CURVE SMOOTH",
"305 -5 OFFCURVE",
"322 -7 OFFCURVE",
"336 -8 CURVE SMOOTH"
);
}
);
width = 406;
}
);
unicode = 0048;
},
{
glyphname = I;
lastChange = "2017-07-23 21:07:22 +0000";
layers = (
{
layerId = "A32222FF-B936-4048-B269-9E41D1D80F08";
paths = (
{
closed = 1;
nodes = (
"143 0 OFFCURVE",
"151 0 OFFCURVE",
"157 8 CURVE SMOOTH",
"160 12 OFFCURVE",
"162 17 OFFCURVE",
"162 23 CURVE SMOOTH",
"162 31 OFFCURVE",
"158 39 OFFCURVE",
"146 43 CURVE",
"141 44 OFFCURVE",
"134 44 OFFCURVE",
"128 44 CURVE",
"128 55 OFFCURVE",
"129 66 OFFCURVE",
"128 77 CURVE",
"128 112 LINE SMOOTH",
"128 138 OFFCURVE",
"128 164 OFFCURVE",
"127 191 CURVE SMOOTH",
"125 244 OFFCURVE",
"122 296 OFFCURVE",
"115 349 CURVE SMOOTH",
"108 401 OFFCURVE",
"104 453 OFFCURVE",
"98 505 CURVE",
"96 531 OFFCURVE",
"93 557 OFFCURVE",
"91 583 CURVE SMOOTH",
"89 607 OFFCURVE",
"90 632 OFFCURVE",
"84 656 CURVE",
"99 656 OFFCURVE",
"131 654 OFFCURVE",
"132 676 CURVE",
"134 697 OFFCURVE",
"110 701 OFFCURVE",
"94 701 CURVE SMOOTH",
"85 701 OFFCURVE",
"77 700 OFFCURVE",
"69 700 CURVE SMOOTH",
"59 700 OFFCURVE",
"49 702 OFFCURVE",
"40 704 CURVE",
"34 705 OFFCURVE",
"26 706 OFFCURVE",
"18 706 CURVE SMOOTH",
"5 706 OFFCURVE",
"-7 702 OFFCURVE",
"-7 684 CURVE SMOOTH",
"-7 663 OFFCURVE",
"20 660 OFFCURVE",
"36 659 CURVE",
"39 658 OFFCURVE",
"38 659 OFFCURVE",
"40 652 CURVE",
"41 642 OFFCURVE",
"45 624 OFFCURVE",
"44 626 CURVE",
"46 612 OFFCURVE",
"47 597 OFFCURVE",
"48 583 CURVE SMOOTH",
"52 525 OFFCURVE",
"58 466 OFFCURVE",
"64 408 CURVE SMOOTH",
"74 317 LINE SMOOTH",
"78 286 OFFCURVE",
"79 254 OFFCURVE",
"81 223 CURVE SMOOTH",
"84 182 OFFCURVE",
"84 142 OFFCURVE",
"84 100 CURVE SMOOTH",
"84 87 LINE",
"83 73 OFFCURVE",
"84 60 OFFCURVE",
"83 47 CURVE",
"67 47 OFFCURVE",
"48 43 OFFCURVE",
"49 22 CURVE",
"51 -2 OFFCURVE",
"78 3 OFFCURVE",
"94 3 CURVE SMOOTH",
"107 3 OFFCURVE",
"120 1 OFFCURVE",
"134 0 CURVE"
);
}
);
width = 183;
}
);
leftMetricsKey = "=H-5";
rightMetricsKey = "=H";
unicode = 0049;
},
{
glyphname = J;
lastChange = "2017-07-23 21:07:22 +0000";
layers = (
{
layerId = "A32222FF-B936-4048-B269-9E41D1D80F08";
paths = (
{
closed = 1;
nodes = (
"181 -3 OFFCURVE",
"211 10 OFFCURVE",
"235 30 CURVE SMOOTH",
"265 56 OFFCURVE",
"286 94 OFFCURVE",
"286 134 CURVE",
"285 194 OFFCURVE",
"285 254 OFFCURVE",
"284 314 CURVE",
"284 504 LINE SMOOTH",
"284 534 OFFCURVE",
"284 617 OFFCURVE",
"280 656 CURVE",
"287 655 OFFCURVE",
"295 654 OFFCURVE",
"302 654 CURVE SMOOTH",
"309 654 OFFCURVE",
"315 655 OFFCURVE",
"321 657 CURVE",
"329 660 OFFCURVE",
"333 667 OFFCURVE",
"333 674 CURVE SMOOTH",
"333 679 OFFCURVE",
"331 684 OFFCURVE",
"328 688 CURVE",
"319 699 OFFCURVE",
"303 700 OFFCURVE",
"291 701 CURVE SMOOTH",
"277 702 OFFCURVE",
"264 701 OFFCURVE",
"251 701 CURVE SMOOTH",
"240 701 OFFCURVE",
"227 703 OFFCURVE",
"214 703 CURVE SMOOTH",
"203 703 OFFCURVE",
"191 701 OFFCURVE",
"182 695 CURVE",
"177 691 OFFCURVE",
"174 685 OFFCURVE",
"174 679 CURVE SMOOTH",
"174 674 OFFCURVE",
"176 669 OFFCURVE",
"180 665 CURVE SMOOTH",
"188 657 OFFCURVE",
"200 655 OFFCURVE",
"213 655 CURVE SMOOTH",
"220 655 OFFCURVE",
"227 656 OFFCURVE",
"233 656 CURVE",
"233 644 OFFCURVE",
"235 632 OFFCURVE",
"236 620 CURVE SMOOTH",
"237 606 OFFCURVE",
"237 591 OFFCURVE",
"237 577 CURVE SMOOTH",
"240 488 LINE SMOOTH",
"241 429 OFFCURVE",
"241 369 OFFCURVE",
"241 309 CURVE SMOOTH",
"241 279 OFFCURVE",
"242 249 OFFCURVE",
"242 219 CURVE SMOOTH",
"242 191 OFFCURVE",
"243 162 OFFCURVE",
"242 133 CURVE SMOOTH",
"241 114 OFFCURVE",
"236 94 OFFCURVE",
"224 78 CURVE SMOOTH",
"211 61 OFFCURVE",
"192 52 OFFCURVE",
"172 47 CURVE SMOOTH",
"165 45 OFFCURVE",
"158 44 OFFCURVE",
"151 44 CURVE SMOOTH",
"141 44 OFFCURVE",
"131 46 OFFCURVE",
"122 51 CURVE",
"104 60 OFFCURVE",
"92 79 OFFCURVE",
"87 98 CURVE",
"79 122 OFFCURVE",
"77 147 OFFCURVE",
"77 172 CURVE SMOOTH",
"77 199 OFFCURVE",
"80 227 OFFCURVE",
"79 255 CURVE",
"120 255 LINE SMOOTH",
"129 255 OFFCURVE",
"139 255 OFFCURVE",
"146 261 CURVE SMOOTH",
"151 265 OFFCURVE",
"154 272 OFFCURVE",
"154 278 CURVE SMOOTH",
"154 281 OFFCURVE",
"154 283 OFFCURVE",
"153 285 CURVE",
"150 293 OFFCURVE",
"141 297 OFFCURVE",
"134 298 CURVE",
"130 299 OFFCURVE",
"125 299 OFFCURVE",
"120 299 CURVE SMOOTH",
"116 299 OFFCURVE",
"111 299 OFFCURVE",
"107 299 CURVE SMOOTH",
"99 299 LINE SMOOTH",
"85 299 OFFCURVE",
"72 298 OFFCURVE",
"58 299 CURVE",
"51 300 OFFCURVE",
"43 301 OFFCURVE",
"34 301 CURVE SMOOTH",
"20 301 OFFCURVE",
"5 297 OFFCURVE",
"5 279 CURVE SMOOTH",
"5 273 OFFCURVE",
"8 266 OFFCURVE",
"13 262 CURVE SMOOTH",
"17 259 OFFCURVE",
"23 257 OFFCURVE",
"28 256 CURVE",
"32 256 OFFCURVE",
"34 257 OFFCURVE",
"34 252 CURVE SMOOTH",
"34 240 LINE",
"35 222 OFFCURVE",
"34 204 OFFCURVE",
"34 185 CURVE SMOOTH",
"34 148 OFFCURVE",
"35 110 OFFCURVE",
"48 74 CURVE SMOOTH",
"63 30 OFFCURVE",
"101 -3 OFFCURVE",
"150 -3 CURVE SMOOTH"
);
}
);
width = 354;
}
);
rightMetricsKey = "=H";
unicode = 004A;
},
{
glyphname = K;
lastChange = "2017-07-23 21:07:22 +0000";
layers = (
{
layerId = "A32222FF-B936-4048-B269-9E41D1D80F08";
paths = (
{
closed = 1;
nodes = (
"365 -5 OFFCURVE",
"386 -5 OFFCURVE",
"386 20 CURVE SMOOTH",
"386 30 OFFCURVE",
"381 40 OFFCURVE",
"367 40 CURVE SMOOTH",
"366 40 OFFCURVE",
"366 40 OFFCURVE",
"365 40 CURVE",
"355 39 LINE",
"352 39 OFFCURVE",
"349 40 OFFCURVE",
"348 42 CURVE",
"338 60 LINE",
"330 73 OFFCURVE",
"324 86 OFFCURVE",
"319 100 CURVE",
"308 126 OFFCURVE",
"295 151 OFFCURVE",
"281 175 CURVE",
"268 200 OFFCURVE",
"254 226 OFFCURVE",
"240 250 CURVE SMOOTH",
"226 275 OFFCURVE",
"209 299 OFFCURVE",
"195 324 CURVE",
"192 330 OFFCURVE",
"190 335 OFFCURVE",
"186 340 CURVE",
"183 345 OFFCURVE",
"190 351 OFFCURVE",
"192 355 CURVE",
"200 367 OFFCURVE",
"206 379 OFFCURVE",
"213 391 CURVE",
"224 415 OFFCURVE",
"234 440 OFFCURVE",
"245 464 CURVE SMOOTH",
"257 490 OFFCURVE",
"268 515 OFFCURVE",
"277 541 CURVE SMOOTH",
"286 568 OFFCURVE",
"293 596 OFFCURVE",
"300 623 CURVE",
"309 653 LINE",
"310 657 OFFCURVE",
"309 663 OFFCURVE",
"314 663 CURVE",
"324 665 OFFCURVE",
"337 669 OFFCURVE",
"341 680 CURVE",
"344 687 OFFCURVE",
"342 695 OFFCURVE",
"337 701 CURVE",
"333 708 OFFCURVE",
"326 709 OFFCURVE",
"319 709 CURVE SMOOTH",
"312 709 LINE",
"304 708 OFFCURVE",
"296 707 OFFCURVE",
"287 707 CURVE SMOOTH",
"282 707 OFFCURVE",
"276 708 OFFCURVE",
"270 708 CURVE SMOOTH",
"264 708 OFFCURVE",
"258 710 OFFCURVE",
"252 710 CURVE SMOOTH",
"246 710 OFFCURVE",
"240 708 OFFCURVE",
"235 703 CURVE SMOOTH",
"231 699 OFFCURVE",
"228 693 OFFCURVE",
"228 687 CURVE SMOOTH",
"228 682 OFFCURVE",
"230 677 OFFCURVE",
"233 673 CURVE",
"241 665 OFFCURVE",
"254 665 OFFCURVE",
"264 664 CURVE",
"250 597 OFFCURVE",
"227 532 OFFCURVE",
"199 469 CURVE SMOOTH",
"186 439 OFFCURVE",
"173 409 OFFCURVE",
"155 380 CURVE SMOOTH",
"139 354 OFFCURVE",
"122 325 OFFCURVE",
"100 302 CURVE",
"98 362 OFFCURVE",
"97 422 OFFCURVE",
"96 482 CURVE",
"96 512 OFFCURVE",
"96 541 OFFCURVE",
"94 571 CURVE SMOOTH",
"92 600 OFFCURVE",
"89 628 OFFCURVE",
"89 657 CURVE",
"88 661 OFFCURVE",
"87 663 OFFCURVE",
"92 663 CURVE",
"95 664 OFFCURVE",
"99 664 OFFCURVE",
"102 664 CURVE",
"106 665 OFFCURVE",
"110 665 OFFCURVE",
"114 667 CURVE",
"121 670 OFFCURVE",
"125 676 OFFCURVE",
"126 683 CURVE",
"129 696 OFFCURVE",
"120 710 OFFCURVE",
"106 709 CURVE SMOOTH",
"77 706 OFFCURVE",
"49 702 OFFCURVE",
"20 700 CURVE SMOOTH",
"7 699 OFFCURVE",
"-2 688 OFFCURVE",
"-2 676 CURVE SMOOTH",
"-2 660 OFFCURVE",
"10 656 OFFCURVE",
"22 656 CURVE SMOOTH",
"29 656 OFFCURVE",
"37 657 OFFCURVE",
"43 658 CURVE",
"45 598 OFFCURVE",
"52 538 OFFCURVE",
"53 478 CURVE SMOOTH",
"53 418 OFFCURVE",
"55 358 OFFCURVE",
"56 298 CURVE SMOOTH",
"57 268 OFFCURVE",
"57 238 OFFCURVE",
"57 208 CURVE SMOOTH",
"57 178 OFFCURVE",
"57 148 OFFCURVE",
"56 118 CURVE SMOOTH",
"56 74 LINE",
"55 68 OFFCURVE",
"55 61 OFFCURVE",
"54 55 CURVE",
"54 51 OFFCURVE",
"55 50 OFFCURVE",
"51 49 CURVE",
"48 48 OFFCURVE",
"45 46 OFFCURVE",
"43 44 CURVE",
"38 38 OFFCURVE",
"37 32 OFFCURVE",
"37 27 CURVE SMOOTH",
"37 14 OFFCURVE",
"47 2 OFFCURVE",
"62 -1 CURVE SMOOTH",
"75 -4 OFFCURVE",
"91 -4 OFFCURVE",
"105 -4 CURVE",
"119 -5 OFFCURVE",
"135 -4 OFFCURVE",
"147 3 CURVE SMOOTH",
"155 8 OFFCURVE",
"159 16 OFFCURVE",
"159 24 CURVE SMOOTH",
"159 30 OFFCURVE",
"157 37 OFFCURVE",
"151 41 CURVE",
"147 44 OFFCURVE",
"143 45 OFFCURVE",
"140 45 CURVE SMOOTH",
"136 45 OFFCURVE",
"133 44 OFFCURVE",
"129 43 CURVE",
"119 41 OFFCURVE",
"108 41 OFFCURVE",
"98 41 CURVE",
"101 78 OFFCURVE",
"102 116 OFFCURVE",
"102 154 CURVE SMOOTH",
"102 189 LINE",
"102 225 LINE SMOOTH",
"102 231 OFFCURVE",
"102 237 OFFCURVE",
"101 243 CURVE",
"101 249 OFFCURVE",
"109 252 OFFCURVE",
"114 256 CURVE SMOOTH",
"130 269 OFFCURVE",
"143 285 OFFCURVE",
"156 302 CURVE",
"167 281 OFFCURVE",
"181 263 OFFCURVE",
"193 243 CURVE SMOOTH",
"207 220 OFFCURVE",
"220 197 OFFCURVE",
"233 173 CURVE SMOOTH",
"269 105 LINE",
"279 84 OFFCURVE",
"286 62 OFFCURVE",
"296 42 CURVE",
"286 41 OFFCURVE",
"277 36 OFFCURVE",
"273 26 CURVE",
"270 17 OFFCURVE",
"274 7 OFFCURVE",
"281 2 CURVE SMOOTH",
"289 -4 OFFCURVE",
"299 -4 OFFCURVE",
"308 -4 CURVE SMOOTH",
"321 -4 OFFCURVE",
"335 -5 OFFCURVE",
"348 -5 CURVE SMOOTH"
);
}
);
width = 383;
}
);
leftMetricsKey = "=H";
rightKerningGroup = K;
unicode = 004B;
},
{
glyphname = L;
lastChange = "2017-07-23 21:07:22 +0000";
layers = (
{
layerId = "A32222FF-B936-4048-B269-9E41D1D80F08";
paths = (
{
closed = 1;
nodes = (
"125 -10 OFFCURVE",
"135 -9 OFFCURVE",
"143 -7 CURVE",
"183 1 OFFCURVE",
"222 2 OFFCURVE",
"262 2 CURVE SMOOTH",
"306 2 LINE SMOOTH",
"325 2 OFFCURVE",
"349 3 OFFCURVE",
"349 31 CURVE SMOOTH",
"349 58 OFFCURVE",
"340 86 OFFCURVE",
"338 112 CURVE",
"353 113 OFFCURVE",
"369 117 OFFCURVE",
"369 135 CURVE SMOOTH",
"369 153 OFFCURVE",
"354 158 OFFCURVE",
"337 158 CURVE SMOOTH",
"320 158 OFFCURVE",
"301 153 OFFCURVE",
"292 151 CURVE",
"278 149 OFFCURVE",
"262 145 OFFCURVE",
"262 127 CURVE SMOOTH",
"262 112 OFFCURVE",
"273 106 OFFCURVE",
"286 106 CURVE SMOOTH",
"289 106 OFFCURVE",
"291 106 OFFCURVE",
"294 107 CURVE",
"295 87 OFFCURVE",
"297 67 OFFCURVE",
"301 47 CURVE",
"268 47 OFFCURVE",
"236 47 OFFCURVE",
"203 46 CURVE",
"174 44 OFFCURVE",
"145 35 OFFCURVE",
"115 35 CURVE",
"115 94 OFFCURVE",
"116 154 OFFCURVE",
"116 214 CURVE SMOOTH",
"116 364 OFFCURVE",
"111 515 OFFCURVE",
"79 660 CURVE",
"90 660 OFFCURVE",
"103 658 OFFCURVE",
"112 667 CURVE SMOOTH",
"117 672 OFFCURVE",
"119 677 OFFCURVE",
"119 683 CURVE SMOOTH",
"119 689 OFFCURVE",
"117 694 OFFCURVE",
"112 698 CURVE",
"105 705 OFFCURVE",
"93 707 OFFCURVE",
"80 707 CURVE SMOOTH",
"63 707 OFFCURVE",
"44 704 OFFCURVE",
"33 703 CURVE",
"22 703 OFFCURVE",
"8 704 OFFCURVE",
"-1 696 CURVE",
"-5 692 OFFCURVE",
"-7 686 OFFCURVE",
"-7 680 CURVE SMOOTH",
"-7 674 OFFCURVE",
"-5 669 OFFCURVE",
"-1 664 CURVE",
"3 660 OFFCURVE",
"9 658 OFFCURVE",
"15 658 CURVE SMOOTH",
"20 658 OFFCURVE",
"24 659 OFFCURVE",
"27 659 CURVE SMOOTH",
"31 659 OFFCURVE",
"33 658 OFFCURVE",
"35 650 CURVE SMOOTH",
"39 634 OFFCURVE",
"43 618 OFFCURVE",
"46 601 CURVE SMOOTH",
"69 481 OFFCURVE",
"68 353 OFFCURVE",
"71 230 CURVE SMOOTH",
"71 34 LINE SMOOTH",
"71 24 OFFCURVE",
"71 15 OFFCURVE",
"75 7 CURVE",
"83 -6 OFFCURVE",
"99 -10 OFFCURVE",
"114 -10 CURVE SMOOTH"
);
}
);
width = 383;
}
);
leftMetricsKey = "=H-5";
unicode = 004C;
},
{
glyphname = M;
lastChange = "2017-07-23 21:07:22 +0000";
layers = (
{
layerId = "A32222FF-B936-4048-B269-9E41D1D80F08";
paths = (
{
closed = 1;
nodes = (
"367 -10 OFFCURVE",
"374 -9 OFFCURVE",
"380 -6 CURVE",
"387 -3 OFFCURVE",
"393 5 OFFCURVE",
"393 13 CURVE SMOOTH",
"393 15 LINE",
"392 24 OFFCURVE",
"382 30 OFFCURVE",
"374 32 CURVE",
"372 33 OFFCURVE",
"370 34 OFFCURVE",
"368 34 CURVE",
"364 35 OFFCURVE",
"365 38 OFFCURVE",
"365 42 CURVE SMOOTH",
"365 460 LINE SMOOTH",
"365 489 OFFCURVE",
"365 518 OFFCURVE",
"366 546 CURVE",
"366 663 LINE",
"374 663 OFFCURVE",
"387 661 OFFCURVE",
"394 672 CURVE",
"397 676 OFFCURVE",
"398 681 OFFCURVE",
"398 686 CURVE SMOOTH",
"398 691 OFFCURVE",
"397 696 OFFCURVE",
"393 700 CURVE SMOOTH",
"385 708 OFFCURVE",
"372 708 OFFCURVE",
"362 708 CURVE SMOOTH",
"351 708 OFFCURVE",
"336 710 OFFCURVE",
"326 706 CURVE",
"320 704 OFFCURVE",
"315 699 OFFCURVE",
"313 693 CURVE SMOOTH",
"312 690 OFFCURVE",
"312 686 OFFCURVE",
"312 683 CURVE SMOOTH",
"312 678 OFFCURVE",
"309 675 OFFCURVE",
"307 671 CURVE",
"285 622 LINE",
"272 589 OFFCURVE",
"258 556 OFFCURVE",
"244 524 CURVE SMOOTH",
"229 491 OFFCURVE",
"215 459 OFFCURVE",
"206 424 CURVE",
"182 477 OFFCURVE",
"158 529 OFFCURVE",
"132 581 CURVE SMOOTH",
"121 604 OFFCURVE",
"108 626 OFFCURVE",
"98 650 CURVE",
"93 659 OFFCURVE",
"89 669 OFFCURVE",
"83 678 CURVE SMOOTH",
"75 690 LINE",
"73 695 OFFCURVE",
"69 699 OFFCURVE",
"64 701 CURVE",
"62 702 OFFCURVE",
"59 702 OFFCURVE",
"56 702 CURVE SMOOTH",
"50 702 OFFCURVE",
"44 701 OFFCURVE",
"39 701 CURVE",
"29 700 OFFCURVE",
"19 700 OFFCURVE",
"11 696 CURVE",
"2 691 OFFCURVE",
"-2 684 OFFCURVE",
"-2 676 CURVE SMOOTH",
"-2 667 OFFCURVE",
"4 658 OFFCURVE",
"16 655 CURVE",
"23 655 LINE SMOOTH",
"27 655 OFFCURVE",
"27 657 OFFCURVE",
"28 652 CURVE SMOOTH",
"31 634 LINE SMOOTH",
"33 619 OFFCURVE",
"33 604 OFFCURVE",
"34 590 CURVE",
"35 561 OFFCURVE",
"38 532 OFFCURVE",
"39 503 CURVE SMOOTH",
"42 444 OFFCURVE",
"45 386 OFFCURVE",
"47 327 CURVE SMOOTH",
"49 268 OFFCURVE",
"48 210 OFFCURVE",
"50 151 CURVE SMOOTH",
"51 128 OFFCURVE",
"52 104 OFFCURVE",
"51 81 CURVE",
"51 72 OFFCURVE",
"50 63 OFFCURVE",
"50 54 CURVE SMOOTH",
"50 40 LINE SMOOTH",
"50 36 OFFCURVE",
"47 37 OFFCURVE",
"44 37 CURVE",
"41 36 OFFCURVE",
"37 36 OFFCURVE",
"33 35 CURVE",
"23 32 OFFCURVE",
"18 23 OFFCURVE",
"18 14 CURVE SMOOTH",
"18 10 OFFCURVE",
"19 6 OFFCURVE",
"21 2 CURVE SMOOTH",
"24 -4 OFFCURVE",
"30 -7 OFFCURVE",
"37 -8 CURVE",
"51 -8 OFFCURVE",
"65 -7 OFFCURVE",
"79 -6 CURVE",
"86 -6 OFFCURVE",
"95 -7 OFFCURVE",
"103 -7 CURVE SMOOTH",
"116 -7 OFFCURVE",
"127 -5 OFFCURVE",
"132 7 CURVE",
"133 10 OFFCURVE",
"134 13 OFFCURVE",
"134 16 CURVE SMOOTH",
"134 28 OFFCURVE",
"123 37 OFFCURVE",
"110 37 CURVE SMOOTH",
"106 37 OFFCURVE",
"103 37 OFFCURVE",
"100 38 CURVE",
"95 38 OFFCURVE",
"96 40 OFFCURVE",
"96 44 CURVE",
"95 51 OFFCURVE",
"95 57 OFFCURVE",
"95 63 CURVE SMOOTH",
"95 79 OFFCURVE",
"95 94 OFFCURVE",
"94 109 CURVE",
"94 138 OFFCURVE",
"93 167 OFFCURVE",
"94 197 CURVE SMOOTH",
"94 226 OFFCURVE",
"94 255 OFFCURVE",
"93 284 CURVE",
"93 313 OFFCURVE",
"90 342 OFFCURVE",
"88 371 CURVE SMOOTH",
"85 431 OFFCURVE",
"84 490 OFFCURVE",
"79 549 CURVE SMOOTH",
"78 564 OFFCURVE",
"77 580 OFFCURVE",
"77 595 CURVE",
"103 546 OFFCURVE",
"125 495 OFFCURVE",
"149 444 CURVE SMOOTH",
"160 422 OFFCURVE",
"171 399 OFFCURVE",
"181 375 CURVE SMOOTH",
"186 362 OFFCURVE",
"193 342 OFFCURVE",
"208 340 CURVE",
"227 336 OFFCURVE",
"235 356 OFFCURVE",
"238 370 CURVE SMOOTH",
"243 393 OFFCURVE",
"248 415 OFFCURVE",
"255 437 CURVE SMOOTH",
"264 464 OFFCURVE",
"276 490 OFFCURVE",
"288 516 CURVE",
"299 543 OFFCURVE",
"311 570 OFFCURVE",
"322 597 CURVE",
"322 42 LINE",
"321 38 OFFCURVE",
"320 39 OFFCURVE",
"316 39 CURVE",
"305 38 OFFCURVE",
"295 33 OFFCURVE",
"291 21 CURVE",
"286 2 OFFCURVE",
"313 -5 OFFCURVE",
"327 -6 CURVE SMOOTH",
"337 -7 OFFCURVE",
"349 -10 OFFCURVE",
"360 -10 CURVE SMOOTH"
);
}
);
width = 419;
}
);
leftMetricsKey = "=H";
rightMetricsKey = "=H";
unicode = 004D;
},
{
glyphname = N;
lastChange = "2017-07-23 21:07:22 +0000";
layers = (
{
layerId = "A32222FF-B936-4048-B269-9E41D1D80F08";
paths = (
{
closed = 1;
nodes = (
"127 -10 OFFCURVE",
"137 -7 OFFCURVE",
"141 5 CURVE SMOOTH",
"142 8 OFFCURVE",
"142 11 OFFCURVE",
"142 14 CURVE SMOOTH",
"142 33 OFFCURVE",
"114 34 OFFCURVE",
"101 36 CURVE",
"101 56 OFFCURVE",
"99 77 OFFCURVE",
"98 97 CURVE SMOOTH",
"97 121 OFFCURVE",
"97 144 OFFCURVE",
"97 167 CURVE SMOOTH",
"97 363 LINE SMOOTH",
"97 437 OFFCURVE",
"96 512 OFFCURVE",
"94 586 CURVE",
"105 567 OFFCURVE",
"114 549 OFFCURVE",
"122 528 CURVE SMOOTH",
"146 458 LINE SMOOTH",
"162 410 OFFCURVE",
"184 365 OFFCURVE",
"202 318 CURVE SMOOTH",
"221 271 OFFCURVE",
"240 224 OFFCURVE",
"260 178 CURVE",
"269 155 OFFCURVE",
"278 132 OFFCURVE",
"285 108 CURVE SMOOTH",
"292 86 OFFCURVE",
"295 63 OFFCURVE",
"299 40 CURVE",
"287 41 OFFCURVE",
"272 41 OFFCURVE",
"266 29 CURVE",
"264 26 OFFCURVE",
"263 22 OFFCURVE",
"263 18 CURVE SMOOTH",
"263 12 OFFCURVE",
"266 5 OFFCURVE",
"272 1 CURVE SMOOTH",
"281 -5 OFFCURVE",
"293 -5 OFFCURVE",
"303 -6 CURVE SMOOTH",
"334 -9 LINE",
"339 -9 OFFCURVE",
"346 -10 OFFCURVE",
"353 -10 CURVE SMOOTH",
"369 -10 OFFCURVE",
"387 -8 OFFCURVE",
"397 3 CURVE",
"400 7 OFFCURVE",
"402 12 OFFCURVE",
"402 17 CURVE SMOOTH",
"402 23 OFFCURVE",
"400 28 OFFCURVE",
"396 33 CURVE",
"392 37 OFFCURVE",
"388 38 OFFCURVE",
"377 38 CURVE SMOOTH",
"366 38 LINE",
"361 37 OFFCURVE",
"356 37 OFFCURVE",
"354 37 CURVE",
"353 65 OFFCURVE",
"351 95 OFFCURVE",
"350 123 CURVE SMOOTH",
"349 153 OFFCURVE",
"348 183 OFFCURVE",
"346 212 CURVE",
"344 272 OFFCURVE",
"341 332 OFFCURVE",
"340 392 CURVE",
"340 422 OFFCURVE",
"339 451 OFFCURVE",
"339 481 CURVE SMOOTH",
"339 510 OFFCURVE",
"340 540 OFFCURVE",
"340 569 CURVE SMOOTH",
"340 591 OFFCURVE",
"340 614 OFFCURVE",
"342 636 CURVE",
"342 639 OFFCURVE",
"343 647 OFFCURVE",
"346 661 CURVE",
"358 661 LINE SMOOTH",
"370 661 OFFCURVE",
"382 665 OFFCURVE",
"387 677 CURVE",
"393 696 OFFCURVE",
"376 705 OFFCURVE",
"360 706 CURVE",
"337 706 OFFCURVE",
"315 706 OFFCURVE",
"292 710 CURVE",
"282 711 LINE",
"276 711 OFFCURVE",
"271 710 OFFCURVE",
"266 706 CURVE SMOOTH",
"261 702 OFFCURVE",
"258 695 OFFCURVE",
"258 688 CURVE SMOOTH",
"258 686 OFFCURVE",
"258 683 OFFCURVE",
"259 681 CURVE",
"265 665 OFFCURVE",
"289 665 OFFCURVE",
"300 664 CURVE",
"296 648 OFFCURVE",
"295 630 OFFCURVE",
"295 611 CURVE SMOOTH",
"295 593 OFFCURVE",
"296 575 OFFCURVE",
"296 557 CURVE SMOOTH",
"296 516 OFFCURVE",
"296 474 OFFCURVE",
"297 432 CURVE SMOOTH",
"298 349 OFFCURVE",
"301 266 OFFCURVE",
"304 182 CURVE",
"272 266 OFFCURVE",
"233 347 OFFCURVE",
"201 431 CURVE SMOOTH",
"185 470 OFFCURVE",
"174 510 OFFCURVE",
"160 549 CURVE SMOOTH",
"153 569 OFFCURVE",
"144 588 OFFCURVE",
"135 606 CURVE",
"124 626 OFFCURVE",
"111 646 OFFCURVE",
"103 667 CURVE",
"119 667 OFFCURVE",
"142 663 OFFCURVE",
"147 684 CURVE SMOOTH",
"150 696 OFFCURVE",
"143 710 OFFCURVE",
"129 711 CURVE",
"95 712 OFFCURVE",
"60 709 OFFCURVE",
"26 709 CURVE SMOOTH",
"20 709 OFFCURVE",
"15 708 OFFCURVE",
"10 706 CURVE",
"2 702 OFFCURVE",
"-2 695 OFFCURVE",
"-2 687 CURVE SMOOTH",
"-2 685 OFFCURVE",
"-2 683 OFFCURVE",
"-1 681 CURVE",
"1 672 OFFCURVE",
"10 665 OFFCURVE",
"19 665 CURVE SMOOTH",
"39 665 LINE",
"40 658 OFFCURVE",
"42 651 OFFCURVE",
"44 643 CURVE SMOOTH",
"47 631 OFFCURVE",
"47 617 OFFCURVE",
"47 604 CURVE",
"50 559 LINE SMOOTH",
"52 499 OFFCURVE",
"53 439 OFFCURVE",
"53 380 CURVE SMOOTH",
"54 323 OFFCURVE",
"54 265 OFFCURVE",
"54 208 CURVE SMOOTH",
"54 41 LINE",
"50 42 OFFCURVE",
"46 42 OFFCURVE",
"42 42 CURVE SMOOTH",
"35 42 OFFCURVE",
"28 41 OFFCURVE",
"23 35 CURVE",
"20 31 OFFCURVE",
"19 26 OFFCURVE",
"19 21 CURVE SMOOTH",
"19 16 OFFCURVE",
"20 11 OFFCURVE",
"23 7 CURVE",
"29 0 OFFCURVE",
"39 -1 OFFCURVE",
"47 -3 CURVE",
"61 -5 OFFCURVE",
"74 -7 OFFCURVE",
"87 -7 CURVE SMOOTH",
"95 -7 OFFCURVE",
"106 -10 OFFCURVE",
"116 -10 CURVE SMOOTH"
);
}
);
width = 423;
}
);
leftMetricsKey = "=H";
rightMetricsKey = "=H";
unicode = 004E;
},
{
glyphname = O;
lastChange = "2017-07-23 21:07:22 +0000";
layers = (
{
layerId = "A32222FF-B936-4048-B269-9E41D1D80F08";
paths = (
{
closed = 1;
nodes = (
"242 -4 OFFCURVE",
"268 1 OFFCURVE",
"289 17 CURVE SMOOTH",
"317 37 OFFCURVE",
"332 69 OFFCURVE",
"341 100 CURVE SMOOTH",
"352 139 OFFCURVE",
"357 180 OFFCURVE",
"361 219 CURVE SMOOTH",
"367 271 OFFCURVE",
"370 324 OFFCURVE",
"370 377 CURVE SMOOTH",
"370 428 OFFCURVE",
"367 479 OFFCURVE",
"360 528 CURVE SMOOTH",
"349 592 OFFCURVE",
"329 636 OFFCURVE",
"299 663 CURVE SMOOTH",
"268 691 OFFCURVE",
"225 698 OFFCURVE",
"185 698 CURVE SMOOTH",
"139 698 OFFCURVE",
"96 690 OFFCURVE",
"65 654 CURVE",
"42 625 OFFCURVE",
"31 587 OFFCURVE",
"26 550 CURVE SMOOTH",
"23 528 OFFCURVE",
"23 506 OFFCURVE",
"23 484 CURVE SMOOTH",
"20 394 LINE",
"20 345 LINE SMOOTH",
"20 302 OFFCURVE",
"21 259 OFFCURVE",
"26 215 CURVE SMOOTH",
"29 190 OFFCURVE",
"33 164 OFFCURVE",
"37 139 CURVE SMOOTH",
"41 116 OFFCURVE",
"46 93 OFFCURVE",
"57 72 CURVE SMOOTH",
"80 30 OFFCURVE",
"129 8 OFFCURVE",
"174 0 CURVE SMOOTH",
"187 -2 OFFCURVE",
"201 -4 OFFCURVE",
"215 -4 CURVE SMOOTH"
);
},
{
closed = 1;
nodes = (
"181 43 OFFCURVE",
"160 47 OFFCURVE",
"141 57 CURVE SMOOTH",
"109 74 OFFCURVE",
"92 106 OFFCURVE",
"84 140 CURVE SMOOTH",
"72 186 OFFCURVE",
"68 234 OFFCURVE",
"66 281 CURVE",
"66 296 OFFCURVE",
"65 310 OFFCURVE",
"65 325 CURVE SMOOTH",
"65 371 OFFCURVE",
"67 418 OFFCURVE",
"68 464 CURVE SMOOTH",
"68 492 OFFCURVE",
"68 520 OFFCURVE",
"73 548 CURVE SMOOTH",
"77 572 OFFCURVE",
"83 598 OFFCURVE",
"95 619 CURVE",
"113 648 OFFCURVE",
"145 653 OFFCURVE",
"176 653 CURVE SMOOTH",
"222 653 OFFCURVE",
"271 644 OFFCURVE",
"292 599 CURVE",
"303 573 OFFCURVE",
"310 546 OFFCURVE",
"314 519 CURVE SMOOTH",
"318 490 OFFCURVE",
"318 462 OFFCURVE",
"319 433 CURVE SMOOTH",
"320 406 OFFCURVE",
"323 380 OFFCURVE",
"323 354 CURVE SMOOTH",
"323 326 OFFCURVE",
"323 309 OFFCURVE",
"317 249 CURVE",
"314 202 LINE SMOOTH",
"313 189 OFFCURVE",
"305 129 OFFCURVE",
"301 113 CURVE SMOOTH",
"296 90 OFFCURVE",
"288 65 OFFCURVE",
"267 52 CURVE",
"247 41 OFFCURVE",
"224 40 OFFCURVE",
"202 41 CURVE"
);
}
);
width = 414;
}
);
leftKerningGroup = O;
rightKerningGroup = O;
unicode = 004F;
},
{
glyphname = Oslash;
lastChange = "2017-07-23 21:07:22 +0000";
layers = (
{
layerId = "A32222FF-B936-4048-B269-9E41D1D80F08";
paths = (
{
closed = 1;
nodes = (
"107 -52 OFFCURVE",
"110 -51 OFFCURVE",
"113 -50 CURVE SMOOTH",
"131 -44 OFFCURVE",
"136 -11 OFFCURVE",
"141 5 CURVE",
"141 6 OFFCURVE",
"142 7 OFFCURVE",
"142 8 CURVE",
"153 5 OFFCURVE",
"163 2 OFFCURVE",
"174 0 CURVE SMOOTH",
"187 -2 OFFCURVE",
"201 -4 OFFCURVE",
"215 -4 CURVE SMOOTH",
"242 -4 OFFCURVE",
"268 1 OFFCURVE",
"289 17 CURVE SMOOTH",
"317 37 OFFCURVE",
"332 69 OFFCURVE",
"341 100 CURVE SMOOTH",
"352 139 OFFCURVE",
"357 180 OFFCURVE",
"361 219 CURVE SMOOTH",
"367 271 OFFCURVE",
"370 324 OFFCURVE",
"370 377 CURVE SMOOTH",
"370 428 OFFCURVE",
"367 479 OFFCURVE",
"360 528 CURVE SMOOTH",
"349 592 OFFCURVE",
"329 636 OFFCURVE",
"299 663 CURVE SMOOTH",
"292 669 OFFCURVE",
"284 675 OFFCURVE",
"276 679 CURVE",
"277 691 OFFCURVE",
"280 703 OFFCURVE",
"280 714 CURVE SMOOTH",
"280 728 OFFCURVE",
"269 737 OFFCURVE",
"257 737 CURVE SMOOTH",
"235 737 OFFCURVE",
"232 714 OFFCURVE",
"231 694 CURVE",
"216 697 OFFCURVE",
"200 698 OFFCURVE",
"185 698 CURVE SMOOTH",
"139 698 OFFCURVE",
"96 690 OFFCURVE",
"65 654 CURVE",
"42 625 OFFCURVE",
"31 587 OFFCURVE",
"26 550 CURVE SMOOTH",
"23 528 OFFCURVE",
"23 506 OFFCURVE",
"23 484 CURVE SMOOTH",
"20 394 LINE",
"20 345 LINE SMOOTH",
"20 302 OFFCURVE",
"21 259 OFFCURVE",
"26 215 CURVE SMOOTH",
"29 190 OFFCURVE",
"33 164 OFFCURVE",
"37 139 CURVE SMOOTH",
"41 116 OFFCURVE",
"46 93 OFFCURVE",
"57 72 CURVE SMOOTH",
"67 53 OFFCURVE",
"83 39 OFFCURVE",
"100 27 CURVE",
"96 12 OFFCURVE",
"89 -2 OFFCURVE",
"84 -18 CURVE SMOOTH",
"83 -21 OFFCURVE",
"83 -23 OFFCURVE",
"83 -26 CURVE SMOOTH",
"83 -39 OFFCURVE",
"91 -52 OFFCURVE",
"104 -52 CURVE SMOOTH"
);
},
{
closed = 1;
nodes = (
"99 95 OFFCURVE",
"89 117 OFFCURVE",
"84 140 CURVE",
"72 186 OFFCURVE",
"68 234 OFFCURVE",
"66 281 CURVE",
"66 296 OFFCURVE",
"65 310 OFFCURVE",
"65 325 CURVE SMOOTH",
"65 371 OFFCURVE",
"67 418 OFFCURVE",
"68 464 CURVE SMOOTH",
"68 492 OFFCURVE",
"68 520 OFFCURVE",
"73 548 CURVE SMOOTH",
"77 572 OFFCURVE",
"83 598 OFFCURVE",
"95 619 CURVE",
"113 648 OFFCURVE",
"145 653 OFFCURVE",
"176 653 CURVE SMOOTH",
"193 653 OFFCURVE",
"210 652 OFFCURVE",
"226 648 CURVE",
"224 631 OFFCURVE",
"221 615 OFFCURVE",
"219 599 CURVE SMOOTH",
"213 552 OFFCURVE",
"205 506 OFFCURVE",
"196 460 CURVE SMOOTH",
"187 414 OFFCURVE",
"176 369 OFFCURVE",
"166 323 CURVE SMOOTH",
"156 275 OFFCURVE",
"147 227 OFFCURVE",
"138 179 CURVE SMOOTH",
"131 145 OFFCURVE",
"124 111 OFFCURVE",
"115 77 CURVE"
);
},
{
closed = 1;
nodes = (
"186 43 OFFCURVE",
"170 45 OFFCURVE",
"155 51 CURVE",
"158 59 OFFCURVE",
"160 68 OFFCURVE",
"162 77 CURVE SMOOTH",
"174 125 OFFCURVE",
"184 173 OFFCURVE",
"193 222 CURVE SMOOTH",
"210 317 OFFCURVE",
"235 409 OFFCURVE",
"251 504 CURVE SMOOTH",
"258 546 OFFCURVE",
"264 587 OFFCURVE",
"270 628 CURVE",
"279 621 OFFCURVE",
"286 611 OFFCURVE",
"292 599 CURVE",
"303 573 OFFCURVE",
"310 546 OFFCURVE",
"314 519 CURVE SMOOTH",
"318 490 OFFCURVE",
"318 462 OFFCURVE",
"319 433 CURVE SMOOTH",
"320 406 OFFCURVE",
"323 380 OFFCURVE",
"323 354 CURVE SMOOTH",
"323 326 OFFCURVE",
"323 309 OFFCURVE",
"317 249 CURVE",
"314 202 LINE SMOOTH",
"313 189 OFFCURVE",
"305 129 OFFCURVE",
"301 113 CURVE SMOOTH",
"296 90 OFFCURVE",
"288 65 OFFCURVE",
"267 52 CURVE",
"247 41 OFFCURVE",
"224 40 OFFCURVE",
"202 41 CURVE"
);
}
);
width = 414;
}
);
leftKerningGroup = O;
leftMetricsKey = "=O";
rightKerningGroup = O;
rightMetricsKey = "=O";
unicode = 00D8;
},
{
glyphname = P;
lastChange = "2017-07-23 21:07:22 +0000";
layers = (
{
layerId = "A32222FF-B936-4048-B269-9E41D1D80F08";
paths = (
{
closed = 1;
nodes = (
"59 -3 OFFCURVE",
"79 -2 OFFCURVE",
"98 -1 CURVE SMOOTH",
"117 0 OFFCURVE",
"152 -2 OFFCURVE",
"149 27 CURVE",
"149 35 OFFCURVE",
"144 42 OFFCURVE",
"136 44 CURVE",
"129 45 OFFCURVE",
"122 44 OFFCURVE",
"115 43 CURVE",
"105 42 OFFCURVE",
"95 42 OFFCURVE",
"86 41 CURVE",
"86 68 OFFCURVE",
"83 95 OFFCURVE",
"82 122 CURVE SMOOTH",
"81 142 OFFCURVE",
"81 160 OFFCURVE",
"81 179 CURVE SMOOTH",
"81 276 LINE",
"102 276 OFFCURVE",
"123 276 OFFCURVE",
"145 278 CURVE",
"163 279 OFFCURVE",
"181 279 OFFCURVE",
"198 281 CURVE SMOOTH",
"233 285 OFFCURVE",
"269 294 OFFCURVE",
"296 316 CURVE",
"327 339 OFFCURVE",
"337 372 OFFCURVE",
"341 409 CURVE SMOOTH",
"344 434 OFFCURVE",
"345 460 OFFCURVE",
"345 485 CURVE SMOOTH",
"345 498 OFFCURVE",
"345 511 OFFCURVE",
"344 524 CURVE SMOOTH",
"338 597 OFFCURVE",
"318 635 OFFCURVE",
"290 659 CURVE SMOOTH",
"255 690 OFFCURVE",
"209 699 OFFCURVE",
"165 701 CURVE SMOOTH",
"142 702 OFFCURVE",
"119 702 OFFCURVE",
"97 702 CURVE",
"71 701 OFFCURVE",
"44 703 OFFCURVE",
"17 702 CURVE",
"5 701 OFFCURVE",
"-2 694 OFFCURVE",
"-2 684 CURVE SMOOTH",
"-2 681 OFFCURVE",
"-1 678 OFFCURVE",
"0 675 CURVE",
"3 669 OFFCURVE",
"8 664 OFFCURVE",
"14 661 CURVE",
"17 660 OFFCURVE",
"22 642 OFFCURVE",
"24 628 CURVE",
"27 600 OFFCURVE",
"25 573 OFFCURVE",
"27 546 CURVE SMOOTH",
"29 519 OFFCURVE",
"31 490 OFFCURVE",
"34 463 CURVE SMOOTH",
"38 434 OFFCURVE",
"38 404 OFFCURVE",
"38 374 CURVE SMOOTH",
"38 339 LINE",
"38 167 LINE SMOOTH",
"38 125 OFFCURVE",
"43 82 OFFCURVE",
"43 40 CURVE",
"34 40 OFFCURVE",
"24 40 OFFCURVE",
"19 31 CURVE",
"16 27 OFFCURVE",
"15 23 OFFCURVE",
"15 19 CURVE SMOOTH",
"15 15 OFFCURVE",
"16 12 OFFCURVE",
"17 9 CURVE",
"21 -1 OFFCURVE",
"30 -3 OFFCURVE",
"39 -3 CURVE SMOOTH"
);
},
{
closed = 1;
nodes = (
"125 321 OFFCURVE",
"103 321 OFFCURVE",
"81 322 CURVE",
"81 351 OFFCURVE",
"82 380 OFFCURVE",
"81 410 CURVE SMOOTH",
"80 438 OFFCURVE",
"77 465 OFFCURVE",
"75 493 CURVE SMOOTH",
"73 521 OFFCURVE",
"69 548 OFFCURVE",
"69 577 CURVE",
"68 604 OFFCURVE",
"70 633 OFFCURVE",
"61 659 CURVE",
"81 659 OFFCURVE",
"102 660 OFFCURVE",
"123 660 CURVE SMOOTH",
"147 660 OFFCURVE",
"171 659 OFFCURVE",
"195 655 CURVE SMOOTH",
"230 649 OFFCURVE",
"265 635 OFFCURVE",
"282 600 CURVE SMOOTH",
"298 566 OFFCURVE",
"297 529 OFFCURVE",
"299 492 CURVE SMOOTH",
"300 473 OFFCURVE",
"300 457 OFFCURVE",
"300 444 CURVE SMOOTH",
"300 411 OFFCURVE",
"297 389 OFFCURVE",
"289 367 CURVE",
"274 335 OFFCURVE",
"231 327 OFFCURVE",
"198 324 CURVE SMOOTH",
"182 322 OFFCURVE",
"165 321 OFFCURVE",
"148 321 CURVE SMOOTH"
);
}
);
width = 376;
}
);
leftMetricsKey = "=H";
unicode = 0050;
},
{
glyphname = Q;
lastChange = "2017-07-23 21:07:22 +0000";
layers = (
{
layerId = "A32222FF-B936-4048-B269-9E41D1D80F08";
paths = (
{
closed = 1;
nodes = (
"328 -30 OFFCURVE",
"336 -26 OFFCURVE",
"340 -17 CURVE",
"341 -14 OFFCURVE",
"342 -11 OFFCURVE",
"342 -8 CURVE SMOOTH",
"342 2 OFFCURVE",
"335 11 OFFCURVE",
"325 13 CURVE",
"312 18 OFFCURVE",
"305 27 OFFCURVE",
"300 38 CURVE",
"297 43 OFFCURVE",
"295 49 OFFCURVE",
"292 55 CURVE",
"289 63 LINE",
"295 76 LINE",
"307 98 OFFCURVE",
"317 123 OFFCURVE",
"323 148 CURVE SMOOTH",
"337 204 OFFCURVE",
"343 261 OFFCURVE",
"348 319 CURVE SMOOTH",
"351 371 OFFCURVE",
"354 426 OFFCURVE",
"354 479 CURVE",
"353 537 OFFCURVE",
"347 604 OFFCURVE",
"305 649 CURVE SMOOTH",
"274 683 OFFCURVE",
"225 701 OFFCURVE",
"179 701 CURVE SMOOTH",
"172 701 OFFCURVE",
"164 701 OFFCURVE",
"157 700 CURVE SMOOTH",
"34 681 OFFCURVE",
"20 538 OFFCURVE",
"20 428 CURVE SMOOTH",
"20 409 OFFCURVE",
"21 390 OFFCURVE",
"21 374 CURVE SMOOTH",
"23 308 OFFCURVE",
"21 243 OFFCURVE",
"31 179 CURVE SMOOTH",
"41 114 OFFCURVE",
"67 43 OFFCURVE",
"130 12 CURVE SMOOTH",
"150 2 OFFCURVE",
"173 -4 OFFCURVE",
"195 -4 CURVE SMOOTH",
"219 -4 OFFCURVE",
"240 7 OFFCURVE",
"257 24 CURVE",
"269 -2 OFFCURVE",
"289 -30 OFFCURVE",
"319 -30 CURVE SMOOTH"
);
},
{
closed = 1;
nodes = (
"155 40 OFFCURVE",
"116 74 OFFCURVE",
"101 101 CURVE",
"92 120 OFFCURVE",
"84 139 OFFCURVE",
"80 158 CURVE SMOOTH",
"74 186 LINE",
"67 247 OFFCURVE",
"67 309 OFFCURVE",
"67 371 CURVE SMOOTH",
"68 405 OFFCURVE",
"67 439 OFFCURVE",
"69 472 CURVE SMOOTH",
"71 530 OFFCURVE",
"78 608 OFFCURVE",
"131 642 CURVE SMOOTH",
"146 651 OFFCURVE",
"165 656 OFFCURVE",
"184 656 CURVE SMOOTH",
"197 656 OFFCURVE",
"210 654 OFFCURVE",
"222 650 CURVE SMOOTH",
"248 642 OFFCURVE",
"270 623 OFFCURVE",
"283 599 CURVE SMOOTH",
"306 558 OFFCURVE",
"311 508 OFFCURVE",
"311 459 CURVE SMOOTH",
"311 444 OFFCURVE",
"311 429 OFFCURVE",
"310 414 CURVE SMOOTH",
"308 384 OFFCURVE",
"309 394 OFFCURVE",
"299 301 CURVE SMOOTH",
"293 250 OFFCURVE",
"291 197 OFFCURVE",
"276 147 CURVE SMOOTH",
"273 136 OFFCURVE",
"269 124 OFFCURVE",
"264 112 CURVE",
"261 108 OFFCURVE",
"259 100 OFFCURVE",
"255 100 CURVE SMOOTH",
"254 100 LINE",
"251 101 OFFCURVE",
"247 101 OFFCURVE",
"244 101 CURVE SMOOTH",
"241 101 OFFCURVE",
"238 101 OFFCURVE",
"234 100 CURVE",
"224 97 OFFCURVE",
"211 91 OFFCURVE",
"208 80 CURVE",
"204 69 OFFCURVE",
"209 57 OFFCURVE",
"221 52 CURVE",
"212 44 OFFCURVE",
"201 40 OFFCURVE",
"190 40 CURVE SMOOTH"
);
}
);
width = 374;
}
);
leftMetricsKey = "=O";
unicode = 0051;
},
{
glyphname = R;
lastChange = "2017-07-23 21:07:22 +0000";
layers = (
{
layerId = "A32222FF-B936-4048-B269-9E41D1D80F08";
paths = (
{
closed = 1;
nodes = (
"129 -11 OFFCURVE",
"138 -10 OFFCURVE",
"146 -7 CURVE",
"155 -4 OFFCURVE",
"163 7 OFFCURVE",
"163 16 CURVE SMOOTH",
"163 21 OFFCURVE",
"161 26 OFFCURVE",
"156 29 CURVE",
"150 34 OFFCURVE",
"142 35 OFFCURVE",
"133 36 CURVE",
"121 36 LINE",
"120 45 OFFCURVE",
"120 54 OFFCURVE",
"119 62 CURVE",
"119 194 LINE SMOOTH",
"119 211 OFFCURVE",
"119 228 OFFCURVE",
"118 245 CURVE SMOOTH",
"115 302 LINE",
"154 302 LINE SMOOTH",
"174 302 OFFCURVE",
"193 302 OFFCURVE",
"212 304 CURVE",
"217 218 OFFCURVE",
"243 135 OFFCURVE",
"284 60 CURVE",
"270 61 OFFCURVE",
"258 51 OFFCURVE",
"258 39 CURVE SMOOTH",
"258 34 OFFCURVE",
"260 29 OFFCURVE",
"264 25 CURVE",
"275 11 OFFCURVE",
"299 11 OFFCURVE",
"315 9 CURVE",
"330 8 OFFCURVE",
"355 7 OFFCURVE",
"363 24 CURVE",
"364 27 OFFCURVE",
"365 30 OFFCURVE",
"365 33 CURVE SMOOTH",
"365 44 OFFCURVE",
"358 56 OFFCURVE",
"343 56 CURVE SMOOTH",
"337 56 OFFCURVE",
"334 66 OFFCURVE",
"331 70 CURVE",
"322 84 LINE",
"315 97 OFFCURVE",
"309 110 OFFCURVE",
"303 123 CURVE SMOOTH",
"291 150 OFFCURVE",
"281 178 OFFCURVE",
"273 206 CURVE SMOOTH",
"265 236 OFFCURVE",
"260 266 OFFCURVE",
"258 296 CURVE",
"258 300 OFFCURVE",
"257 303 OFFCURVE",
"257 307 CURVE SMOOTH",
"257 312 OFFCURVE",
"259 311 OFFCURVE",
"263 312 CURVE",
"269 313 OFFCURVE",
"275 315 OFFCURVE",
"281 317 CURVE SMOOTH",
"294 321 OFFCURVE",
"306 325 OFFCURVE",
"318 332 CURVE",
"335 341 OFFCURVE",
"352 353 OFFCURVE",
"362 372 CURVE",
"370 389 OFFCURVE",
"374 407 OFFCURVE",
"376 425 CURVE SMOOTH",
"377 433 OFFCURVE",
"377 441 OFFCURVE",
"377 450 CURVE SMOOTH",
"377 481 OFFCURVE",
"373 512 OFFCURVE",
"368 542 CURVE SMOOTH",
"355 616 OFFCURVE",
"317 708 OFFCURVE",
"226 708 CURVE SMOOTH",
"200 708 OFFCURVE",
"173 704 OFFCURVE",
"147 700 CURVE SMOOTH",
"132 698 OFFCURVE",
"118 695 OFFCURVE",
"103 694 CURVE",
"96 694 OFFCURVE",
"88 693 OFFCURVE",
"81 693 CURVE SMOOTH",
"73 693 OFFCURVE",
"66 694 OFFCURVE",
"58 694 CURVE SMOOTH",
"52 694 OFFCURVE",
"44 695 OFFCURVE",
"36 695 CURVE SMOOTH",
"17 695 OFFCURVE",
"-2 691 OFFCURVE",
"-2 671 CURVE SMOOTH",
"-2 648 OFFCURVE",
"26 644 OFFCURVE",
"43 643 CURVE",
"42 643 OFFCURVE",
"46 642 OFFCURVE",
"51 578 CURVE SMOOTH",
"54 550 OFFCURVE",
"57 523 OFFCURVE",
"59 496 CURVE SMOOTH",
"61 470 OFFCURVE",
"63 442 OFFCURVE",
"64 415 CURVE",
"65 402 OFFCURVE",
"66 388 OFFCURVE",
"66 375 CURVE",
"68 344 LINE",
"58 341 OFFCURVE",
"55 334 OFFCURVE",
"55 326 CURVE SMOOTH",
"55 315 OFFCURVE",
"62 304 OFFCURVE",
"70 304 CURVE",
"70 296 OFFCURVE",
"71 289 OFFCURVE",
"71 282 CURVE",
"74 200 LINE",
"74 173 OFFCURVE",
"75 145 OFFCURVE",
"75 118 CURVE SMOOTH",
"75 101 OFFCURVE",
"74 85 OFFCURVE",
"74 68 CURVE SMOOTH",
"74 59 OFFCURVE",
"74 51 OFFCURVE",
"75 42 CURVE",
"69 43 OFFCURVE",
"62 44 OFFCURVE",
"55 44 CURVE SMOOTH",
"41 44 OFFCURVE",
"28 40 OFFCURVE",
"25 24 CURVE",
"23 8 OFFCURVE",
"40 0 OFFCURVE",
"53 -3 CURVE SMOOTH",
"67 -6 OFFCURVE",
"81 -7 OFFCURVE",
"95 -9 CURVE SMOOTH",
"103 -10 OFFCURVE",
"112 -11 OFFCURVE",
"121 -11 CURVE SMOOTH"
);
},
{
closed = 1;
nodes = (
"111 346 OFFCURVE",
"113 353 OFFCURVE",
"112 365 CURVE",
"112 373 OFFCURVE",
"112 380 OFFCURVE",
"111 387 CURVE",
"108 434 LINE SMOOTH",
"106 466 OFFCURVE",
"103 496 OFFCURVE",
"101 527 CURVE",
"98 555 OFFCURVE",
"94 584 OFFCURVE",
"94 612 CURVE",
"93 624 OFFCURVE",
"93 636 OFFCURVE",
"93 647 CURVE",
"108 650 OFFCURVE",
"124 652 OFFCURVE",
"141 654 CURVE",
"164 658 OFFCURVE",
"188 662 OFFCURVE",
"213 662 CURVE SMOOTH",
"240 662 OFFCURVE",
"268 654 OFFCURVE",
"286 633 CURVE SMOOTH",
"319 597 OFFCURVE",
"324 539 OFFCURVE",
"326 493 CURVE SMOOTH",
"327 477 OFFCURVE",
"328 462 OFFCURVE",
"328 446 CURVE",
"327 431 OFFCURVE",
"329 414 OFFCURVE",
"325 400 CURVE",
"319 382 OFFCURVE",
"300 372 OFFCURVE",
"283 366 CURVE SMOOTH",
"263 359 OFFCURVE",
"241 356 OFFCURVE",
"219 353 CURVE SMOOTH",
"193 349 OFFCURVE",
"164 347 OFFCURVE",
"116 346 CURVE SMOOTH"
);
}
);
width = 408;
}
);
leftMetricsKey = "=H";
unicode = 0052;
},
{
glyphname = S;
lastChange = "2017-07-23 21:07:22 +0000";
layers = (
{
layerId = "A32222FF-B936-4048-B269-9E41D1D80F08";
paths = (
{
closed = 1;
nodes = (
"247 1 OFFCURVE",
"283 8 OFFCURVE",
"306 17 CURVE SMOOTH",
"347 34 OFFCURVE",
"365 77 OFFCURVE",
"374 118 CURVE SMOOTH",
"380 142 OFFCURVE",
"382 167 OFFCURVE",
"382 192 CURVE SMOOTH",
"382 211 OFFCURVE",
"381 230 OFFCURVE",
"378 249 CURVE SMOOTH",
"375 270 OFFCURVE",
"373 291 OFFCURVE",
"363 310 CURVE SMOOTH",
"354 328 OFFCURVE",
"342 346 OFFCURVE",
"324 358 CURVE SMOOTH",
"307 369 OFFCURVE",
"287 374 OFFCURVE",
"266 375 CURVE SMOOTH",
"240 377 OFFCURVE",
"215 378 OFFCURVE",
"189 378 CURVE SMOOTH",
"163 378 OFFCURVE",
"137 374 OFFCURVE",
"114 389 CURVE SMOOTH",
"105 395 OFFCURVE",
"101 406 OFFCURVE",
"96 416 CURVE SMOOTH",
"88 431 LINE",
"84 437 OFFCURVE",
"83 444 OFFCURVE",
"81 451 CURVE",
"78 468 OFFCURVE",
"76 486 OFFCURVE",
"76 504 CURVE SMOOTH",
"76 532 OFFCURVE",
"80 560 OFFCURVE",
"86 586 CURVE SMOOTH",
"90 604 OFFCURVE",
"95 626 OFFCURVE",
"108 639 CURVE SMOOTH",
"119 650 OFFCURVE",
"133 655 OFFCURVE",
"148 657 CURVE SMOOTH",
"156 658 OFFCURVE",
"165 659 OFFCURVE",
"174 659 CURVE SMOOTH",
"197 659 OFFCURVE",
"221 655 OFFCURVE",
"241 646 CURVE SMOOTH",
"274 632 OFFCURVE",
"295 604 OFFCURVE",
"301 570 CURVE",
"284 570 OFFCURVE",
"266 574 OFFCURVE",
"249 572 CURVE",
"240 570 OFFCURVE",
"232 565 OFFCURVE",
"228 557 CURVE",
"227 554 OFFCURVE",
"226 551 OFFCURVE",
"226 548 CURVE SMOOTH",
"226 543 OFFCURVE",
"227 539 OFFCURVE",
"231 535 CURVE SMOOTH",
"240 526 OFFCURVE",
"258 528 OFFCURVE",
"270 527 CURVE",
"285 527 OFFCURVE",
"301 526 OFFCURVE",
"317 526 CURVE SMOOTH",
"335 526 OFFCURVE",
"353 527 OFFCURVE",
"369 531 CURVE SMOOTH",
"380 534 OFFCURVE",
"388 541 OFFCURVE",
"388 553 CURVE SMOOTH",
"388 555 LINE",
"386 566 OFFCURVE",
"377 573 OFFCURVE",
"365 573 CURVE SMOOTH",
"360 573 LINE",
"354 572 OFFCURVE",
"350 571 OFFCURVE",
"348 571 CURVE SMOOTH",
"345 571 OFFCURVE",
"345 572 OFFCURVE",
"344 574 CURVE",
"341 588 LINE SMOOTH",
"339 598 OFFCURVE",
"335 608 OFFCURVE",
"331 617 CURVE",
"322 634 OFFCURVE",
"311 649 OFFCURVE",
"296 661 CURVE SMOOTH",
"262 690 OFFCURVE",
"214 702 OFFCURVE",
"171 702 CURVE SMOOTH",
"140 702 OFFCURVE",
"108 696 OFFCURVE",
"85 676 CURVE SMOOTH",
"58 653 OFFCURVE",
"46 618 OFFCURVE",
"40 585 CURVE SMOOTH",
"36 562 OFFCURVE",
"34 537 OFFCURVE",
"34 513 CURVE SMOOTH",
"34 494 OFFCURVE",
"35 475 OFFCURVE",
"38 456 CURVE SMOOTH",
"41 434 OFFCURVE",
"44 412 OFFCURVE",
"55 393 CURVE",
"64 376 OFFCURVE",
"75 360 OFFCURVE",
"91 350 CURVE SMOOTH",
"114 335 OFFCURVE",
"141 332 OFFCURVE",
"168 332 CURVE SMOOTH",
"189 332 OFFCURVE",
"210 334 OFFCURVE",
"228 334 CURVE SMOOTH",
"256 334 OFFCURVE",
"285 331 OFFCURVE",
"307 312 CURVE SMOOTH",
"313 307 OFFCURVE",
"318 300 OFFCURVE",
"322 293 CURVE",
"323 290 OFFCURVE",
"333 267 OFFCURVE",
"334 262 CURVE SMOOTH",
"338 244 OFFCURVE",
"340 225 OFFCURVE",
"340 206 CURVE SMOOTH",
"340 115 OFFCURVE",
"334 67 OFFCURVE",
"252 48 CURVE SMOOTH",
"242 46 OFFCURVE",
"231 45 OFFCURVE",
"220 45 CURVE SMOOTH",
"207 45 OFFCURVE",
"195 46 OFFCURVE",
"183 48 CURVE",
"159 53 OFFCURVE",
"140 65 OFFCURVE",
"127 85 CURVE SMOOTH",
"114 104 OFFCURVE",
"106 126 OFFCURVE",
"101 148 CURVE SMOOTH",
"98 162 OFFCURVE",
"97 176 OFFCURVE",
"94 190 CURVE",
"109 191 OFFCURVE",
"126 191 OFFCURVE",
"141 194 CURVE",
"149 196 OFFCURVE",
"155 203 OFFCURVE",
"157 210 CURVE SMOOTH",
"159 218 OFFCURVE",
"158 226 OFFCURVE",
"153 232 CURVE SMOOTH",
"149 237 OFFCURVE",
"143 238 OFFCURVE",
"137 238 CURVE SMOOTH",
"131 238 OFFCURVE",
"125 237 OFFCURVE",
"119 236 CURVE SMOOTH",
"98 233 OFFCURVE",
"76 231 OFFCURVE",
"53 231 CURVE SMOOTH",
"43 231 OFFCURVE",
"33 231 OFFCURVE",
"24 228 CURVE SMOOTH",
"15 225 OFFCURVE",
"10 217 OFFCURVE",
"10 209 CURVE SMOOTH",
"10 206 OFFCURVE",
"11 203 OFFCURVE",
"12 200 CURVE SMOOTH",
"16 189 OFFCURVE",
"26 186 OFFCURVE",
"35 186 CURVE SMOOTH",
"39 186 OFFCURVE",
"43 187 OFFCURVE",
"46 187 CURVE",
"48 150 OFFCURVE",
"65 111 OFFCURVE",
"82 79 CURVE SMOOTH",
"100 44 OFFCURVE",
"133 17 OFFCURVE",
"171 6 CURVE",
"183 2 OFFCURVE",
"198 1 OFFCURVE",
"214 1 CURVE SMOOTH"
);
}
);
width = 432;
}
);
leftMetricsKey = "=O-10";
rightMetricsKey = "=O";
unicode = 0053;
},
{
glyphname = T;
lastChange = "2017-07-23 21:07:22 +0000";
layers = (
{
layerId = "A32222FF-B936-4048-B269-9E41D1D80F08";
paths = (
{
closed = 1;
nodes = (
"211 -15 OFFCURVE",
"249 -16 OFFCURVE",
"249 13 CURVE SMOOTH",
"249 19 OFFCURVE",
"247 26 OFFCURVE",
"243 30 CURVE",
"239 35 OFFCURVE",
"233 36 OFFCURVE",
"228 36 CURVE SMOOTH",
"222 36 OFFCURVE",
"215 35 OFFCURVE",
"209 34 CURVE",
"210 51 OFFCURVE",
"210 68 OFFCURVE",
"210 85 CURVE SMOOTH",
"210 118 OFFCURVE",
"209 152 OFFCURVE",
"209 186 CURVE",
"208 237 OFFCURVE",
"206 290 OFFCURVE",
"203 343 CURVE SMOOTH",
"200 394 OFFCURVE",
"195 446 OFFCURVE",
"187 496 CURVE SMOOTH",
"183 522 OFFCURVE",
"178 548 OFFCURVE",
"173 573 CURVE",
"172 585 OFFCURVE",
"171 596 OFFCURVE",
"171 608 CURVE SMOOTH",
"171 619 OFFCURVE",
"172 631 OFFCURVE",
"171 643 CURVE",
"189 643 OFFCURVE",
"207 641 OFFCURVE",
"227 641 CURVE SMOOTH",
"243 641 OFFCURVE",
"260 639 OFFCURVE",
"276 639 CURVE",
"276 628 OFFCURVE",
"278 616 OFFCURVE",
"279 603 CURVE",
"279 594 OFFCURVE",
"281 585 OFFCURVE",
"286 577 CURVE",
"291 570 OFFCURVE",
"297 567 OFFCURVE",
"303 567 CURVE SMOOTH",
"313 567 OFFCURVE",
"322 574 OFFCURVE",
"325 585 CURVE SMOOTH",
"327 593 OFFCURVE",
"328 601 OFFCURVE",
"328 609 CURVE SMOOTH",
"328 619 OFFCURVE",
"327 630 OFFCURVE",
"326 640 CURVE SMOOTH",
"323 668 OFFCURVE",
"324 685 OFFCURVE",
"303 689 CURVE",
"294 690 OFFCURVE",
"288 688 OFFCURVE",
"283 688 CURVE SMOOTH",
"260 688 LINE SMOOTH",
"244 688 OFFCURVE",
"227 688 OFFCURVE",
"210 689 CURVE",
"179 689 OFFCURVE",
"148 690 OFFCURVE",
"117 690 CURVE SMOOTH",
"42 690 LINE",
"38 695 OFFCURVE",
"32 699 OFFCURVE",
"24 699 CURVE SMOOTH",
"19 699 OFFCURVE",
"14 697 OFFCURVE",
"8 694 CURVE",
"2 688 OFFCURVE",
"0 681 OFFCURVE",
"0 674 CURVE SMOOTH",
"0 670 OFFCURVE",
"1 666 OFFCURVE",
"1 662 CURVE SMOOTH",
"2 631 OFFCURVE",
"2 602 OFFCURVE",
"2 573 CURVE SMOOTH",
"2 557 OFFCURVE",
"7 537 OFFCURVE",
"24 537 CURVE SMOOTH",
"27 537 OFFCURVE",
"30 538 OFFCURVE",
"33 539 CURVE",
"41 542 OFFCURVE",
"48 550 OFFCURVE",
"48 559 CURVE",
"49 574 OFFCURVE",
"47 589 OFFCURVE",
"47 604 CURVE SMOOTH",
"48 644 LINE",
"96 644 LINE SMOOTH",
"105 644 OFFCURVE",
"114 643 OFFCURVE",
"123 643 CURVE",
"122 594 OFFCURVE",
"131 547 OFFCURVE",
"140 499 CURVE SMOOTH",
"149 449 OFFCURVE",
"153 397 OFFCURVE",
"156 346 CURVE SMOOTH",
"158 293 OFFCURVE",
"160 241 OFFCURVE",
"161 188 CURVE SMOOTH",
"162 161 OFFCURVE",
"163 134 OFFCURVE",
"163 108 CURVE SMOOTH",
"163 84 OFFCURVE",
"162 60 OFFCURVE",
"162 35 CURVE",
"151 37 OFFCURVE",
"138 35 OFFCURVE",
"132 25 CURVE",
"129 21 OFFCURVE",
"128 17 OFFCURVE",
"128 12 CURVE SMOOTH",
"128 8 OFFCURVE",
"129 4 OFFCURVE",
"131 0 CURVE",
"136 -8 OFFCURVE",
"144 -10 OFFCURVE",
"153 -11 CURVE SMOOTH",
"165 -12 OFFCURVE",
"178 -14 OFFCURVE",
"190 -14 CURVE"
);
}
);
width = 345;
}
);
rightKerningGroup = T;
unicode = 0054;
},
{
glyphname = U;
lastChange = "2017-07-23 21:07:22 +0000";
layers = (
{
layerId = "A32222FF-B936-4048-B269-9E41D1D80F08";
paths = (
{
closed = 1;
nodes = (
"238 0 OFFCURVE",
"250 2 OFFCURVE",
"260 6 CURVE SMOOTH",
"292 18 OFFCURVE",
"313 50 OFFCURVE",
"323 81 CURVE SMOOTH",
"337 122 OFFCURVE",
"340 165 OFFCURVE",
"340 208 CURVE SMOOTH",
"340 239 OFFCURVE",
"338 270 OFFCURVE",
"338 300 CURVE SMOOTH",
"338 333 OFFCURVE",
"340 366 OFFCURVE",
"341 399 CURVE SMOOTH",
"342 441 OFFCURVE",
"342 484 OFFCURVE",
"342 527 CURVE SMOOTH",
"342 592 LINE SMOOTH",
"342 609 OFFCURVE",
"343 627 OFFCURVE",
"344 644 CURVE",
"344 656 LINE",
"347 658 OFFCURVE",
"351 660 OFFCURVE",
"353 663 CURVE",
"357 667 OFFCURVE",
"358 673 OFFCURVE",
"358 679 CURVE",
"357 686 OFFCURVE",
"352 699 OFFCURVE",
"340 699 CURVE SMOOTH",
"337 699 LINE",
"325 697 OFFCURVE",
"309 701 OFFCURVE",
"295 701 CURVE SMOOTH",
"286 701 OFFCURVE",
"277 699 OFFCURVE",
"270 693 CURVE SMOOTH",
"265 689 OFFCURVE",
"262 683 OFFCURVE",
"262 677 CURVE SMOOTH",
"262 672 OFFCURVE",
"264 668 OFFCURVE",
"266 664 CURVE",
"274 653 OFFCURVE",
"288 654 OFFCURVE",
"297 653 CURVE",
"297 641 OFFCURVE",
"298 628 OFFCURVE",
"298 615 CURVE SMOOTH",
"298 481 LINE SMOOTH",
"297 422 OFFCURVE",
"295 362 OFFCURVE",
"295 303 CURVE SMOOTH",
"294 245 OFFCURVE",
"294 187 OFFCURVE",
"287 129 CURVE SMOOTH",
"282 93 OFFCURVE",
"268 47 OFFCURVE",
"219 47 CURVE SMOOTH",
"190 47 OFFCURVE",
"164 64 OFFCURVE",
"147 86 CURVE SMOOTH",
"126 114 OFFCURVE",
"116 149 OFFCURVE",
"108 183 CURVE SMOOTH",
"100 221 OFFCURVE",
"95 259 OFFCURVE",
"91 298 CURVE SMOOTH",
"85 356 OFFCURVE",
"79 415 OFFCURVE",
"78 473 CURVE SMOOTH",
"77 504 OFFCURVE",
"77 534 OFFCURVE",
"77 565 CURVE SMOOTH",
"77 656 LINE",
"96 656 OFFCURVE",
"125 661 OFFCURVE",
"121 686 CURVE",
"119 693 OFFCURVE",
"115 700 OFFCURVE",
"109 703 CURVE",
"106 704 OFFCURVE",
"104 705 OFFCURVE",
"101 705 CURVE SMOOTH",
"95 705 OFFCURVE",
"89 702 OFFCURVE",
"82 702 CURVE SMOOTH",
"67 702 OFFCURVE",
"52 700 OFFCURVE",
"37 701 CURVE",
"26 701 OFFCURVE",
"13 703 OFFCURVE",
"4 696 CURVE",
"-2 692 OFFCURVE",
"-5 686 OFFCURVE",
"-5 679 CURVE SMOOTH",
"-5 675 OFFCURVE",
"-3 670 OFFCURVE",
"0 666 CURVE SMOOTH",
"6 658 OFFCURVE",
"14 656 OFFCURVE",
"23 656 CURVE SMOOTH",
"27 656 OFFCURVE",
"31 657 OFFCURVE",
"34 657 CURVE",
"34 623 OFFCURVE",
"33 589 OFFCURVE",
"33 555 CURVE SMOOTH",
"33 530 OFFCURVE",
"34 504 OFFCURVE",
"35 479 CURVE SMOOTH",
"38 422 OFFCURVE",
"42 366 OFFCURVE",
"46 309 CURVE SMOOTH",
"50 255 OFFCURVE",
"56 201 OFFCURVE",
"73 149 CURVE SMOOTH",
"87 106 OFFCURVE",
"108 59 OFFCURVE",
"144 31 CURVE SMOOTH",
"166 13 OFFCURVE",
"197 0 OFFCURVE",
"227 0 CURVE SMOOTH"
);
}
);
width = 407;
}
);
leftMetricsKey = "=O-25";
rightMetricsKey = "=O+5";
unicode = 0055;
},
{
glyphname = V;
lastChange = "2017-07-23 21:07:22 +0000";
layers = (
{
layerId = "A32222FF-B936-4048-B269-9E41D1D80F08";
paths = (
{
closed = 1;
nodes = (
"233 -2 OFFCURVE",
"242 10 OFFCURVE",
"245 21 CURVE",
"249 38 OFFCURVE",
"248 56 OFFCURVE",
"248 74 CURVE SMOOTH",
"248 99 OFFCURVE",
"252 124 OFFCURVE",
"255 149 CURVE SMOOTH",
"259 179 OFFCURVE",
"262 209 OFFCURVE",
"266 239 CURVE SMOOTH",
"275 299 OFFCURVE",
"286 359 OFFCURVE",
"298 418 CURVE SMOOTH",
"314 496 OFFCURVE",
"332 573 OFFCURVE",
"342 653 CURVE",
"344 663 OFFCURVE",
"343 663 OFFCURVE",
"345 663 CURVE",
"356 665 LINE SMOOTH",
"362 666 OFFCURVE",
"368 669 OFFCURVE",
"372 673 CURVE",
"375 677 OFFCURVE",
"377 683 OFFCURVE",
"377 689 CURVE SMOOTH",
"377 693 OFFCURVE",
"376 698 OFFCURVE",
"373 701 CURVE SMOOTH",
"367 707 OFFCURVE",
"361 709 OFFCURVE",
"347 709 CURVE SMOOTH",
"341 709 OFFCURVE",
"332 709 OFFCURVE",
"321 708 CURVE SMOOTH",
"309 707 OFFCURVE",
"296 711 OFFCURVE",
"284 711 CURVE SMOOTH",
"280 711 OFFCURVE",
"277 711 OFFCURVE",
"273 710 CURVE",
"263 708 OFFCURVE",
"258 699 OFFCURVE",
"258 690 CURVE SMOOTH",
"258 683 OFFCURVE",
"260 677 OFFCURVE",
"266 673 CURVE SMOOTH",
"273 668 OFFCURVE",
"282 666 OFFCURVE",
"290 664 CURVE",
"292 664 OFFCURVE",
"294 663 OFFCURVE",
"296 663 CURVE",
"296 653 LINE SMOOTH",
"296 646 OFFCURVE",
"295 638 OFFCURVE",
"294 631 CURVE SMOOTH",
"290 601 OFFCURVE",
"285 572 OFFCURVE",
"279 543 CURVE SMOOTH",
"254 426 OFFCURVE",
"232 308 OFFCURVE",
"216 189 CURVE SMOOTH",
"210 146 LINE",
"181 263 OFFCURVE",
"158 381 OFFCURVE",
"131 498 CURVE SMOOTH",
"124 527 OFFCURVE",
"117 556 OFFCURVE",
"109 585 CURVE SMOOTH",
"105 598 OFFCURVE",
"101 612 OFFCURVE",
"98 625 CURVE",
"97 628 OFFCURVE",
"93 648 OFFCURVE",
"93 655 CURVE",
"113 655 OFFCURVE",
"122 667 OFFCURVE",
"122 679 CURVE SMOOTH",
"122 689 OFFCURVE",
"115 699 OFFCURVE",
"101 701 CURVE",
"96 702 OFFCURVE",
"90 702 OFFCURVE",
"84 702 CURVE SMOOTH",
"66 702 LINE SMOOTH",
"52 702 OFFCURVE",
"38 703 OFFCURVE",
"24 703 CURVE SMOOTH",
"9 703 OFFCURVE",
"0 691 OFFCURVE",
"0 679 CURVE SMOOTH",
"0 671 OFFCURVE",
"5 663 OFFCURVE",
"15 660 CURVE SMOOTH",
"24 657 OFFCURVE",
"33 658 OFFCURVE",
"42 657 CURVE",
"45 657 OFFCURVE",
"45 657 OFFCURVE",
"48 642 CURVE",
"49 635 OFFCURVE",
"51 628 OFFCURVE",
"53 621 CURVE SMOOTH",
"68 566 OFFCURVE",
"82 512 OFFCURVE",
"94 456 CURVE SMOOTH",
"120 338 OFFCURVE",
"147 219 OFFCURVE",
"175 101 CURVE SMOOTH",
"181 79 OFFCURVE",
"185 57 OFFCURVE",
"192 36 CURVE",
"196 22 OFFCURVE",
"203 -2 OFFCURVE",
"222 -2 CURVE SMOOTH"
);
}
);
width = 397;
}
);
unicode = 0056;
},
{
glyphname = W;
lastChange = "2017-07-23 21:07:22 +0000";
layers = (
{
layerId = "A32222FF-B936-4048-B269-9E41D1D80F08";
paths = (
{
closed = 1;
nodes = (
"137 -12 OFFCURVE",
"149 22 OFFCURVE",
"156 36 CURVE",
"183 85 OFFCURVE",
"209 136 OFFCURVE",
"231 188 CURVE",
"236 202 OFFCURVE",
"242 216 OFFCURVE",
"247 229 CURVE",
"270 179 OFFCURVE",
"287 125 OFFCURVE",
"316 77 CURVE SMOOTH",
"323 66 OFFCURVE",
"330 54 OFFCURVE",
"336 43 CURVE",
"340 34 OFFCURVE",
"344 25 OFFCURVE",
"350 16 CURVE SMOOTH",
"355 9 OFFCURVE",
"366 2 OFFCURVE",
"376 2 CURVE SMOOTH",
"381 2 OFFCURVE",
"386 4 OFFCURVE",
"389 9 CURVE",
"397 20 OFFCURVE",
"396 37 OFFCURVE",
"396 50 CURVE SMOOTH",
"396 136 LINE SMOOTH",
"396 195 OFFCURVE",
"396 255 OFFCURVE",
"395 314 CURVE SMOOTH",
"394 378 OFFCURVE",
"392 442 OFFCURVE",
"389 506 CURVE SMOOTH",
"387 537 OFFCURVE",
"385 569 OFFCURVE",
"382 600 CURVE SMOOTH",
"381 612 OFFCURVE",
"381 623 OFFCURVE",
"381 635 CURVE SMOOTH",
"381 646 OFFCURVE",
"381 658 OFFCURVE",
"379 669 CURVE",
"382 668 OFFCURVE",
"386 668 OFFCURVE",
"390 668 CURVE SMOOTH",
"400 668 OFFCURVE",
"409 671 OFFCURVE",
"413 683 CURVE SMOOTH",
"417 695 OFFCURVE",
"411 707 OFFCURVE",
"399 711 CURVE",
"382 716 OFFCURVE",
"363 716 OFFCURVE",
"346 715 CURVE SMOOTH",
"333 714 OFFCURVE",
"314 716 OFFCURVE",
"304 707 CURVE",
"299 703 OFFCURVE",
"296 696 OFFCURVE",
"296 690 CURVE SMOOTH",
"296 687 OFFCURVE",
"297 684 OFFCURVE",
"298 681 CURVE",
"303 671 OFFCURVE",
"314 669 OFFCURVE",
"324 669 CURVE SMOOTH",
"332 669 LINE",
"332 650 OFFCURVE",
"336 630 OFFCURVE",
"337 610 CURVE SMOOTH",
"338 586 OFFCURVE",
"340 562 OFFCURVE",
"341 537 CURVE",
"345 489 OFFCURVE",
"349 441 OFFCURVE",
"351 393 CURVE SMOOTH",
"352 351 OFFCURVE",
"353 310 OFFCURVE",
"353 268 CURVE SMOOTH",
"353 212 OFFCURVE",
"352 156 OFFCURVE",
"352 101 CURVE",
"339 123 OFFCURVE",
"329 146 OFFCURVE",
"320 169 CURVE SMOOTH",
"309 195 OFFCURVE",
"299 220 OFFCURVE",
"287 245 CURVE",
"281 259 OFFCURVE",
"265 304 OFFCURVE",
"244 304 CURVE SMOOTH",
"239 304 OFFCURVE",
"234 302 OFFCURVE",
"228 295 CURVE SMOOTH",
"211 275 OFFCURVE",
"206 244 OFFCURVE",
"196 220 CURVE SMOOTH",
"176 170 OFFCURVE",
"153 118 OFFCURVE",
"126 71 CURVE",
"124 119 OFFCURVE",
"125 167 OFFCURVE",
"123 215 CURVE SMOOTH",
"117 365 LINE SMOOTH",
"115 413 OFFCURVE",
"110 461 OFFCURVE",
"105 509 CURVE SMOOTH",
"103 534 OFFCURVE",
"102 558 OFFCURVE",
"98 583 CURVE",
"97 594 OFFCURVE",
"95 606 OFFCURVE",
"93 617 CURVE SMOOTH",
"91 629 OFFCURVE",
"90 641 OFFCURVE",
"88 652 CURVE",
"102 654 OFFCURVE",
"125 655 OFFCURVE",
"130 675 CURVE SMOOTH",
"133 688 OFFCURVE",
"124 700 OFFCURVE",
"110 700 CURVE SMOOTH",
"99 700 OFFCURVE",
"87 696 OFFCURVE",
"75 695 CURVE",
"60 693 OFFCURVE",
"45 693 OFFCURVE",
"31 693 CURVE SMOOTH",
"21 693 OFFCURVE",
"9 695 OFFCURVE",
"0 691 CURVE",
"-8 688 OFFCURVE",
"-12 680 OFFCURVE",
"-12 672 CURVE SMOOTH",
"-12 670 OFFCURVE",
"-12 668 OFFCURVE",
"-11 666 CURVE",
"-9 657 OFFCURVE",
"0 650 OFFCURVE",
"10 650 CURVE SMOOTH",
"43 650 LINE",
"41 656 OFFCURVE",
"51 602 OFFCURVE",
"51 606 CURVE",
"57 561 LINE SMOOTH",
"63 502 OFFCURVE",
"68 444 OFFCURVE",
"71 385 CURVE SMOOTH",
"75 325 OFFCURVE",
"78 265 OFFCURVE",
"79 206 CURVE SMOOTH",
"80 176 OFFCURVE",
"81 146 OFFCURVE",
"81 116 CURVE SMOOTH",
"81 83 OFFCURVE",
"83 52 OFFCURVE",
"83 19 CURVE SMOOTH",
"83 13 OFFCURVE",
"83 7 OFFCURVE",
"87 1 CURVE",
"90 -3 OFFCURVE",
"95 -6 OFFCURVE",
"99 -8 CURVE",
"110 -11 OFFCURVE",
"112 -11 OFFCURVE",
"117 -11 CURVE"
);
}
);
width = 450;
}
);
leftMetricsKey = "=H-10";
rightMetricsKey = "=H+15";
unicode = 0057;
},
{
glyphname = X;
lastChange = "2017-07-23 21:07:22 +0000";
layers = (
{
layerId = "A32222FF-B936-4048-B269-9E41D1D80F08";
paths = (
{
closed = 1;
nodes = (
"85 -10 OFFCURVE",
"100 -7 OFFCURVE",
"105 6 CURVE",
"106 9 OFFCURVE",
"107 12 OFFCURVE",
"107 15 CURVE SMOOTH",
"107 27 OFFCURVE",
"96 36 OFFCURVE",
"82 35 CURVE",
"96 75 OFFCURVE",
"112 114 OFFCURVE",
"128 154 CURVE",
"146 194 OFFCURVE",
"164 233 OFFCURVE",
"184 273 CURVE",
"200 236 OFFCURVE",
"213 197 OFFCURVE",
"231 161 CURVE SMOOTH",
"249 124 OFFCURVE",
"261 85 OFFCURVE",
"279 48 CURVE",
"265 49 OFFCURVE",
"254 40 OFFCURVE",
"254 29 CURVE SMOOTH",
"254 25 OFFCURVE",
"255 21 OFFCURVE",
"257 17 CURVE",
"268 2 OFFCURVE",
"292 3 OFFCURVE",
"308 2 CURVE SMOOTH",
"327 1 OFFCURVE",
"364 1 OFFCURVE",
"364 27 CURVE SMOOTH",
"364 39 OFFCURVE",
"356 53 OFFCURVE",
"338 50 CURVE",
"330 47 LINE",
"326 46 OFFCURVE",
"326 49 OFFCURVE",
"324 53 CURVE",
"322 58 OFFCURVE",
"319 64 OFFCURVE",
"317 68 CURVE",
"310 80 OFFCURVE",
"306 94 OFFCURVE",
"301 107 CURVE",
"289 133 OFFCURVE",
"278 160 OFFCURVE",
"265 185 CURVE",
"255 211 OFFCURVE",
"244 235 OFFCURVE",
"234 262 CURVE SMOOTH",
"230 274 OFFCURVE",
"225 286 OFFCURVE",
"219 298 CURVE",
"216 305 OFFCURVE",
"213 311 OFFCURVE",
"210 316 CURVE",
"208 320 OFFCURVE",
"207 321 OFFCURVE",
"208 326 CURVE",
"214 338 LINE",
"237 389 OFFCURVE",
"255 441 OFFCURVE",
"276 492 CURVE SMOOTH",
"298 543 OFFCURVE",
"316 595 OFFCURVE",
"326 649 CURVE SMOOTH",
"327 655 OFFCURVE",
"326 665 OFFCURVE",
"332 667 CURVE",
"337 668 OFFCURVE",
"341 671 OFFCURVE",
"345 675 CURVE",
"348 679 OFFCURVE",
"349 684 OFFCURVE",
"349 689 CURVE SMOOTH",
"349 692 OFFCURVE",
"349 696 OFFCURVE",
"347 699 CURVE",
"343 706 OFFCURVE",
"335 711 OFFCURVE",
"326 711 CURVE",
"315 710 OFFCURVE",
"306 709 OFFCURVE",
"294 709 CURVE SMOOTH",
"278 709 OFFCURVE",
"251 709 OFFCURVE",
"250 686 CURVE",
"249 679 OFFCURVE",
"252 672 OFFCURVE",
"257 667 CURVE",
"262 663 OFFCURVE",
"268 663 OFFCURVE",
"274 663 CURVE SMOOTH",
"286 663 LINE",
"282 640 OFFCURVE",
"274 615 OFFCURVE",
"268 592 CURVE",
"260 566 OFFCURVE",
"251 542 OFFCURVE",
"240 517 CURVE SMOOTH",
"229 494 OFFCURVE",
"219 470 OFFCURVE",
"211 446 CURVE",
"207 437 OFFCURVE",
"205 428 OFFCURVE",
"202 420 CURVE",
"201 416 OFFCURVE",
"199 413 OFFCURVE",
"198 409 CURVE",
"185 378 LINE",
"175 404 OFFCURVE",
"164 427 OFFCURVE",
"152 452 CURVE",
"139 476 OFFCURVE",
"130 503 OFFCURVE",
"121 529 CURVE SMOOTH",
"95 609 LINE",
"90 621 OFFCURVE",
"85 634 OFFCURVE",
"82 648 CURVE",
"81 654 OFFCURVE",
"80 660 OFFCURVE",
"80 665 CURVE",
"79 670 OFFCURVE",
"81 669 OFFCURVE",
"85 670 CURVE SMOOTH",
"96 673 LINE",
"104 677 OFFCURVE",
"109 686 OFFCURVE",
"109 694 CURVE SMOOTH",
"109 701 OFFCURVE",
"105 708 OFFCURVE",
"98 712 CURVE",
"95 714 OFFCURVE",
"91 715 OFFCURVE",
"88 715 CURVE SMOOTH",
"83 715 OFFCURVE",
"78 714 OFFCURVE",
"73 713 CURVE",
"62 712 OFFCURVE",
"52 712 OFFCURVE",
"40 711 CURVE SMOOTH",
"24 710 OFFCURVE",
"6 702 OFFCURVE",
"10 682 CURVE",
"12 675 OFFCURVE",
"17 669 OFFCURVE",
"23 667 CURVE",
"27 665 OFFCURVE",
"31 666 OFFCURVE",
"36 666 CURVE",
"36 659 OFFCURVE",
"37 652 OFFCURVE",
"39 645 CURVE",
"44 618 OFFCURVE",
"55 594 OFFCURVE",
"63 569 CURVE",
"72 545 OFFCURVE",
"80 518 OFFCURVE",
"89 493 CURVE SMOOTH",
"98 467 OFFCURVE",
"108 443 OFFCURVE",
"121 418 CURVE SMOOTH",
"134 394 OFFCURVE",
"144 368 OFFCURVE",
"154 342 CURVE",
"157 336 OFFCURVE",
"158 330 OFFCURVE",
"161 323 CURVE",
"158 317 OFFCURVE",
"156 312 OFFCURVE",
"154 306 CURVE",
"136 266 LINE SMOOTH",
"124 241 OFFCURVE",
"111 216 OFFCURVE",
"100 192 CURVE SMOOTH",
"88 166 OFFCURVE",
"77 140 OFFCURVE",
"67 114 CURVE SMOOTH",
"57 89 OFFCURVE",
"45 64 OFFCURVE",
"37 38 CURVE",
"32 39 OFFCURVE",
"26 41 OFFCURVE",
"21 41 CURVE SMOOTH",
"15 41 OFFCURVE",
"9 39 OFFCURVE",
"5 34 CURVE",
"1 30 OFFCURVE",
"0 26 OFFCURVE",
"0 22 CURVE SMOOTH",
"0 18 OFFCURVE",
"1 15 OFFCURVE",
"3 12 CURVE",
"13 -5 OFFCURVE",
"36 -7 OFFCURVE",
"54 -9 CURVE",
"59 -10 OFFCURVE",
"65 -10 OFFCURVE",
"71 -10 CURVE SMOOTH"
);
}
);
width = 384;
}
);
rightKerningGroup = K;
unicode = 0058;
},
{
glyphname = Y;
lastChange = "2017-07-23 21:07:22 +0000";
layers = (
{
layerId = "A32222FF-B936-4048-B269-9E41D1D80F08";
paths = (
{
closed = 1;
nodes = (
"203 0 OFFCURVE",
"227 2 OFFCURVE",
"231 20 CURVE",
"233 27 OFFCURVE",
"231 35 OFFCURVE",
"227 41 CURVE",
"223 46 OFFCURVE",
"218 48 OFFCURVE",
"212 48 CURVE SMOOTH",
"209 48 OFFCURVE",
"207 47 OFFCURVE",
"204 47 CURVE",
"202 76 OFFCURVE",
"200 105 OFFCURVE",
"199 134 CURVE",
"199 164 OFFCURVE",
"199 193 OFFCURVE",
"198 223 CURVE",
"197 237 OFFCURVE",
"196 251 OFFCURVE",
"196 265 CURVE SMOOTH",
"196 285 LINE SMOOTH",
"196 292 OFFCURVE",
"195 301 OFFCURVE",
"198 308 CURVE",
"207 345 LINE",
"211 359 OFFCURVE",
"216 373 OFFCURVE",
"220 388 CURVE SMOOTH",
"235 444 OFFCURVE",
"246 502 OFFCURVE",
"262 559 CURVE SMOOTH",
"270 587 OFFCURVE",
"281 614 OFFCURVE",
"291 641 CURVE SMOOTH",
"294 650 LINE",
"296 655 OFFCURVE",
"297 653 OFFCURVE",
"302 654 CURVE",
"307 654 OFFCURVE",
"313 655 OFFCURVE",
"318 657 CURVE",
"327 660 OFFCURVE",
"333 667 OFFCURVE",
"333 677 CURVE SMOOTH",
"333 687 OFFCURVE",
"328 700 OFFCURVE",
"315 700 CURVE SMOOTH",
"306 700 OFFCURVE",
"297 699 OFFCURVE",
"287 699 CURVE SMOOTH",
"279 699 OFFCURVE",
"271 699 OFFCURVE",
"262 700 CURVE",
"250 700 OFFCURVE",
"235 703 OFFCURVE",
"226 693 CURVE",
"222 689 OFFCURVE",
"220 684 OFFCURVE",
"220 678 CURVE SMOOTH",
"220 675 OFFCURVE",
"220 671 OFFCURVE",
"222 668 CURVE",
"228 657 OFFCURVE",
"238 657 OFFCURVE",
"249 656 CURVE",
"240 634 OFFCURVE",
"234 611 OFFCURVE",
"226 589 CURVE SMOOTH",
"218 565 OFFCURVE",
"212 541 OFFCURVE",
"206 517 CURVE SMOOTH",
"195 467 OFFCURVE",
"184 417 OFFCURVE",
"169 368 CURVE",
"150 417 OFFCURVE",
"135 467 OFFCURVE",
"115 516 CURVE SMOOTH",
"105 540 OFFCURVE",
"94 564 OFFCURVE",
"87 589 CURVE",
"80 610 OFFCURVE",
"78 634 OFFCURVE",
"70 655 CURVE",
"85 657 OFFCURVE",
"102 664 OFFCURVE",
"102 680 CURVE SMOOTH",
"102 683 OFFCURVE",
"102 685 OFFCURVE",
"101 688 CURVE SMOOTH",
"99 694 OFFCURVE",
"95 700 OFFCURVE",
"88 702 CURVE",
"79 705 OFFCURVE",
"69 699 OFFCURVE",
"59 699 CURVE SMOOTH",
"48 699 OFFCURVE",
"33 703 OFFCURVE",
"20 703 CURVE SMOOTH",
"10 703 OFFCURVE",
"1 701 OFFCURVE",
"-5 695 CURVE SMOOTH",
"-9 691 OFFCURVE",
"-11 686 OFFCURVE",
"-11 680 CURVE SMOOTH",
"-11 672 OFFCURVE",
"-6 663 OFFCURVE",
"2 659 CURVE",
"6 658 OFFCURVE",
"9 657 OFFCURVE",
"14 657 CURVE SMOOTH",
"22 657 LINE",
"23 653 OFFCURVE",
"24 651 OFFCURVE",
"25 648 CURVE SMOOTH",
"30 634 OFFCURVE",
"33 619 OFFCURVE",
"37 605 CURVE SMOOTH",
"44 578 OFFCURVE",
"53 552 OFFCURVE",
"63 525 CURVE SMOOTH",
"73 499 OFFCURVE",
"84 474 OFFCURVE",
"94 447 CURVE SMOOTH",
"104 420 OFFCURVE",
"113 392 OFFCURVE",
"123 365 CURVE SMOOTH",
"131 344 OFFCURVE",
"137 320 OFFCURVE",
"148 301 CURVE",
"151 295 OFFCURVE",
"152 294 OFFCURVE",
"152 287 CURVE SMOOTH",
"152 280 OFFCURVE",
"152 273 OFFCURVE",
"153 266 CURVE",
"153 251 OFFCURVE",
"154 236 OFFCURVE",
"155 221 CURVE SMOOTH",
"156 192 OFFCURVE",
"155 163 OFFCURVE",
"155 134 CURVE SMOOTH",
"156 105 OFFCURVE",
"159 75 OFFCURVE",
"160 46 CURVE",
"146 47 OFFCURVE",
"133 37 OFFCURVE",
"133 25 CURVE SMOOTH",
"133 21 OFFCURVE",
"134 17 OFFCURVE",
"137 13 CURVE",
"145 -2 OFFCURVE",
"173 0 OFFCURVE",
"188 0 CURVE SMOOTH"
);
}
);
width = 353;
}
);
unicode = 0059;
},
{
glyphname = Z;
lastChange = "2017-07-23 21:07:22 +0000";
layers = (
{
layerId = "A32222FF-B936-4048-B269-9E41D1D80F08";
paths = (
{
closed = 1;
nodes = (
"77 -10 OFFCURVE",
"83 -10 OFFCURVE",
"87 -9 CURVE",
"114 -7 OFFCURVE",
"139 -1 OFFCURVE",
"165 3 CURVE SMOOTH",
"194 7 OFFCURVE",
"224 6 OFFCURVE",
"253 6 CURVE SMOOTH",
"266 6 OFFCURVE",
"279 5 OFFCURVE",
"292 6 CURVE",
"298 6 OFFCURVE",
"320 9 OFFCURVE",
"325 12 CURVE",
"331 16 OFFCURVE",
"335 23 OFFCURVE",
"335 31 CURVE",
"334 42 OFFCURVE",
"334 54 OFFCURVE",
"333 66 CURVE",
"333 72 OFFCURVE",
"334 79 OFFCURVE",
"334 86 CURVE SMOOTH",
"334 97 OFFCURVE",
"332 108 OFFCURVE",
"323 114 CURVE SMOOTH",
"320 116 OFFCURVE",
"315 117 OFFCURVE",
"311 117 CURVE SMOOTH",
"304 117 OFFCURVE",
"296 114 OFFCURVE",
"292 107 CURVE SMOOTH",
"289 102 OFFCURVE",
"289 97 OFFCURVE",
"289 92 CURVE SMOOTH",
"289 84 LINE",
"288 76 OFFCURVE",
"288 69 OFFCURVE",
"288 61 CURVE SMOOTH",
"288 52 LINE",
"273 52 OFFCURVE",
"259 50 OFFCURVE",
"245 50 CURVE SMOOTH",
"226 50 OFFCURVE",
"207 50 OFFCURVE",
"188 49 CURVE SMOOTH",
"153 48 OFFCURVE",
"119 37 OFFCURVE",
"83 35 CURVE",
"101 76 OFFCURVE",
"111 120 OFFCURVE",
"127 162 CURVE SMOOTH",
"144 206 OFFCURVE",
"160 249 OFFCURVE",
"178 292 CURVE",
"180 296 OFFCURVE",
"181 300 OFFCURVE",
"183 304 CURVE",
"200 304 LINE",
"209 303 OFFCURVE",
"217 302 OFFCURVE",
"226 300 CURVE",
"233 299 OFFCURVE",
"241 297 OFFCURVE",
"248 297 CURVE SMOOTH",
"256 297 OFFCURVE",
"264 299 OFFCURVE",
"269 307 CURVE",
"271 311 OFFCURVE",
"272 315 OFFCURVE",
"272 318 CURVE SMOOTH",
"272 329 OFFCURVE",
"263 338 OFFCURVE",
"252 342 CURVE",
"236 347 OFFCURVE",
"217 347 OFFCURVE",
"200 348 CURVE",
"216 390 OFFCURVE",
"230 433 OFFCURVE",
"249 475 CURVE SMOOTH",
"268 519 OFFCURVE",
"293 561 OFFCURVE",
"311 599 CURVE SMOOTH",
"317 612 OFFCURVE",
"325 624 OFFCURVE",
"331 637 CURVE SMOOTH",
"335 646 OFFCURVE",
"340 658 OFFCURVE",
"340 669 CURVE SMOOTH",
"340 690 OFFCURVE",
"323 695 OFFCURVE",
"307 695 CURVE SMOOTH",
"300 695 OFFCURVE",
"293 694 OFFCURVE",
"287 693 CURVE",
"270 691 OFFCURVE",
"252 690 OFFCURVE",
"234 690 CURVE SMOOTH",
"224 690 OFFCURVE",
"214 690 OFFCURVE",
"204 691 CURVE",
"175 692 OFFCURVE",
"146 696 OFFCURVE",
"116 700 CURVE",
"99 701 OFFCURVE",
"81 702 OFFCURVE",
"64 702 CURVE SMOOTH",
"55 702 OFFCURVE",
"46 701 OFFCURVE",
"39 693 CURVE",
"34 686 OFFCURVE",
"30 680 OFFCURVE",
"28 671 CURVE SMOOTH",
"26 661 OFFCURVE",
"26 651 OFFCURVE",
"25 641 CURVE",
"25 633 OFFCURVE",
"23 624 OFFCURVE",
"23 615 CURVE SMOOTH",
"23 603 OFFCURVE",
"26 592 OFFCURVE",
"41 589 CURVE",
"62 584 OFFCURVE",
"69 607 OFFCURVE",
"70 623 CURVE",
"71 632 OFFCURVE",
"71 642 OFFCURVE",
"71 651 CURVE SMOOTH",
"71 657 OFFCURVE",
"71 658 OFFCURVE",
"77 659 CURVE",
"85 659 OFFCURVE",
"93 658 OFFCURVE",
"101 657 CURVE SMOOTH",
"132 654 OFFCURVE",
"163 650 OFFCURVE",
"194 648 CURVE SMOOTH",
"210 647 OFFCURVE",
"225 647 OFFCURVE",
"241 647 CURVE SMOOTH",
"256 647 OFFCURVE",
"272 647 OFFCURVE",
"287 648 CURVE",
"277 631 OFFCURVE",
"270 612 OFFCURVE",
"261 594 CURVE SMOOTH",
"252 575 OFFCURVE",
"241 557 OFFCURVE",
"231 539 CURVE SMOOTH",
"220 520 OFFCURVE",
"212 500 OFFCURVE",
"205 480 CURVE",
"197 460 OFFCURVE",
"188 441 OFFCURVE",
"180 421 CURVE SMOOTH",
"157 359 LINE",
"154 349 LINE",
"150 349 OFFCURVE",
"146 349 OFFCURVE",
"143 350 CURVE",
"137 351 OFFCURVE",
"131 351 OFFCURVE",
"125 351 CURVE SMOOTH",
"118 351 LINE",
"105 350 OFFCURVE",
"94 341 OFFCURVE",
"94 329 CURVE SMOOTH",
"94 305 OFFCURVE",
"121 304 OFFCURVE",
"137 304 CURVE",
"116 249 OFFCURVE",
"93 195 OFFCURVE",
"74 140 CURVE SMOOTH",
"64 112 OFFCURVE",
"55 84 OFFCURVE",
"44 57 CURVE",
"40 44 OFFCURVE",
"29 30 OFFCURVE",
"29 16 CURVE SMOOTH",
"29 -5 OFFCURVE",
"53 -10 OFFCURVE",
"71 -10 CURVE SMOOTH"
);
}
);
width = 360;
}
);
unicode = 005A;
},
{
glyphname = a;
lastChange = "2017-07-23 21:07:22 +0000";
layers = (
{
layerId = "A32222FF-B936-4048-B269-9E41D1D80F08";
paths = (
{
closed = 1;
nodes = (
"200 0 OFFCURVE",
"225 7 OFFCURVE",
"245 22 CURVE",
"263 34 OFFCURVE",
"281 47 OFFCURVE",
"296 62 CURVE",
"297 64 OFFCURVE",
"300 65 OFFCURVE",
"301 67 CURVE",
"311 37 OFFCURVE",
"323 16 OFFCURVE",
"339 16 CURVE SMOOTH",
"343 16 OFFCURVE",
"346 17 OFFCURVE",
"350 19 CURVE",
"357 23 OFFCURVE",
"360 29 OFFCURVE",
"360 34 CURVE SMOOTH",
"360 43 OFFCURVE",
"355 51 OFFCURVE",
"351 59 CURVE SMOOTH",
"342 77 OFFCURVE",
"335 96 OFFCURVE",
"331 116 CURVE SMOOTH",
"323 161 OFFCURVE",
"314 209 OFFCURVE",
"314 254 CURVE",
"313 299 OFFCURVE",
"317 343 OFFCURVE",
"318 386 CURVE SMOOTH",
"318 390 OFFCURVE",
"319 395 OFFCURVE",
"319 400 CURVE SMOOTH",
"319 402 LINE",
"320 424 OFFCURVE",
"321 458 OFFCURVE",
"320 480 CURVE",
"320 479 OFFCURVE",
"338 479 OFFCURVE",
"344 482 CURVE SMOOTH",
"352 486 OFFCURVE",
"355 493 OFFCURVE",
"355 499 CURVE SMOOTH",
"355 510 OFFCURVE",
"345 521 OFFCURVE",
"332 522 CURVE SMOOTH",
"320 523 OFFCURVE",
"295 524 OFFCURVE",
"283 526 CURVE",
"270 527 OFFCURVE",
"264 515 OFFCURVE",
"264 503 CURVE SMOOTH",
"264 494 OFFCURVE",
"268 485 OFFCURVE",
"275 484 CURVE",
"275 479 OFFCURVE",
"275 474 OFFCURVE",
"273 470 CURVE",
"267 475 OFFCURVE",
"261 479 OFFCURVE",
"255 482 CURVE",
"224 500 OFFCURVE",
"189 500 OFFCURVE",
"155 500 CURVE SMOOTH",
"109 499 OFFCURVE",
"71 461 OFFCURVE",
"51 422 CURVE SMOOTH",
"29 378 OFFCURVE",
"26 328 OFFCURVE",
"26 278 CURVE SMOOTH",
"26 238 LINE SMOOTH",
"26 156 OFFCURVE",
"34 54 OFFCURVE",
"113 14 CURVE SMOOTH",
"131 5 OFFCURVE",
"153 0 OFFCURVE",
"175 0 CURVE SMOOTH"
);
},
{
closed = 1;
nodes = (
"167 42 OFFCURVE",
"153 46 OFFCURVE",
"141 49 CURVE",
"121 55 OFFCURVE",
"103 76 OFFCURVE",
"93 94 CURVE",
"78 124 OFFCURVE",
"71 162 OFFCURVE",
"68 196 CURVE SMOOTH",
"67 211 OFFCURVE",
"67 227 OFFCURVE",
"67 242 CURVE SMOOTH",
"67 267 OFFCURVE",
"68 292 OFFCURVE",
"69 317 CURVE SMOOTH",
"71 352 OFFCURVE",
"78 386 OFFCURVE",
"96 416 CURVE SMOOTH",
"105 431 OFFCURVE",
"116 442 OFFCURVE",
"132 450 CURVE SMOOTH",
"149 458 OFFCURVE",
"165 457 OFFCURVE",
"185 457 CURVE SMOOTH",
"216 457 OFFCURVE",
"247 444 OFFCURVE",
"266 416 CURVE",
"270 412 OFFCURVE",
"272 404 OFFCURVE",
"276 397 CURVE",
"276 378 LINE SMOOTH",
"275 341 OFFCURVE",
"271 305 OFFCURVE",
"271 268 CURVE SMOOTH",
"271 259 OFFCURVE",
"271 250 OFFCURVE",
"272 241 CURVE SMOOTH",
"273 228 OFFCURVE",
"278 167 OFFCURVE",
"290 112 CURVE",
"282 108 OFFCURVE",
"273 100 OFFCURVE",
"267 94 CURVE SMOOTH",
"249 77 OFFCURVE",
"230 60 OFFCURVE",
"209 49 CURVE SMOOTH",
"200 44 OFFCURVE",
"190 42 OFFCURVE",
"180 42 CURVE SMOOTH"
);
}
);
width = 388;
}
);
leftKerningGroup = o;
leftMetricsKey = "=o";
rightMetricsKey = "=n";
unicode = 0061;
},
{
glyphname = aring;
lastChange = "2017-07-23 21:07:22 +0000";
layers = (
{
layerId = "A32222FF-B936-4048-B269-9E41D1D80F08";
paths = (
{
closed = 1;
nodes = (
"200 0 OFFCURVE",
"225 7 OFFCURVE",
"245 22 CURVE",
"263 34 OFFCURVE",
"281 47 OFFCURVE",
"296 62 CURVE",
"297 64 OFFCURVE",
"300 65 OFFCURVE",
"301 67 CURVE",
"311 37 OFFCURVE",
"323 16 OFFCURVE",
"339 16 CURVE SMOOTH",
"343 16 OFFCURVE",
"346 17 OFFCURVE",
"350 19 CURVE",
"357 23 OFFCURVE",
"360 29 OFFCURVE",
"360 34 CURVE SMOOTH",
"360 43 OFFCURVE",
"355 51 OFFCURVE",
"351 59 CURVE SMOOTH",
"342 77 OFFCURVE",
"335 96 OFFCURVE",
"331 116 CURVE SMOOTH",
"323 161 OFFCURVE",
"314 209 OFFCURVE",
"314 254 CURVE",
"313 299 OFFCURVE",
"317 343 OFFCURVE",
"318 386 CURVE SMOOTH",
"318 390 OFFCURVE",
"319 395 OFFCURVE",
"319 400 CURVE SMOOTH",
"319 402 LINE",
"320 424 OFFCURVE",
"321 458 OFFCURVE",
"320 480 CURVE",
"320 479 OFFCURVE",
"338 479 OFFCURVE",
"344 482 CURVE SMOOTH",
"352 486 OFFCURVE",
"355 493 OFFCURVE",
"355 499 CURVE SMOOTH",
"355 510 OFFCURVE",
"345 521 OFFCURVE",
"332 522 CURVE SMOOTH",
"320 523 OFFCURVE",
"295 524 OFFCURVE",
"283 526 CURVE",
"270 527 OFFCURVE",
"264 515 OFFCURVE",
"264 503 CURVE SMOOTH",
"264 494 OFFCURVE",
"268 485 OFFCURVE",
"275 484 CURVE",
"275 479 OFFCURVE",
"275 474 OFFCURVE",
"273 470 CURVE",
"267 475 OFFCURVE",
"261 479 OFFCURVE",
"255 482 CURVE",
"224 500 OFFCURVE",
"189 500 OFFCURVE",
"155 500 CURVE SMOOTH",
"109 499 OFFCURVE",
"71 461 OFFCURVE",
"51 422 CURVE SMOOTH",
"29 378 OFFCURVE",
"26 328 OFFCURVE",
"26 278 CURVE SMOOTH",
"26 238 LINE SMOOTH",
"26 156 OFFCURVE",
"34 54 OFFCURVE",
"113 14 CURVE SMOOTH",
"131 5 OFFCURVE",
"153 0 OFFCURVE",
"175 0 CURVE SMOOTH"
);
},
{
closed = 1;
nodes = (
"167 42 OFFCURVE",
"153 46 OFFCURVE",
"141 49 CURVE",
"121 55 OFFCURVE",
"103 76 OFFCURVE",
"93 94 CURVE",
"78 124 OFFCURVE",
"71 162 OFFCURVE",
"68 196 CURVE SMOOTH",
"67 211 OFFCURVE",
"67 227 OFFCURVE",
"67 242 CURVE SMOOTH",
"67 267 OFFCURVE",
"68 292 OFFCURVE",
"69 317 CURVE SMOOTH",
"71 352 OFFCURVE",
"78 386 OFFCURVE",
"96 416 CURVE SMOOTH",
"105 431 OFFCURVE",
"116 442 OFFCURVE",
"132 450 CURVE SMOOTH",
"149 458 OFFCURVE",
"165 457 OFFCURVE",
"185 457 CURVE SMOOTH",
"216 457 OFFCURVE",
"247 444 OFFCURVE",
"266 416 CURVE",
"270 412 OFFCURVE",
"272 404 OFFCURVE",
"276 397 CURVE",
"276 378 LINE SMOOTH",
"275 341 OFFCURVE",
"271 305 OFFCURVE",
"271 268 CURVE SMOOTH",
"271 259 OFFCURVE",
"271 250 OFFCURVE",
"272 241 CURVE SMOOTH",
"273 228 OFFCURVE",
"278 167 OFFCURVE",
"290 112 CURVE",
"282 108 OFFCURVE",
"273 100 OFFCURVE",
"267 94 CURVE SMOOTH",
"249 77 OFFCURVE",
"230 60 OFFCURVE",
"209 49 CURVE SMOOTH",
"200 44 OFFCURVE",
"190 42 OFFCURVE",
"180 42 CURVE SMOOTH"
);
},
{
closed = 1;
nodes = (
"209 594 OFFCURVE",
"217 665 OFFCURVE",
"220 697 CURVE SMOOTH",
"221 705 OFFCURVE",
"221 712 OFFCURVE",
"221 720 CURVE SMOOTH",
"221 732 OFFCURVE",
"220 744 OFFCURVE",
"214 756 CURVE SMOOTH",
"207 771 OFFCURVE",
"188 785 OFFCURVE",
"170 781 CURVE SMOOTH",
"120 771 OFFCURVE",
"112 720 OFFCURVE",
"112 675 CURVE SMOOTH",
"112 642 OFFCURVE",
"123 594 OFFCURVE",
"163 594 CURVE SMOOTH"
);
},
{
closed = 1;
nodes = (
"150 637 OFFCURVE",
"147 653 OFFCURVE",
"147 669 CURVE SMOOTH",
"147 677 OFFCURVE",
"148 684 OFFCURVE",
"148 691 CURVE",
"149 712 OFFCURVE",
"152 741 OFFCURVE",
"176 746 CURVE",
"185 740 OFFCURVE",
"187 730 OFFCURVE",
"187 718 CURVE SMOOTH",
"187 708 OFFCURVE",
"185 697 OFFCURVE",
"184 689 CURVE SMOOTH",
"182 676 OFFCURVE",
"180 663 OFFCURVE",
"175 651 CURVE",
"174 648 OFFCURVE",
"167 629 OFFCURVE",
"163 630 CURVE"
);
}
);
width = 388;
}
);
leftKerningGroup = o;
leftMetricsKey = "=a";
rightMetricsKey = "=a";
unicode = 00E5;
},
{
glyphname = ae;
lastChange = "2017-07-23 21:07:22 +0000";
layers = (
{
layerId = "A32222FF-B936-4048-B269-9E41D1D80F08";
paths = (
{
closed = 1;
nodes = (
"200 0 OFFCURVE",
"225 7 OFFCURVE",
"245 22 CURVE",
"263 34 OFFCURVE",
"281 47 OFFCURVE",
"296 62 CURVE",
"297 64 OFFCURVE",
"311 75 OFFCURVE",
"317 80 CURVE",
"333 58 OFFCURVE",
"353 39 OFFCURVE",
"376 24 CURVE SMOOTH",
"400 8 OFFCURVE",
"430 0 OFFCURVE",
"459 0 CURVE SMOOTH",
"474 0 OFFCURVE",
"489 2 OFFCURVE",
"503 8 CURVE SMOOTH",
"523 16 OFFCURVE",
"540 29 OFFCURVE",
"556 45 CURVE SMOOTH",
"559 48 OFFCURVE",
"563 53 OFFCURVE",
"568 57 CURVE",
"570 54 OFFCURVE",
"573 52 OFFCURVE",
"575 49 CURVE",
"582 44 OFFCURVE",
"588 39 OFFCURVE",
"596 39 CURVE SMOOTH",
"600 39 OFFCURVE",
"604 40 OFFCURVE",
"608 43 CURVE",
"616 48 OFFCURVE",
"618 54 OFFCURVE",
"618 59 CURVE SMOOTH",
"618 77 OFFCURVE",
"589 97 OFFCURVE",
"577 106 CURVE SMOOTH",
"567 114 OFFCURVE",
"555 123 OFFCURVE",
"545 134 CURVE",
"540 140 OFFCURVE",
"533 144 OFFCURVE",
"526 144 CURVE SMOOTH",
"521 144 OFFCURVE",
"516 142 OFFCURVE",
"511 137 CURVE SMOOTH",
"506 132 OFFCURVE",
"504 127 OFFCURVE",
"504 122 CURVE SMOOTH",
"504 109 OFFCURVE",
"518 95 OFFCURVE",
"530 85 CURVE",
"526 79 OFFCURVE",
"521 73 OFFCURVE",
"516 67 CURVE",
"506 59 OFFCURVE",
"496 52 OFFCURVE",
"484 48 CURVE SMOOTH",
"475 45 OFFCURVE",
"466 44 OFFCURVE",
"458 44 CURVE SMOOTH",
"418 44 OFFCURVE",
"381 73 OFFCURVE",
"356 102 CURVE SMOOTH",
"320 144 OFFCURVE",
"319 208 OFFCURVE",
"316 218 CURVE",
"322 219 OFFCURVE",
"327 220 OFFCURVE",
"332 223 CURVE",
"354 234 OFFCURVE",
"379 242 OFFCURVE",
"402 250 CURVE SMOOTH",
"446 265 OFFCURVE",
"488 288 OFFCURVE",
"532 302 CURVE",
"544 307 OFFCURVE",
"556 311 OFFCURVE",
"568 315 CURVE SMOOTH",
"577 318 OFFCURVE",
"589 320 OFFCURVE",
"597 327 CURVE",
"601 332 OFFCURVE",
"602 337 OFFCURVE",
"602 342 CURVE SMOOTH",
"602 346 OFFCURVE",
"602 349 OFFCURVE",
"600 353 CURVE",
"600 362 OFFCURVE",
"598 373 OFFCURVE",
"594 382 CURVE",
"583 420 OFFCURVE",
"569 463 OFFCURVE",
"533 484 CURVE SMOOTH",
"509 498 OFFCURVE",
"481 504 OFFCURVE",
"455 504 CURVE SMOOTH",
"404 504 OFFCURVE",
"353 481 OFFCURVE",
"320 434 CURVE",
"320 450 OFFCURVE",
"321 467 OFFCURVE",
"320 480 CURVE",
"320 479 OFFCURVE",
"338 479 OFFCURVE",
"344 482 CURVE SMOOTH",
"352 486 OFFCURVE",
"355 493 OFFCURVE",
"355 499 CURVE SMOOTH",
"355 510 OFFCURVE",
"345 521 OFFCURVE",
"332 522 CURVE SMOOTH",
"320 523 OFFCURVE",
"295 524 OFFCURVE",
"283 526 CURVE",
"270 527 OFFCURVE",
"264 515 OFFCURVE",
"264 503 CURVE SMOOTH",
"264 494 OFFCURVE",
"268 485 OFFCURVE",
"275 484 CURVE",
"275 479 OFFCURVE",
"275 474 OFFCURVE",
"273 470 CURVE",
"267 475 OFFCURVE",
"261 479 OFFCURVE",
"255 482 CURVE",
"224 500 OFFCURVE",
"189 500 OFFCURVE",
"155 500 CURVE SMOOTH",
"109 499 OFFCURVE",
"71 461 OFFCURVE",
"51 422 CURVE SMOOTH",
"29 378 OFFCURVE",
"26 328 OFFCURVE",
"26 278 CURVE SMOOTH",
"26 238 LINE SMOOTH",
"26 156 OFFCURVE",
"34 54 OFFCURVE",
"113 14 CURVE SMOOTH",
"131 5 OFFCURVE",
"153 0 OFFCURVE",
"175 0 CURVE SMOOTH"
);
},
{
closed = 1;
nodes = (
"167 42 OFFCURVE",
"153 46 OFFCURVE",
"141 49 CURVE",
"121 55 OFFCURVE",
"103 76 OFFCURVE",
"93 94 CURVE",
"78 124 OFFCURVE",
"71 162 OFFCURVE",
"68 196 CURVE SMOOTH",
"67 211 OFFCURVE",
"67 227 OFFCURVE",
"67 242 CURVE SMOOTH",
"67 267 OFFCURVE",
"68 292 OFFCURVE",
"69 317 CURVE SMOOTH",
"71 352 OFFCURVE",
"78 386 OFFCURVE",
"96 416 CURVE SMOOTH",
"105 431 OFFCURVE",
"116 442 OFFCURVE",
"132 450 CURVE SMOOTH",
"149 458 OFFCURVE",
"165 457 OFFCURVE",
"185 457 CURVE SMOOTH",
"216 457 OFFCURVE",
"247 444 OFFCURVE",
"266 416 CURVE",
"270 412 OFFCURVE",
"272 404 OFFCURVE",
"276 397 CURVE",
"276 378 LINE SMOOTH",
"275 341 OFFCURVE",
"271 305 OFFCURVE",
"271 268 CURVE SMOOTH",
"271 259 OFFCURVE",
"271 250 OFFCURVE",
"272 241 CURVE",
"272 240 LINE SMOOTH",
"273 203 OFFCURVE",
"280 168 OFFCURVE",
"291 131 CURVE",
"292 127 OFFCURVE",
"294 123 OFFCURVE",
"295 119 CURVE",
"286 113 OFFCURVE",
"272 99 OFFCURVE",
"267 94 CURVE SMOOTH",
"249 77 OFFCURVE",
"230 60 OFFCURVE",
"209 49 CURVE SMOOTH",
"200 44 OFFCURVE",
"190 42 OFFCURVE",
"180 42 CURVE SMOOTH"
);
},
{
closed = 1;
nodes = (
"316 290 OFFCURVE",
"320 315 OFFCURVE",
"326 339 CURVE",
"334 379 OFFCURVE",
"357 410 OFFCURVE",
"387 437 CURVE",
"402 449 OFFCURVE",
"416 457 OFFCURVE",
"435 459 CURVE",
"457 459 OFFCURVE",
"479 459 OFFCURVE",
"499 451 CURVE",
"517 443 OFFCURVE",
"528 432 OFFCURVE",
"534 414 CURVE",
"541 396 OFFCURVE",
"551 377 OFFCURVE",
"555 358 CURVE",
"520 345 OFFCURVE",
"485 332 OFFCURVE",
"450 318 CURVE",
"468 325 OFFCURVE",
"426 307 OFFCURVE",
"416 303 CURVE SMOOTH",
"401 297 OFFCURVE",
"386 292 OFFCURVE",
"370 285 CURVE",
"380 289 OFFCURVE",
"363 283 OFFCURVE",
"361 282 CURVE",
"356 279 OFFCURVE",
"350 277 OFFCURVE",
"345 276 CURVE",
"335 272 OFFCURVE",
"326 268 OFFCURVE",
"316 265 CURVE"
);
}
);
width = 649;
}
);
leftKerningGroup = o;
leftMetricsKey = "=a";
rightKerningGroup = o;
rightMetricsKey = "=e";
unicode = 00E6;
},
{
glyphname = b;
lastChange = "2017-07-23 21:07:22 +0000";
layers = (
{
layerId = "A32222FF-B936-4048-B269-9E41D1D80F08";
paths = (
{
closed = 1;
nodes = (
"92 -4 OFFCURVE",
"102 10 OFFCURVE",
"101 24 CURVE",
"101 26 OFFCURVE",
"101 30 OFFCURVE",
"100 32 CURVE",
"102 32 OFFCURVE",
"103 31 OFFCURVE",
"105 30 CURVE",
"133 11 OFFCURVE",
"162 0 OFFCURVE",
"194 0 CURVE SMOOTH",
"232 0 OFFCURVE",
"271 10 OFFCURVE",
"298 38 CURVE SMOOTH",
"324 64 OFFCURVE",
"337 102 OFFCURVE",
"344 136 CURVE",
"347 154 OFFCURVE",
"347 172 OFFCURVE",
"347 190 CURVE SMOOTH",
"347 208 OFFCURVE",
"347 226 OFFCURVE",
"346 243 CURVE SMOOTH",
"345 282 OFFCURVE",
"341 320 OFFCURVE",
"334 357 CURVE SMOOTH",
"324 418 OFFCURVE",
"296 504 OFFCURVE",
"219 500 CURVE",
"197 498 OFFCURVE",
"175 494 OFFCURVE",
"155 482 CURVE",
"136 472 OFFCURVE",
"119 455 OFFCURVE",
"102 439 CURVE",
"98 434 OFFCURVE",
"89 425 OFFCURVE",
"81 413 CURVE",
"75 469 LINE SMOOTH",
"72 508 OFFCURVE",
"72 547 OFFCURVE",
"67 586 CURVE SMOOTH",
"66 596 OFFCURVE",
"65 624 OFFCURVE",
"60 642 CURVE",
"95 651 LINE",
"107 655 OFFCURVE",
"117 662 OFFCURVE",
"116 674 CURVE",
"116 685 OFFCURVE",
"106 695 OFFCURVE",
"95 695 CURVE SMOOTH",
"93 695 OFFCURVE",
"91 695 OFFCURVE",
"89 694 CURVE",
"61 685 OFFCURVE",
"30 681 OFFCURVE",
"2 673 CURVE SMOOTH",
"-9 670 OFFCURVE",
"-20 664 OFFCURVE",
"-20 651 CURVE SMOOTH",
"-20 638 OFFCURVE",
"-9 629 OFFCURVE",
"4 629 CURVE SMOOTH",
"8 629 OFFCURVE",
"12 629 OFFCURVE",
"16 631 CURVE",
"21 620 OFFCURVE",
"22 609 OFFCURVE",
"23 598 CURVE SMOOTH",
"46 336 OFFCURVE",
"46 352 OFFCURVE",
"46 313 CURVE SMOOTH",
"46 287 OFFCURVE",
"46 237 OFFCURVE",
"54 64 CURVE",
"56 47 OFFCURVE",
"52 16 OFFCURVE",
"65 3 CURVE SMOOTH",
"70 -2 OFFCURVE",
"75 -4 OFFCURVE",
"80 -4 CURVE SMOOTH"
);
},
{
closed = 1;
nodes = (
"180 44 OFFCURVE",
"168 45 OFFCURVE",
"156 50 CURVE SMOOTH",
"147 54 OFFCURVE",
"137 59 OFFCURVE",
"129 66 CURVE",
"121 72 OFFCURVE",
"109 78 OFFCURVE",
"100 83 CURVE",
"98 164 OFFCURVE",
"95 235 OFFCURVE",
"91 315 CURVE",
"91 320 OFFCURVE",
"90 325 OFFCURVE",
"90 330 CURVE SMOOTH",
"90 334 OFFCURVE",
"91 338 OFFCURVE",
"92 341 CURVE",
"94 348 OFFCURVE",
"99 360 OFFCURVE",
"103 368 CURVE",
"114 388 OFFCURVE",
"128 405 OFFCURVE",
"144 420 CURVE",
"168 439 OFFCURVE",
"187 456 OFFCURVE",
"224 456 CURVE SMOOTH",
"239 456 OFFCURVE",
"252 451 OFFCURVE",
"261 435 CURVE SMOOTH",
"285 395 OFFCURVE",
"293 349 OFFCURVE",
"298 303 CURVE SMOOTH",
"302 271 OFFCURVE",
"305 237 OFFCURVE",
"305 204 CURVE SMOOTH",
"305 186 OFFCURVE",
"304 168 OFFCURVE",
"302 151 CURVE",
"295 106 OFFCURVE",
"275 58 OFFCURVE",
"226 47 CURVE",
"215 45 OFFCURVE",
"204 44 OFFCURVE",
"192 44 CURVE SMOOTH"
);
}
);
width = 388;
}
);
leftKerningGroup = h;
leftMetricsKey = "=n-20";
rightKerningGroup = o;
rightMetricsKey = "=o";
unicode = 0062;
},
{
glyphname = c;
lastChange = "2017-07-23 21:07:22 +0000";
layers = (
{
layerId = "A32222FF-B936-4048-B269-9E41D1D80F08";
paths = (
{
closed = 1;
nodes = (
"235 0 OFFCURVE",
"249 2 OFFCURVE",
"261 6 CURVE SMOOTH",
"280 13 OFFCURVE",
"296 25 OFFCURVE",
"306 43 CURVE SMOOTH",
"321 71 OFFCURVE",
"329 92 OFFCURVE",
"335 120 CURVE",
"342 123 OFFCURVE",
"344 130 OFFCURVE",
"344 137 CURVE SMOOTH",
"344 141 OFFCURVE",
"343 146 OFFCURVE",
"340 150 CURVE",
"333 161 OFFCURVE",
"316 161 OFFCURVE",
"305 164 CURVE",
"291 169 OFFCURVE",
"279 175 OFFCURVE",
"267 185 CURVE SMOOTH",
"262 189 OFFCURVE",
"256 191 OFFCURVE",
"250 191 CURVE SMOOTH",
"245 191 OFFCURVE",
"240 189 OFFCURVE",
"235 185 CURVE",
"230 180 OFFCURVE",
"228 175 OFFCURVE",
"228 170 CURVE SMOOTH",
"228 153 OFFCURVE",
"254 138 OFFCURVE",
"268 132 CURVE SMOOTH",
"273 130 OFFCURVE",
"280 125 OFFCURVE",
"288 122 CURVE",
"268 66 OFFCURVE",
"267 55 OFFCURVE",
"245 48 CURVE SMOOTH",
"236 45 OFFCURVE",
"227 44 OFFCURVE",
"218 44 CURVE SMOOTH",
"178 44 OFFCURVE",
"136 67 OFFCURVE",
"114 98 CURVE SMOOTH",
"80 147 OFFCURVE",
"70 204 OFFCURVE",
"70 261 CURVE SMOOTH",
"70 278 OFFCURVE",
"71 296 OFFCURVE",
"72 313 CURVE SMOOTH",
"75 349 OFFCURVE",
"84 391 OFFCURVE",
"109 420 CURVE SMOOTH",
"141 455 OFFCURVE",
"158 462 OFFCURVE",
"205 462 CURVE",
"246 460 OFFCURVE",
"263 434 OFFCURVE",
"280 402 CURVE",
"283 395 LINE",
"279 396 LINE",
"270 399 OFFCURVE",
"260 405 OFFCURVE",
"250 405 CURVE SMOOTH",
"247 405 OFFCURVE",
"243 404 OFFCURVE",
"240 402 CURVE",
"233 398 OFFCURVE",
"229 390 OFFCURVE",
"229 383 CURVE SMOOTH",
"229 381 OFFCURVE",
"230 378 OFFCURVE",
"231 376 CURVE",
"234 364 OFFCURVE",
"246 361 OFFCURVE",
"256 358 CURVE",
"270 352 OFFCURVE",
"292 345 OFFCURVE",
"310 345 CURVE SMOOTH",
"317 345 OFFCURVE",
"323 346 OFFCURVE",
"329 349 CURVE",
"338 353 OFFCURVE",
"342 361 OFFCURVE",
"342 369 CURVE SMOOTH",
"342 377 OFFCURVE",
"339 384 OFFCURVE",
"333 389 CURVE",
"327 419 OFFCURVE",
"295 469 OFFCURVE",
"274 485 CURVE SMOOTH",
"253 500 OFFCURVE",
"227 507 OFFCURVE",
"199 507 CURVE SMOOTH",
"83 507 OFFCURVE",
"30 408 OFFCURVE",
"27 294 CURVE",
"26 280 OFFCURVE",
"26 266 OFFCURVE",
"26 253 CURVE SMOOTH",
"26 215 OFFCURVE",
"30 179 OFFCURVE",
"42 143 CURVE SMOOTH",
"57 101 OFFCURVE",
"81 56 OFFCURVE",
"119 31 CURVE SMOOTH",
"146 13 OFFCURVE",
"185 0 OFFCURVE",
"221 0 CURVE SMOOTH"
);
}
);
width = 364;
}
);
leftKerningGroup = o;
leftMetricsKey = "=o";
rightKerningGroup = o;
unicode = 0063;
},
{
glyphname = d;
lastChange = "2017-07-23 21:07:22 +0000";
layers = (
{
layerId = "A32222FF-B936-4048-B269-9E41D1D80F08";
paths = (
{
closed = 1;
nodes = (
"382 -19 OFFCURVE",
"391 -19 OFFCURVE",
"401 -18 CURVE SMOOTH",
"415 -17 OFFCURVE",
"424 -6 OFFCURVE",
"424 5 CURVE SMOOTH",
"424 17 OFFCURVE",
"415 27 OFFCURVE",
"395 27 CURVE SMOOTH",
"387 27 OFFCURVE",
"378 26 OFFCURVE",
"370 25 CURVE",
"369 37 OFFCURVE",
"366 57 OFFCURVE",
"365 68 CURVE",
"358 120 LINE SMOOTH",
"347 198 OFFCURVE",
"335 362 OFFCURVE",
"339 418 CURVE SMOOTH",
"341 466 OFFCURVE",
"343 513 OFFCURVE",
"344 560 CURVE SMOOTH",
"345 625 OFFCURVE",
"344 573 OFFCURVE",
"347 627 CURVE",
"354 625 OFFCURVE",
"359 624 OFFCURVE",
"365 624 CURVE SMOOTH",
"369 624 OFFCURVE",
"372 624 OFFCURVE",
"376 626 CURVE",
"384 631 OFFCURVE",
"388 638 OFFCURVE",
"388 646 CURVE SMOOTH",
"388 647 OFFCURVE",
"388 650 OFFCURVE",
"387 652 CURVE SMOOTH",
"381 665 OFFCURVE",
"368 668 OFFCURVE",
"357 671 CURVE SMOOTH",
"319 681 LINE",
"310 684 OFFCURVE",
"302 689 OFFCURVE",
"293 689 CURVE SMOOTH",
"289 689 OFFCURVE",
"285 689 OFFCURVE",
"282 686 CURVE SMOOTH",
"277 681 OFFCURVE",
"271 675 OFFCURVE",
"271 668 CURVE SMOOTH",
"271 666 OFFCURVE",
"271 662 OFFCURVE",
"273 660 CURVE",
"277 652 OFFCURVE",
"285 646 OFFCURVE",
"304 639 CURVE",
"302 628 OFFCURVE",
"302 615 OFFCURVE",
"302 606 CURVE",
"301 584 OFFCURVE",
"300 561 OFFCURVE",
"300 538 CURVE",
"296 459 LINE",
"258 485 OFFCURVE",
"208 499 OFFCURVE",
"163 499 CURVE SMOOTH",
"103 499 OFFCURVE",
"57 437 OFFCURVE",
"44 384 CURVE SMOOTH",
"33 344 OFFCURVE",
"26 298 OFFCURVE",
"26 251 CURVE SMOOTH",
"26 141 OFFCURVE",
"68 31 OFFCURVE",
"149 2 CURVE",
"161 -3 OFFCURVE",
"175 -5 OFFCURVE",
"189 -5 CURVE SMOOTH",
"214 -5 OFFCURVE",
"239 3 OFFCURVE",
"258 17 CURVE",
"283 34 OFFCURVE",
"301 60 OFFCURVE",
"319 85 CURVE",
"319 79 OFFCURVE",
"320 74 OFFCURVE",
"321 68 CURVE",
"324 27 LINE",
"321 29 LINE",
"316 30 OFFCURVE",
"309 30 OFFCURVE",
"305 26 CURVE",
"297 22 OFFCURVE",
"293 14 OFFCURVE",
"293 6 CURVE SMOOTH",
"293 4 OFFCURVE",
"294 3 OFFCURVE",
"294 0 CURVE",
"298 -14 OFFCURVE",
"310 -15 OFFCURVE",
"322 -16 CURVE",
"338 -18 OFFCURVE",
"356 -19 OFFCURVE",
"372 -19 CURVE SMOOTH"
);
},
{
closed = 1;
nodes = (
"163 39 OFFCURVE",
"136 52 OFFCURVE",
"119 74 CURVE SMOOTH",
"95 105 OFFCURVE",
"81 152 OFFCURVE",
"77 186 CURVE SMOOTH",
"75 206 OFFCURVE",
"73 225 OFFCURVE",
"73 243 CURVE SMOOTH",
"73 259 OFFCURVE",
"74 274 OFFCURVE",
"74 289 CURVE SMOOTH",
"74 322 OFFCURVE",
"78 355 OFFCURVE",
"90 385 CURVE",
"102 411 OFFCURVE",
"121 445 OFFCURVE",
"150 454 CURVE",
"157 455 OFFCURVE",
"165 456 OFFCURVE",
"172 456 CURVE SMOOTH",
"200 456 OFFCURVE",
"234 444 OFFCURVE",
"256 431 CURVE",
"263 426 OFFCURVE",
"288 411 OFFCURVE",
"295 401 CURVE",
"295 398 LINE SMOOTH",
"295 314 OFFCURVE",
"300 230 OFFCURVE",
"310 147 CURVE",
"308 144 OFFCURVE",
"302 138 OFFCURVE",
"300 133 CURVE",
"276 102 OFFCURVE",
"257 63 OFFCURVE",
"222 45 CURVE",
"211 41 OFFCURVE",
"201 39 OFFCURVE",
"190 39 CURVE SMOOTH"
);
}
);
width = 442;
}
);
leftKerningGroup = o;
leftMetricsKey = "=o";
rightKerningGroup = n;
rightMetricsKey = "=n-10";
unicode = 0064;
},
{
glyphname = e;
lastChange = "2017-07-23 21:07:22 +0000";
layers = (
{
layerId = "A32222FF-B936-4048-B269-9E41D1D80F08";
paths = (
{
closed = 1;
nodes = (
"228 0 OFFCURVE",
"243 2 OFFCURVE",
"257 8 CURVE SMOOTH",
"277 16 OFFCURVE",
"295 29 OFFCURVE",
"310 45 CURVE SMOOTH",
"313 48 OFFCURVE",
"317 53 OFFCURVE",
"322 57 CURVE",
"324 54 OFFCURVE",
"327 52 OFFCURVE",
"329 49 CURVE",
"336 44 OFFCURVE",
"342 39 OFFCURVE",
"350 39 CURVE SMOOTH",
"354 39 OFFCURVE",
"358 40 OFFCURVE",
"362 43 CURVE",
"370 48 OFFCURVE",
"372 54 OFFCURVE",
"372 59 CURVE SMOOTH",
"372 77 OFFCURVE",
"343 97 OFFCURVE",
"331 106 CURVE SMOOTH",
"321 114 OFFCURVE",
"309 123 OFFCURVE",
"299 134 CURVE",
"294 140 OFFCURVE",
"287 144 OFFCURVE",
"280 144 CURVE SMOOTH",
"275 144 OFFCURVE",
"270 142 OFFCURVE",
"265 137 CURVE SMOOTH",
"260 132 OFFCURVE",
"258 127 OFFCURVE",
"258 122 CURVE SMOOTH",
"258 109 OFFCURVE",
"272 95 OFFCURVE",
"284 85 CURVE",
"280 79 OFFCURVE",
"275 73 OFFCURVE",
"270 67 CURVE",
"260 59 OFFCURVE",
"250 52 OFFCURVE",
"238 48 CURVE SMOOTH",
"229 45 OFFCURVE",
"220 44 OFFCURVE",
"212 44 CURVE SMOOTH",
"172 44 OFFCURVE",
"135 73 OFFCURVE",
"110 102 CURVE SMOOTH",
"74 144 OFFCURVE",
"73 208 OFFCURVE",
"70 218 CURVE",
"76 219 OFFCURVE",
"81 220 OFFCURVE",
"86 223 CURVE",
"108 234 OFFCURVE",
"133 242 OFFCURVE",
"156 250 CURVE SMOOTH",
"200 266 OFFCURVE",
"242 288 OFFCURVE",
"286 302 CURVE",
"298 307 OFFCURVE",
"310 311 OFFCURVE",
"322 315 CURVE SMOOTH",
"331 318 OFFCURVE",
"343 320 OFFCURVE",
"351 327 CURVE",
"355 332 OFFCURVE",
"356 337 OFFCURVE",
"356 342 CURVE SMOOTH",
"356 346 OFFCURVE",
"356 349 OFFCURVE",
"354 353 CURVE",
"354 362 OFFCURVE",
"352 373 OFFCURVE",
"348 382 CURVE",
"337 420 OFFCURVE",
"323 462 OFFCURVE",
"287 484 CURVE SMOOTH",
"263 498 OFFCURVE",
"235 504 OFFCURVE",
"209 504 CURVE SMOOTH",
"153 504 OFFCURVE",
"97 476 OFFCURVE",
"65 419 CURVE SMOOTH",
"40 377 OFFCURVE",
"29 331 OFFCURVE",
"27 283 CURVE",
"26 272 OFFCURVE",
"26 260 OFFCURVE",
"26 249 CURVE SMOOTH",
"26 209 OFFCURVE",
"32 171 OFFCURVE",
"45 131 CURVE SMOOTH",
"61 87 OFFCURVE",
"92 49 OFFCURVE",
"130 24 CURVE SMOOTH",
"154 9 OFFCURVE",
"184 0 OFFCURVE",
"213 0 CURVE SMOOTH"
);
},
{
closed = 1;
nodes = (
"70 290 OFFCURVE",
"74 315 OFFCURVE",
"80 339 CURVE",
"88 379 OFFCURVE",
"111 410 OFFCURVE",
"141 437 CURVE",
"156 449 OFFCURVE",
"170 457 OFFCURVE",
"189 459 CURVE",
"211 459 OFFCURVE",
"233 459 OFFCURVE",
"253 451 CURVE",
"271 443 OFFCURVE",
"282 432 OFFCURVE",
"288 414 CURVE",
"295 396 OFFCURVE",
"305 377 OFFCURVE",
"309 358 CURVE",
"274 345 OFFCURVE",
"239 332 OFFCURVE",
"204 318 CURVE",
"222 325 OFFCURVE",
"180 307 OFFCURVE",
"170 303 CURVE SMOOTH",
"154 297 OFFCURVE",
"138 291 OFFCURVE",
"122 284 CURVE",
"136 290 OFFCURVE",
"117 283 OFFCURVE",
"115 282 CURVE",
"110 279 OFFCURVE",
"104 277 OFFCURVE",
"99 276 CURVE",
"89 272 OFFCURVE",
"80 268 OFFCURVE",
"70 265 CURVE"
);
}
);
width = 403;
}
);
leftKerningGroup = o;
leftMetricsKey = "=o";
rightKerningGroup = o;
rightMetricsKey = "=o-10";
unicode = 0065;
},
{
glyphname = f;
lastChange = "2017-07-23 21:07:22 +0000";
layers = (
{
layerId = "A32222FF-B936-4048-B269-9E41D1D80F08";
paths = (
{
closed = 1;
nodes = (
"147 0 OFFCURVE",
"154 0 OFFCURVE",
"159 4 CURVE",
"165 8 OFFCURVE",
"169 15 OFFCURVE",
"169 22 CURVE SMOOTH",
"169 26 OFFCURVE",
"168 30 OFFCURVE",
"165 33 CURVE",
"159 42 OFFCURVE",
"149 43 OFFCURVE",
"139 43 CURVE SMOOTH",
"133 43 LINE",
"125 43 LINE",
"125 51 LINE SMOOTH",
"125 65 OFFCURVE",
"123 79 OFFCURVE",
"121 93 CURVE SMOOTH",
"108 183 OFFCURVE",
"98 272 OFFCURVE",
"98 364 CURVE SMOOTH",
"98 423 LINE SMOOTH",
"98 438 OFFCURVE",
"98 454 OFFCURVE",
"99 469 CURVE",
"111 469 LINE SMOOTH",
"127 469 OFFCURVE",
"149 468 OFFCURVE",
"163 475 CURVE",
"171 478 OFFCURVE",
"175 486 OFFCURVE",
"175 494 CURVE SMOOTH",
"175 500 OFFCURVE",
"173 506 OFFCURVE",
"168 510 CURVE SMOOTH",
"163 514 OFFCURVE",
"157 515 OFFCURVE",
"150 515 CURVE SMOOTH",
"139 515 OFFCURVE",
"127 512 OFFCURVE",
"118 512 CURVE SMOOTH",
"101 512 LINE",
"102 520 OFFCURVE",
"103 528 OFFCURVE",
"105 537 CURVE",
"109 563 OFFCURVE",
"117 588 OFFCURVE",
"129 613 CURVE SMOOTH",
"135 625 OFFCURVE",
"142 636 OFFCURVE",
"152 644 CURVE",
"161 650 OFFCURVE",
"170 651 OFFCURVE",
"179 651 CURVE SMOOTH",
"190 651 LINE",
"217 650 OFFCURVE",
"234 636 OFFCURVE",
"252 618 CURVE SMOOTH",
"256 614 OFFCURVE",
"262 612 OFFCURVE",
"267 612 CURVE SMOOTH",
"278 612 OFFCURVE",
"288 621 OFFCURVE",
"288 633 CURVE SMOOTH",
"288 653 OFFCURVE",
"256 674 OFFCURVE",
"238 683 CURVE SMOOTH",
"217 693 OFFCURVE",
"192 695 OFFCURVE",
"168 694 CURVE SMOOTH",
"121 691 OFFCURVE",
"96 648 OFFCURVE",
"81 609 CURVE SMOOTH",
"68 578 OFFCURVE",
"62 545 OFFCURVE",
"59 512 CURVE",
"51 513 OFFCURVE",
"38 515 OFFCURVE",
"27 515 CURVE SMOOTH",
"21 515 OFFCURVE",
"15 515 OFFCURVE",
"11 512 CURVE",
"4 508 OFFCURVE",
"0 501 OFFCURVE",
"0 494 CURVE SMOOTH",
"0 487 OFFCURVE",
"3 481 OFFCURVE",
"8 477 CURVE SMOOTH",
"17 470 OFFCURVE",
"24 471 OFFCURVE",
"56 470 CURVE",
"56 462 LINE",
"55 437 OFFCURVE",
"54 411 OFFCURVE",
"54 386 CURVE SMOOTH",
"54 311 OFFCURVE",
"60 236 OFFCURVE",
"70 163 CURVE SMOOTH",
"73 141 OFFCURVE",
"75 120 OFFCURVE",
"77 99 CURVE",
"77 88 OFFCURVE",
"80 77 OFFCURVE",
"81 66 CURVE",
"82 59 OFFCURVE",
"82 52 OFFCURVE",
"82 46 CURVE",
"76 46 OFFCURVE",
"69 48 OFFCURVE",
"62 48 CURVE SMOOTH",
"54 48 OFFCURVE",
"47 46 OFFCURVE",
"42 41 CURVE SMOOTH",
"38 37 OFFCURVE",
"36 32 OFFCURVE",
"36 26 CURVE SMOOTH",
"36 21 OFFCURVE",
"38 16 OFFCURVE",
"42 11 CURVE",
"51 2 OFFCURVE",
"71 4 OFFCURVE",
"83 3 CURVE SMOOTH",
"102 1 OFFCURVE",
"122 0 OFFCURVE",
"141 0 CURVE SMOOTH"
);
},
{
closed = 1;
nodes = (
"147 0 OFFCURVE",
"154 0 OFFCURVE",
"159 4 CURVE",
"165 8 OFFCURVE",
"169 15 OFFCURVE",
"169 22 CURVE SMOOTH",
"169 26 OFFCURVE",
"168 30 OFFCURVE",
"165 33 CURVE",
"159 42 OFFCURVE",
"149 43 OFFCURVE",
"139 43 CURVE SMOOTH",
"133 43 LINE",
"125 43 LINE",
"125 51 LINE SMOOTH",
"125 65 OFFCURVE",
"123 79 OFFCURVE",
"121 93 CURVE SMOOTH",
"108 183 OFFCURVE",
"98 272 OFFCURVE",
"98 364 CURVE SMOOTH",
"98 423 LINE SMOOTH",
"98 438 OFFCURVE",
"98 454 OFFCURVE",
"99 469 CURVE",
"111 469 LINE SMOOTH",
"127 469 OFFCURVE",
"149 468 OFFCURVE",
"163 475 CURVE",
"171 478 OFFCURVE",
"175 486 OFFCURVE",
"175 494 CURVE SMOOTH",
"175 500 OFFCURVE",
"173 506 OFFCURVE",
"168 510 CURVE SMOOTH",
"163 514 OFFCURVE",
"157 515 OFFCURVE",
"150 515 CURVE SMOOTH",
"139 515 OFFCURVE",
"127 512 OFFCURVE",
"118 512 CURVE SMOOTH",
"101 512 LINE",
"102 520 OFFCURVE",
"103 528 OFFCURVE",
"105 537 CURVE",
"109 563 OFFCURVE",
"117 588 OFFCURVE",
"129 613 CURVE SMOOTH",
"135 625 OFFCURVE",
"142 636 OFFCURVE",
"152 644 CURVE",
"161 650 OFFCURVE",
"170 651 OFFCURVE",
"179 651 CURVE SMOOTH",
"190 651 LINE",
"217 650 OFFCURVE",
"234 636 OFFCURVE",
"252 618 CURVE SMOOTH",
"256 614 OFFCURVE",
"262 612 OFFCURVE",
"267 612 CURVE SMOOTH",
"278 612 OFFCURVE",
"288 621 OFFCURVE",
"288 633 CURVE SMOOTH",
"288 653 OFFCURVE",
"256 674 OFFCURVE",
"238 683 CURVE SMOOTH",
"217 693 OFFCURVE",
"192 695 OFFCURVE",
"168 694 CURVE SMOOTH",
"121 691 OFFCURVE",
"96 648 OFFCURVE",
"81 609 CURVE SMOOTH",
"68 578 OFFCURVE",
"62 545 OFFCURVE",
"59 512 CURVE",
"51 513 OFFCURVE",
"38 515 OFFCURVE",
"27 515 CURVE SMOOTH",
"21 515 OFFCURVE",
"15 515 OFFCURVE",
"11 512 CURVE",
"4 508 OFFCURVE",
"0 501 OFFCURVE",
"0 494 CURVE SMOOTH",
"0 487 OFFCURVE",
"3 481 OFFCURVE",
"8 477 CURVE SMOOTH",
"17 470 OFFCURVE",
"24 471 OFFCURVE",
"56 470 CURVE",
"56 462 LINE",
"55 437 OFFCURVE",
"54 411 OFFCURVE",
"54 386 CURVE SMOOTH",
"54 311 OFFCURVE",
"60 236 OFFCURVE",
"70 163 CURVE SMOOTH",
"73 141 OFFCURVE",
"75 120 OFFCURVE",
"77 99 CURVE",
"77 88 OFFCURVE",
"80 77 OFFCURVE",
"81 66 CURVE",
"82 59 OFFCURVE",
"82 52 OFFCURVE",
"82 46 CURVE",
"76 46 OFFCURVE",
"69 48 OFFCURVE",
"62 48 CURVE SMOOTH",
"54 48 OFFCURVE",
"47 46 OFFCURVE",
"42 41 CURVE SMOOTH",
"38 37 OFFCURVE",
"36 32 OFFCURVE",
"36 26 CURVE SMOOTH",
"36 21 OFFCURVE",
"38 16 OFFCURVE",
"42 11 CURVE",
"51 2 OFFCURVE",
"71 4 OFFCURVE",
"83 3 CURVE SMOOTH",
"102 1 OFFCURVE",
"122 0 OFFCURVE",
"141 0 CURVE SMOOTH"
);
}
);
width = 243;
}
);
leftKerningGroup = t;
leftMetricsKey = "=n";
unicode = 0066;
},
{
glyphname = g;
lastChange = "2017-07-23 21:07:22 +0000";
layers = (
{
layerId = "A32222FF-B936-4048-B269-9E41D1D80F08";
paths = (
{
closed = 1;
nodes = (
"76 -201 OFFCURVE",
"79 -201 OFFCURVE",
"82 -199 CURVE",
"93 -194 OFFCURVE",
"96 -179 OFFCURVE",
"101 -169 CURVE",
"101 -168 OFFCURVE",
"102 -167 OFFCURVE",
"102 -166 CURVE",
"124 -177 OFFCURVE",
"146 -186 OFFCURVE",
"170 -186 CURVE SMOOTH",
"221 -186 OFFCURVE",
"261 -170 OFFCURVE",
"297 -133 CURVE SMOOTH",
"332 -97 OFFCURVE",
"348 -57 OFFCURVE",
"348 -6 CURVE SMOOTH",
"348 353 LINE",
"351 357 OFFCURVE",
"353 361 OFFCURVE",
"353 365 CURVE SMOOTH",
"353 371 OFFCURVE",
"351 376 OFFCURVE",
"348 381 CURVE",
"348 424 LINE",
"347 443 OFFCURVE",
"348 497 OFFCURVE",
"320 497 CURVE SMOOTH",
"303 497 OFFCURVE",
"299 486 OFFCURVE",
"299 476 CURVE SMOOTH",
"299 467 OFFCURVE",
"302 457 OFFCURVE",
"303 449 CURVE",
"304 443 OFFCURVE",
"304 437 OFFCURVE",
"305 432 CURVE",
"290 443 OFFCURVE",
"275 453 OFFCURVE",
"261 461 CURVE SMOOTH",
"231 479 OFFCURVE",
"199 491 OFFCURVE",
"164 491 CURVE SMOOTH",
"156 491 OFFCURVE",
"148 490 OFFCURVE",
"140 489 CURVE",
"36 471 OFFCURVE",
"26 322 OFFCURVE",
"26 243 CURVE SMOOTH",
"26 154 OFFCURVE",
"44 38 OFFCURVE",
"144 9 CURVE SMOOTH",
"160 4 OFFCURVE",
"177 2 OFFCURVE",
"194 2 CURVE SMOOTH",
"224 2 OFFCURVE",
"255 10 OFFCURVE",
"278 31 CURVE",
"289 40 OFFCURVE",
"298 50 OFFCURVE",
"306 62 CURVE",
"306 -3 LINE SMOOTH",
"306 -20 OFFCURVE",
"305 -36 OFFCURVE",
"300 -52 CURVE SMOOTH",
"286 -94 OFFCURVE",
"248 -130 OFFCURVE",
"204 -139 CURVE",
"194 -142 OFFCURVE",
"184 -143 OFFCURVE",
"174 -143 CURVE SMOOTH",
"161 -143 OFFCURVE",
"149 -141 OFFCURVE",
"137 -136 CURVE SMOOTH",
"132 -134 OFFCURVE",
"126 -130 OFFCURVE",
"120 -126 CURVE",
"126 -115 OFFCURVE",
"132 -99 OFFCURVE",
"129 -86 CURVE SMOOTH",
"127 -77 OFFCURVE",
"118 -70 OFFCURVE",
"108 -70 CURVE SMOOTH",
"105 -70 OFFCURVE",
"101 -71 OFFCURVE",
"98 -73 CURVE SMOOTH",
"87 -80 OFFCURVE",
"88 -92 OFFCURVE",
"84 -103 CURVE SMOOTH",
"79 -117 OFFCURVE",
"72 -130 OFFCURVE",
"66 -144 CURVE",
"61 -154 OFFCURVE",
"51 -168 OFFCURVE",
"51 -180 CURVE SMOOTH",
"51 -192 OFFCURVE",
"61 -201 OFFCURVE",
"73 -201 CURVE SMOOTH"
);
},
{
closed = 1;
nodes = (
"176 44 OFFCURVE",
"155 48 OFFCURVE",
"140 56 CURVE SMOOTH",
"80 90 OFFCURVE",
"68 164 OFFCURVE",
"68 231 CURVE SMOOTH",
"68 250 OFFCURVE",
"69 268 OFFCURVE",
"70 285 CURVE SMOOTH",
"72 327 OFFCURVE",
"80 369 OFFCURVE",
"99 407 CURVE SMOOTH",
"113 436 OFFCURVE",
"139 448 OFFCURVE",
"167 448 CURVE SMOOTH",
"181 448 OFFCURVE",
"195 445 OFFCURVE",
"209 440 CURVE SMOOTH",
"245 426 OFFCURVE",
"280 399 OFFCURVE",
"306 370 CURVE",
"306 158 LINE",
"305 157 OFFCURVE",
"304 155 OFFCURVE",
"303 153 CURVE",
"294 129 OFFCURVE",
"285 106 OFFCURVE",
"270 85 CURVE SMOOTH",
"252 61 OFFCURVE",
"231 44 OFFCURVE",
"195 44 CURVE SMOOTH"
);
}
);
width = 391;
}
);
leftKerningGroup = o;
leftMetricsKey = "=o";
rightMetricsKey = "=n+10";
unicode = 0067;
},
{
glyphname = h;
lastChange = "2017-07-23 21:07:22 +0000";
layers = (
{
anchors = (
{
name = bottom;
position = "{192, 0}";
},
{
name = center;
position = "{192, 250}";
},
{
name = top;
position = "{192, 500}";
}
);
layerId = "A32222FF-B936-4048-B269-9E41D1D80F08";
paths = (
{
closed = 1;
nodes = (
"126 -10 OFFCURVE",
"132 -9 OFFCURVE",
"137 -6 CURVE",
"143 -2 OFFCURVE",
"147 5 OFFCURVE",
"147 12 CURVE SMOOTH",
"147 15 OFFCURVE",
"146 18 OFFCURVE",
"145 20 CURVE",
"140 31 OFFCURVE",
"130 33 OFFCURVE",
"119 33 CURVE",
"111 34 OFFCURVE",
"104 34 OFFCURVE",
"98 34 CURVE",
"95 48 LINE",
"92 68 OFFCURVE",
"79 241 OFFCURVE",
"75 281 CURVE SMOOTH",
"73 299 OFFCURVE",
"72 317 OFFCURVE",
"71 335 CURVE",
"77 339 OFFCURVE",
"84 345 OFFCURVE",
"88 349 CURVE",
"108 367 OFFCURVE",
"127 385 OFFCURVE",
"147 402 CURVE",
"164 418 OFFCURVE",
"185 432 OFFCURVE",
"206 443 CURVE",
"217 448 OFFCURVE",
"228 451 OFFCURVE",
"241 451 CURVE",
"253 452 OFFCURVE",
"253 430 OFFCURVE",
"254 420 CURVE",
"262 367 OFFCURVE",
"260 313 OFFCURVE",
"264 260 CURVE SMOOTH",
"268 204 OFFCURVE",
"274 148 OFFCURVE",
"274 92 CURVE SMOOTH",
"274 75 OFFCURVE",
"272 56 OFFCURVE",
"273 39 CURVE",
"256 39 LINE SMOOTH",
"241 39 OFFCURVE",
"233 29 OFFCURVE",
"233 19 CURVE SMOOTH",
"233 8 OFFCURVE",
"242 -3 OFFCURVE",
"258 -3 CURVE SMOOTH",
"312 -3 LINE SMOOTH",
"323 -3 OFFCURVE",
"338 -5 OFFCURVE",
"347 2 CURVE SMOOTH",
"353 7 OFFCURVE",
"355 13 OFFCURVE",
"355 19 CURVE SMOOTH",
"355 31 OFFCURVE",
"344 43 OFFCURVE",
"329 40 CURVE",
"326 39 OFFCURVE",
"322 39 OFFCURVE",
"318 39 CURVE",
"318 46 OFFCURVE",
"317 53 OFFCURVE",
"317 59 CURVE SMOOTH",
"317 98 LINE",
"316 126 OFFCURVE",
"315 154 OFFCURVE",
"313 182 CURVE SMOOTH",
"308 241 OFFCURVE",
"305 300 OFFCURVE",
"302 359 CURVE SMOOTH",
"301 388 OFFCURVE",
"299 417 OFFCURVE",
"293 445 CURVE SMOOTH",
"288 470 OFFCURVE",
"276 494 OFFCURVE",
"248 494 CURVE SMOOTH",
"199 494 OFFCURVE",
"158 467 OFFCURVE",
"122 437 CURVE SMOOTH",
"104 422 OFFCURVE",
"88 406 OFFCURVE",
"71 391 CURVE",
"70 390 OFFCURVE",
"69 390 OFFCURVE",
"69 389 CURVE",
"68 414 OFFCURVE",
"68 439 OFFCURVE",
"68 464 CURVE SMOOTH",
"68 509 OFFCURVE",
"69 555 OFFCURVE",
"72 600 CURVE",
"72 608 OFFCURVE",
"74 628 OFFCURVE",
"74 641 CURVE",
"79 640 OFFCURVE",
"87 640 OFFCURVE",
"95 640 CURVE SMOOTH",
"101 640 OFFCURVE",
"108 640 OFFCURVE",
"114 642 CURVE",
"125 645 OFFCURVE",
"129 653 OFFCURVE",
"129 662 CURVE SMOOTH",
"129 672 OFFCURVE",
"123 684 OFFCURVE",
"110 684 CURVE SMOOTH",
"108 684 OFFCURVE",
"106 684 OFFCURVE",
"103 683 CURVE",
"98 682 OFFCURVE",
"93 682 OFFCURVE",
"88 682 CURVE SMOOTH",
"68 682 OFFCURVE",
"43 686 OFFCURVE",
"27 688 CURVE",
"21 689 OFFCURVE",
"16 689 OFFCURVE",
"10 686 CURVE",
"3 682 OFFCURVE",
"0 674 OFFCURVE",
"0 667 CURVE SMOOTH",
"0 662 OFFCURVE",
"1 657 OFFCURVE",
"5 653 CURVE",
"9 648 OFFCURVE",
"24 646 OFFCURVE",
"30 645 CURVE",
"30 641 LINE SMOOTH",
"30 589 OFFCURVE",
"24 537 OFFCURVE",
"24 484 CURVE SMOOTH",
"24 429 OFFCURVE",
"25 375 OFFCURVE",
"29 320 CURVE SMOOTH",
"33 266 OFFCURVE",
"36 213 OFFCURVE",
"40 160 CURVE SMOOTH",
"45 91 OFFCURVE",
"52 52 OFFCURVE",
"53 41 CURVE",
"46 42 OFFCURVE",
"38 42 OFFCURVE",
"33 39 CURVE SMOOTH",
"26 35 OFFCURVE",
"22 27 OFFCURVE",
"22 19 CURVE SMOOTH",
"22 16 OFFCURVE",
"23 12 OFFCURVE",
"25 9 CURVE",
"31 -2 OFFCURVE",
"45 -2 OFFCURVE",
"56 -4 CURVE",
"70 -6 OFFCURVE",
"85 -8 OFFCURVE",
"99 -9 CURVE",
"105 -9 OFFCURVE",
"113 -10 OFFCURVE",
"120 -10 CURVE SMOOTH"
);
}
);
width = 383;
}
);
leftKerningGroup = h;
leftMetricsKey = "=n";
rightKerningGroup = n;
rightMetricsKey = "=n";
unicode = 0068;
},
{
glyphname = i;
lastChange = "2017-07-23 21:07:22 +0000";
layers = (
{
layerId = "A32222FF-B936-4048-B269-9E41D1D80F08";
paths = (
{
closed = 1;
nodes = (
"170 -1 OFFCURVE",
"191 3 OFFCURVE",
"191 22 CURVE SMOOTH",
"191 43 OFFCURVE",
"170 44 OFFCURVE",
"151 43 CURVE",
"148 79 OFFCURVE",
"150 114 OFFCURVE",
"146 149 CURVE",
"143 190 OFFCURVE",
"140 232 OFFCURVE",
"136 273 CURVE SMOOTH",
"132 310 OFFCURVE",
"127 347 OFFCURVE",
"116 383 CURVE",
"115 392 OFFCURVE",
"106 418 OFFCURVE",
"96 439 CURVE",
"128 445 LINE",
"138 448 OFFCURVE",
"143 456 OFFCURVE",
"143 464 CURVE SMOOTH",
"143 477 OFFCURVE",
"133 490 OFFCURVE",
"116 486 CURVE SMOOTH",
"88 479 OFFCURVE",
"56 475 OFFCURVE",
"28 471 CURVE",
"18 469 OFFCURVE",
"12 460 OFFCURVE",
"12 450 CURVE SMOOTH",
"12 447 OFFCURVE",
"13 445 OFFCURVE",
"14 443 CURVE",
"19 434 OFFCURVE",
"28 430 OFFCURVE",
"37 430 CURVE SMOOTH",
"42 430 OFFCURVE",
"48 430 OFFCURVE",
"52 432 CURVE",
"64 404 OFFCURVE",
"72 383 OFFCURVE",
"80 352 CURVE SMOOTH",
"85 332 OFFCURVE",
"88 311 OFFCURVE",
"91 291 CURVE SMOOTH",
"97 251 OFFCURVE",
"99 210 OFFCURVE",
"102 170 CURVE SMOOTH",
"105 130 OFFCURVE",
"106 90 OFFCURVE",
"108 50 CURVE",
"108 43 LINE",
"90 44 OFFCURVE",
"68 43 OFFCURVE",
"68 22 CURVE SMOOTH",
"68 -6 OFFCURVE",
"109 0 OFFCURVE",
"126 0 CURVE SMOOTH",
"132 0 OFFCURVE",
"141 -1 OFFCURVE",
"150 -1 CURVE SMOOTH"
);
},
{
closed = 1;
nodes = (
"67 513 OFFCURVE",
"86 539 OFFCURVE",
"86 563 CURVE SMOOTH",
"86 587 OFFCURVE",
"69 597 OFFCURVE",
"50 597 CURVE SMOOTH",
"46 597 OFFCURVE",
"42 597 OFFCURVE",
"38 596 CURVE",
"15 593 OFFCURVE",
"1 579 OFFCURVE",
"0 554 CURVE",
"2 531 OFFCURVE",
"20 519 OFFCURVE",
"43 516 CURVE SMOOTH"
);
}
);
width = 211;
}
);
rightKerningGroup = n;
unicode = 0069;
},
{
glyphname = j;
lastChange = "2017-07-23 21:07:22 +0000";
layers = (
{
layerId = "A32222FF-B936-4048-B269-9E41D1D80F08";
paths = (
{
closed = 1;
nodes = (
"15 -177 OFFCURVE",
"34 -174 OFFCURVE",
"50 -168 CURVE",
"74 -157 OFFCURVE",
"91 -138 OFFCURVE",
"97 -113 CURVE SMOOTH",
"102 -90 OFFCURVE",
"101 -67 OFFCURVE",
"101 -44 CURVE",
"100 -24 OFFCURVE",
"100 -3 OFFCURVE",
"100 17 CURVE",
"99 73 OFFCURVE",
"98 129 OFFCURVE",
"96 184 CURVE",
"96 223 OFFCURVE",
"95 263 OFFCURVE",
"94 302 CURVE SMOOTH",
"91 472 LINE",
"95 472 OFFCURVE",
"98 471 OFFCURVE",
"102 471 CURVE SMOOTH",
"109 471 OFFCURVE",
"116 473 OFFCURVE",
"122 479 CURVE SMOOTH",
"126 483 OFFCURVE",
"129 490 OFFCURVE",
"129 497 CURVE SMOOTH",
"129 500 OFFCURVE",
"128 503 OFFCURVE",
"127 505 CURVE",
"123 517 OFFCURVE",
"113 521 OFFCURVE",
"103 521 CURVE SMOOTH",
"100 521 LINE SMOOTH",
"90 521 OFFCURVE",
"81 521 OFFCURVE",
"71 522 CURVE",
"60 522 LINE SMOOTH",
"47 522 OFFCURVE",
"34 524 OFFCURVE",
"25 514 CURVE",
"20 510 OFFCURVE",
"18 503 OFFCURVE",
"18 498 CURVE SMOOTH",
"18 493 OFFCURVE",
"19 489 OFFCURVE",
"21 485 CURVE",
"26 476 OFFCURVE",
"35 473 OFFCURVE",
"49 472 CURVE",
"50 454 OFFCURVE",
"50 436 OFFCURVE",
"50 418 CURVE SMOOTH",
"53 251 LINE SMOOTH",
"54 195 OFFCURVE",
"56 140 OFFCURVE",
"57 83 CURVE SMOOTH",
"57 58 OFFCURVE",
"57 32 OFFCURVE",
"58 7 CURVE",
"58 -22 OFFCURVE",
"60 -52 OFFCURVE",
"60 -81 CURVE",
"59 -90 OFFCURVE",
"57 -98 OFFCURVE",
"54 -108 CURVE",
"52 -117 OFFCURVE",
"46 -122 OFFCURVE",
"38 -127 CURVE",
"23 -135 OFFCURVE",
"4 -135 OFFCURVE",
"-15 -135 CURVE",
"-31 -136 OFFCURVE",
"-44 -122 OFFCURVE",
"-56 -112 CURVE",
"-61 -107 OFFCURVE",
"-66 -100 OFFCURVE",
"-73 -98 CURVE",
"-75 -97 OFFCURVE",
"-77 -97 OFFCURVE",
"-80 -97 CURVE SMOOTH",
"-84 -97 OFFCURVE",
"-88 -98 OFFCURVE",
"-91 -100 CURVE",
"-97 -105 OFFCURVE",
"-100 -111 OFFCURVE",
"-100 -117 CURVE SMOOTH",
"-100 -124 OFFCURVE",
"-97 -130 OFFCURVE",
"-93 -135 CURVE",
"-80 -147 OFFCURVE",
"-67 -157 OFFCURVE",
"-53 -167 CURVE",
"-37 -177 OFFCURVE",
"-20 -177 OFFCURVE",
"-2 -177 CURVE SMOOTH"
);
},
{
closed = 1;
nodes = (
"76 606 OFFCURVE",
"81 607 OFFCURVE",
"86 609 CURVE",
"101 617 OFFCURVE",
"106 629 OFFCURVE",
"106 641 CURVE",
"105 662 OFFCURVE",
"85 684 OFFCURVE",
"65 683 CURVE",
"60 683 OFFCURVE",
"55 681 OFFCURVE",
"51 678 CURVE",
"36 673 OFFCURVE",
"25 655 OFFCURVE",
"26 639 CURVE",
"26 634 OFFCURVE",
"27 629 OFFCURVE",
"29 625 CURVE",
"37 612 OFFCURVE",
"54 605 OFFCURVE",
"71 606 CURVE"
);
}
);
width = 177;
}
);
rightKerningGroup = n;
rightMetricsKey = "=n+20";
unicode = 006A;
},
{
glyphname = k;
lastChange = "2017-07-23 21:07:22 +0000";
layers = (
{
layerId = "A32222FF-B936-4048-B269-9E41D1D80F08";
paths = (
{
closed = 1;
nodes = (
"137 -19 OFFCURVE",
"151 -14 OFFCURVE",
"151 5 CURVE SMOOTH",
"151 23 OFFCURVE",
"127 25 OFFCURVE",
"110 26 CURVE",
"110 191 LINE SMOOTH",
"110 224 OFFCURVE",
"110 257 OFFCURVE",
"109 290 CURVE",
"129 289 OFFCURVE",
"150 297 OFFCURVE",
"168 307 CURVE",
"171 299 OFFCURVE",
"173 290 OFFCURVE",
"176 281 CURVE SMOOTH",
"188 246 OFFCURVE",
"197 210 OFFCURVE",
"212 176 CURVE SMOOTH",
"227 142 OFFCURVE",
"245 109 OFFCURVE",
"256 74 CURVE SMOOTH",
"258 68 OFFCURVE",
"261 55 OFFCURVE",
"265 43 CURVE",
"260 43 OFFCURVE",
"254 42 OFFCURVE",
"250 39 CURVE",
"244 35 OFFCURVE",
"241 28 OFFCURVE",
"241 21 CURVE SMOOTH",
"241 11 OFFCURVE",
"249 0 OFFCURVE",
"262 0 CURVE SMOOTH",
"285 0 OFFCURVE",
"309 0 OFFCURVE",
"332 3 CURVE",
"343 5 OFFCURVE",
"347 13 OFFCURVE",
"347 21 CURVE SMOOTH",
"347 34 OFFCURVE",
"337 48 OFFCURVE",
"321 44 CURVE",
"312 44 LINE",
"306 60 OFFCURVE",
"300 76 OFFCURVE",
"295 92 CURVE SMOOTH",
"284 125 OFFCURVE",
"267 157 OFFCURVE",
"253 188 CURVE SMOOTH",
"238 222 OFFCURVE",
"229 257 OFFCURVE",
"218 292 CURVE SMOOTH",
"215 301 OFFCURVE",
"211 320 OFFCURVE",
"205 336 CURVE",
"225 356 OFFCURVE",
"242 381 OFFCURVE",
"256 406 CURVE SMOOTH",
"269 429 OFFCURVE",
"282 457 OFFCURVE",
"284 484 CURVE",
"294 484 OFFCURVE",
"303 487 OFFCURVE",
"308 492 CURVE SMOOTH",
"312 496 OFFCURVE",
"314 501 OFFCURVE",
"314 507 CURVE SMOOTH",
"314 518 OFFCURVE",
"307 528 OFFCURVE",
"295 528 CURVE SMOOTH",
"293 528 LINE SMOOTH",
"282 528 OFFCURVE",
"270 527 OFFCURVE",
"259 528 CURVE",
"249 528 OFFCURVE",
"239 530 OFFCURVE",
"232 522 CURVE",
"227 518 OFFCURVE",
"225 513 OFFCURVE",
"225 508 CURVE SMOOTH",
"225 499 OFFCURVE",
"232 490 OFFCURVE",
"241 487 CURVE",
"239 461 OFFCURVE",
"224 434 OFFCURVE",
"210 412 CURVE SMOOTH",
"193 386 OFFCURVE",
"175 361 OFFCURVE",
"148 345 CURVE",
"137 339 OFFCURVE",
"124 332 OFFCURVE",
"111 333 CURVE",
"108 333 LINE",
"107 391 OFFCURVE",
"104 448 OFFCURVE",
"97 505 CURVE SMOOTH",
"93 540 OFFCURVE",
"90 575 OFFCURVE",
"87 611 CURVE",
"85 621 OFFCURVE",
"85 643 OFFCURVE",
"81 662 CURVE",
"89 662 OFFCURVE",
"98 662 OFFCURVE",
"105 667 CURVE",
"112 671 OFFCURVE",
"115 677 OFFCURVE",
"115 682 CURVE SMOOTH",
"115 694 OFFCURVE",
"101 706 OFFCURVE",
"87 705 CURVE",
"45 705 LINE",
"38 706 OFFCURVE",
"29 708 OFFCURVE",
"20 708 CURVE SMOOTH",
"15 708 OFFCURVE",
"10 707 OFFCURVE",
"6 705 CURVE",
"-1 701 OFFCURVE",
"-5 693 OFFCURVE",
"-5 686 CURVE SMOOTH",
"-5 684 OFFCURVE",
"-4 683 OFFCURVE",
"-4 681 CURVE",
"0 667 OFFCURVE",
"12 665 OFFCURVE",
"24 664 CURVE",
"28 664 OFFCURVE",
"31 663 OFFCURVE",
"35 663 CURVE",
"36 656 OFFCURVE",
"38 648 OFFCURVE",
"39 642 CURVE SMOOTH",
"44 615 OFFCURVE",
"46 587 OFFCURVE",
"49 559 CURVE SMOOTH",
"54 507 OFFCURVE",
"60 455 OFFCURVE",
"63 402 CURVE SMOOTH",
"67 326 OFFCURVE",
"67 251 OFFCURVE",
"67 176 CURVE SMOOTH",
"67 85 LINE",
"68 79 OFFCURVE",
"68 72 OFFCURVE",
"68 66 CURVE SMOOTH",
"68 60 OFFCURVE",
"68 54 OFFCURVE",
"67 47 CURVE",
"67 44 OFFCURVE",
"66 40 OFFCURVE",
"65 37 CURVE",
"60 38 OFFCURVE",
"54 39 OFFCURVE",
"49 39 CURVE SMOOTH",
"38 39 OFFCURVE",
"26 35 OFFCURVE",
"26 18 CURVE SMOOTH",
"26 -4 OFFCURVE",
"61 -8 OFFCURVE",
"78 -12 CURVE SMOOTH",
"88 -14 OFFCURVE",
"106 -19 OFFCURVE",
"121 -19 CURVE SMOOTH"
);
}
);
width = 362;
}
);
leftKerningGroup = h;
leftMetricsKey = "=n-5";
unicode = 006B;
},
{
glyphname = l;
lastChange = "2017-07-23 21:07:22 +0000";
layers = (
{
anchors = (
{
name = bottom;
position = "{102, 0}";
},
{
name = center;
position = "{102, 250}";
},
{
name = top;
position = "{102, 500}";
},
{
name = topright;
position = "{184, 500}";
}
);
layerId = "A32222FF-B936-4048-B269-9E41D1D80F08";
paths = (
{
closed = 1;
nodes = (
"112 -17 OFFCURVE",
"118 -17 OFFCURVE",
"125 -16 CURVE",
"138 -16 OFFCURVE",
"146 -5 OFFCURVE",
"146 5 CURVE SMOOTH",
"146 10 OFFCURVE",
"144 15 OFFCURVE",
"140 20 CURVE",
"135 25 OFFCURVE",
"127 26 OFFCURVE",
"119 26 CURVE SMOOTH",
"112 26 LINE",
"112 255 LINE SMOOTH",
"112 289 OFFCURVE",
"113 322 OFFCURVE",
"113 354 CURVE SMOOTH",
"113 388 OFFCURVE",
"112 421 OFFCURVE",
"110 453 CURVE SMOOTH",
"107 496 OFFCURVE",
"102 539 OFFCURVE",
"97 580 CURVE SMOOTH",
"95 596 OFFCURVE",
"92 611 OFFCURVE",
"89 627 CURVE",
"94 627 OFFCURVE",
"98 627 OFFCURVE",
"103 628 CURVE",
"116 628 OFFCURVE",
"124 639 OFFCURVE",
"124 649 CURVE SMOOTH",
"124 655 OFFCURVE",
"121 662 OFFCURVE",
"115 666 CURVE SMOOTH",
"109 670 OFFCURVE",
"102 670 OFFCURVE",
"95 670 CURVE SMOOTH",
"21 670 LINE SMOOTH",
"8 670 OFFCURVE",
"0 659 OFFCURVE",
"0 649 CURVE SMOOTH",
"0 643 OFFCURVE",
"3 636 OFFCURVE",
"9 632 CURVE",
"14 628 OFFCURVE",
"20 628 OFFCURVE",
"26 628 CURVE SMOOTH",
"45 628 LINE",
"46 613 OFFCURVE",
"50 598 OFFCURVE",
"52 588 CURVE SMOOTH",
"57 562 OFFCURVE",
"59 536 OFFCURVE",
"63 509 CURVE SMOOTH",
"70 460 OFFCURVE",
"71 410 OFFCURVE",
"71 360 CURVE SMOOTH",
"71 50 LINE SMOOTH",
"71 43 OFFCURVE",
"70 34 OFFCURVE",
"70 26 CURVE",
"52 26 LINE SMOOTH",
"40 26 OFFCURVE",
"32 15 OFFCURVE",
"32 4 CURVE SMOOTH",
"32 0 OFFCURVE",
"34 -5 OFFCURVE",
"38 -10 CURVE",
"44 -15 OFFCURVE",
"51 -16 OFFCURVE",
"58 -16 CURVE SMOOTH",
"65 -16 LINE SMOOTH",
"78 -16 OFFCURVE",
"92 -17 OFFCURVE",
"105 -17 CURVE SMOOTH"
);
}
);
width = 204;
}
);
leftKerningGroup = h;
leftMetricsKey = "=n";
rightKerningGroup = n;
rightMetricsKey = "=n+30";
unicode = 006C;
},
{
glyphname = m;
lastChange = "2017-07-23 21:07:22 +0000";
layers = (
{
layerId = "A32222FF-B936-4048-B269-9E41D1D80F08";
paths = (
{
closed = 1;
nodes = (
"90 -13 OFFCURVE",
"108 -10 OFFCURVE",
"124 -8 CURVE",
"134 -5 OFFCURVE",
"139 5 OFFCURVE",
"139 14 CURVE SMOOTH",
"139 24 OFFCURVE",
"133 34 OFFCURVE",
"121 34 CURVE SMOOTH",
"114 34 LINE",
"113 40 OFFCURVE",
"112 47 OFFCURVE",
"112 52 CURVE",
"110 75 OFFCURVE",
"107 97 OFFCURVE",
"105 120 CURVE SMOOTH",
"103 139 OFFCURVE",
"103 157 OFFCURVE",
"103 176 CURVE SMOOTH",
"103 213 LINE SMOOTH",
"103 228 OFFCURVE",
"103 244 OFFCURVE",
"102 259 CURVE SMOOTH",
"100 285 OFFCURVE",
"100 310 OFFCURVE",
"99 336 CURVE",
"104 345 OFFCURVE",
"106 348 OFFCURVE",
"110 356 CURVE SMOOTH",
"115 366 OFFCURVE",
"123 375 OFFCURVE",
"129 385 CURVE",
"142 404 OFFCURVE",
"197 458 OFFCURVE",
"212 462 CURVE",
"222 463 OFFCURVE",
"222 447 OFFCURVE",
"223 439 CURVE",
"224 426 OFFCURVE",
"224 413 OFFCURVE",
"224 400 CURVE SMOOTH",
"224 158 LINE SMOOTH",
"224 139 OFFCURVE",
"224 121 OFFCURVE",
"223 102 CURVE SMOOTH",
"222 82 OFFCURVE",
"222 62 OFFCURVE",
"221 42 CURVE",
"215 43 OFFCURVE",
"209 42 OFFCURVE",
"204 39 CURVE SMOOTH",
"197 35 OFFCURVE",
"194 28 OFFCURVE",
"194 20 CURVE SMOOTH",
"194 11 OFFCURVE",
"199 2 OFFCURVE",
"209 0 CURVE",
"220 -1 OFFCURVE",
"231 -3 OFFCURVE",
"241 -4 CURVE",
"247 -5 OFFCURVE",
"255 -6 OFFCURVE",
"262 -6 CURVE SMOOTH",
"266 -6 OFFCURVE",
"270 -6 OFFCURVE",
"274 -4 CURVE",
"280 0 OFFCURVE",
"284 8 OFFCURVE",
"284 15 CURVE SMOOTH",
"284 24 OFFCURVE",
"279 33 OFFCURVE",
"268 35 CURVE",
"267 35 OFFCURVE",
"266 36 OFFCURVE",
"264 36 CURVE",
"265 42 OFFCURVE",
"264 48 OFFCURVE",
"264 53 CURVE",
"265 69 OFFCURVE",
"265 85 OFFCURVE",
"266 100 CURVE",
"266 355 LINE SMOOTH",
"266 361 OFFCURVE",
"267 370 OFFCURVE",
"267 380 CURVE",
"279 392 OFFCURVE",
"292 410 OFFCURVE",
"302 420 CURVE SMOOTH",
"315 433 OFFCURVE",
"332 453 OFFCURVE",
"352 453 CURVE",
"373 454 OFFCURVE",
"377 411 OFFCURVE",
"380 396 CURVE",
"383 367 OFFCURVE",
"383 338 OFFCURVE",
"383 310 CURVE SMOOTH",
"383 241 LINE SMOOTH",
"384 188 OFFCURVE",
"386 137 OFFCURVE",
"387 85 CURVE SMOOTH",
"387 49 LINE",
"376 49 OFFCURVE",
"363 52 OFFCURVE",
"354 43 CURVE SMOOTH",
"349 38 OFFCURVE",
"347 33 OFFCURVE",
"347 29 CURVE SMOOTH",
"347 17 OFFCURVE",
"362 7 OFFCURVE",
"375 6 CURVE",
"412 6 LINE SMOOTH",
"423 6 OFFCURVE",
"436 3 OFFCURVE",
"445 12 CURVE SMOOTH",
"450 17 OFFCURVE",
"452 22 OFFCURVE",
"452 27 CURVE SMOOTH",
"452 37 OFFCURVE",
"442 45 OFFCURVE",
"431 48 CURVE",
"431 55 LINE SMOOTH",
"431 106 OFFCURVE",
"429 157 OFFCURVE",
"427 208 CURVE SMOOTH",
"426 226 OFFCURVE",
"426 243 OFFCURVE",
"426 261 CURVE SMOOTH",
"426 314 LINE SMOOTH",
"426 330 OFFCURVE",
"426 346 OFFCURVE",
"425 362 CURVE SMOOTH",
"422 411 OFFCURVE",
"416 495 OFFCURVE",
"352 495 CURVE SMOOTH",
"316 495 OFFCURVE",
"290 470 OFFCURVE",
"266 443 CURVE",
"262 478 OFFCURVE",
"249 507 OFFCURVE",
"213 505 CURVE",
"182 502 OFFCURVE",
"113 445 OFFCURVE",
"100 418 CURVE",
"100 437 OFFCURVE",
"101 465 OFFCURVE",
"97 485 CURVE",
"98 486 OFFCURVE",
"101 488 OFFCURVE",
"104 489 CURVE",
"114 493 OFFCURVE",
"124 500 OFFCURVE",
"124 510 CURVE SMOOTH",
"124 512 OFFCURVE",
"124 514 OFFCURVE",
"123 516 CURVE",
"120 526 OFFCURVE",
"112 532 OFFCURVE",
"103 532 CURVE SMOOTH",
"99 532 OFFCURVE",
"95 531 OFFCURVE",
"92 529 CURVE",
"79 524 OFFCURVE",
"67 519 OFFCURVE",
"54 516 CURVE",
"48 515 OFFCURVE",
"40 515 OFFCURVE",
"33 515 CURVE SMOOTH",
"26 515 OFFCURVE",
"19 515 OFFCURVE",
"13 512 CURVE",
"4 508 OFFCURVE",
"0 502 OFFCURVE",
"0 495 CURVE SMOOTH",
"0 483 OFFCURVE",
"12 471 OFFCURVE",
"26 471 CURVE",
"36 470 OFFCURVE",
"45 471 OFFCURVE",
"53 473 CURVE",
"56 462 OFFCURVE",
"56 444 OFFCURVE",
"56 423 CURVE SMOOTH",
"56 392 LINE SMOOTH",
"57 344 OFFCURVE",
"57 297 OFFCURVE",
"59 249 CURVE SMOOTH",
"61 203 OFFCURVE",
"58 156 OFFCURVE",
"64 110 CURVE",
"70 44 LINE",
"70 40 OFFCURVE",
"70 36 OFFCURVE",
"71 32 CURVE",
"62 32 OFFCURVE",
"54 32 OFFCURVE",
"47 29 CURVE SMOOTH",
"38 25 OFFCURVE",
"34 18 OFFCURVE",
"34 10 CURVE SMOOTH",
"34 0 OFFCURVE",
"40 -9 OFFCURVE",
"51 -11 CURVE",
"58 -13 OFFCURVE",
"65 -13 OFFCURVE",
"73 -13 CURVE SMOOTH"
);
}
);
width = 480;
}
);
leftKerningGroup = n;
leftMetricsKey = "=n";
rightKerningGroup = n;
rightMetricsKey = "=n";
unicode = 006D;
},
{
glyphname = n;
lastChange = "2017-07-23 21:07:22 +0000";
layers = (
{
layerId = "A32222FF-B936-4048-B269-9E41D1D80F08";
paths = (
{
closed = 1;
nodes = (
"312 -3 OFFCURVE",
"322 -2 OFFCURVE",
"331 -2 CURVE SMOOTH",
"345 -2 OFFCURVE",
"364 -5 OFFCURVE",
"373 8 CURVE SMOOTH",
"375 11 OFFCURVE",
"376 15 OFFCURVE",
"376 19 CURVE SMOOTH",
"376 31 OFFCURVE",
"368 43 OFFCURVE",
"355 42 CURVE",
"351 42 LINE",
"346 91 OFFCURVE",
"346 141 OFFCURVE",
"342 191 CURVE SMOOTH",
"338 251 OFFCURVE",
"335 310 OFFCURVE",
"331 370 CURVE SMOOTH",
"329 409 OFFCURVE",
"329 494 OFFCURVE",
"272 494 CURVE SMOOTH",
"221 494 OFFCURVE",
"171 462 OFFCURVE",
"129 436 CURVE",
"115 428 OFFCURVE",
"102 418 OFFCURVE",
"89 409 CURVE",
"89 412 LINE SMOOTH",
"89 421 OFFCURVE",
"88 431 OFFCURVE",
"88 442 CURVE SMOOTH",
"88 458 OFFCURVE",
"89 474 OFFCURVE",
"92 486 CURVE",
"103 486 OFFCURVE",
"98 487 OFFCURVE",
"109 487 CURVE SMOOTH",
"123 487 OFFCURVE",
"130 498 OFFCURVE",
"130 509 CURVE SMOOTH",
"130 519 OFFCURVE",
"123 530 OFFCURVE",
"109 530 CURVE SMOOTH",
"75 530 OFFCURVE",
"56 529 OFFCURVE",
"21 529 CURVE SMOOTH",
"7 529 OFFCURVE",
"0 518 OFFCURVE",
"0 507 CURVE SMOOTH",
"0 496 OFFCURVE",
"7 485 OFFCURVE",
"21 485 CURVE SMOOTH",
"47 485 LINE",
"45 475 OFFCURVE",
"45 463 OFFCURVE",
"45 454 CURVE SMOOTH",
"45 430 OFFCURVE",
"45 405 OFFCURVE",
"46 381 CURVE SMOOTH",
"47 363 LINE SMOOTH",
"49 323 OFFCURVE",
"49 282 OFFCURVE",
"51 241 CURVE SMOOTH",
"52 196 OFFCURVE",
"51 150 OFFCURVE",
"54 105 CURVE",
"55 96 OFFCURVE",
"53 66 OFFCURVE",
"57 44 CURVE",
"53 44 OFFCURVE",
"48 43 OFFCURVE",
"44 42 CURVE",
"33 40 OFFCURVE",
"27 31 OFFCURVE",
"27 21 CURVE SMOOTH",
"27 10 OFFCURVE",
"35 -1 OFFCURVE",
"49 -1 CURVE SMOOTH",
"77 -1 OFFCURVE",
"105 2 OFFCURVE",
"133 5 CURVE",
"147 7 OFFCURVE",
"154 19 OFFCURVE",
"154 30 CURVE SMOOTH",
"154 40 OFFCURVE",
"148 49 OFFCURVE",
"136 49 CURVE SMOOTH",
"124 49 OFFCURVE",
"112 46 OFFCURVE",
"100 45 CURVE",
"100 54 OFFCURVE",
"99 63 OFFCURVE",
"99 70 CURVE SMOOTH",
"99 93 OFFCURVE",
"97 117 OFFCURVE",
"96 140 CURVE SMOOTH",
"94 186 OFFCURVE",
"94 233 OFFCURVE",
"93 279 CURVE SMOOTH",
"90 356 LINE",
"97 361 OFFCURVE",
"104 367 OFFCURVE",
"109 372 CURVE",
"128 385 OFFCURVE",
"148 397 OFFCURVE",
"169 409 CURVE SMOOTH",
"190 421 OFFCURVE",
"212 433 OFFCURVE",
"234 443 CURVE",
"245 447 OFFCURVE",
"256 450 OFFCURVE",
"268 450 CURVE",
"279 451 OFFCURVE",
"282 428 OFFCURVE",
"283 418 CURVE SMOOTH",
"290 364 OFFCURVE",
"290 309 OFFCURVE",
"294 255 CURVE SMOOTH",
"298 200 OFFCURVE",
"302 145 OFFCURVE",
"305 90 CURVE SMOOTH",
"306 77 OFFCURVE",
"304 58 OFFCURVE",
"305 42 CURVE",
"298 42 LINE SMOOTH",
"288 42 OFFCURVE",
"279 42 OFFCURVE",
"272 35 CURVE SMOOTH",
"268 31 OFFCURVE",
"266 25 OFFCURVE",
"266 20 CURVE SMOOTH",
"266 10 OFFCURVE",
"272 1 OFFCURVE",
"283 -1 CURVE",
"289 -3 OFFCURVE",
"295 -3 OFFCURVE",
"302 -3 CURVE SMOOTH"
);
}
);
width = 404;
}
);
leftKerningGroup = n;
rightKerningGroup = n;
unicode = 006E;
},
{
glyphname = o;
lastChange = "2017-07-23 21:07:22 +0000";
layers = (
{
layerId = "A32222FF-B936-4048-B269-9E41D1D80F08";
paths = (
{
closed = 1;
nodes = (
"229 -15 OFFCURVE",
"240 -13 OFFCURVE",
"251 -9 CURVE",
"270 1 OFFCURVE",
"290 18 OFFCURVE",
"301 35 CURVE SMOOTH",
"315 56 OFFCURVE",
"317 84 OFFCURVE",
"320 109 CURVE SMOOTH",
"327 168 OFFCURVE",
"327 229 OFFCURVE",
"327 288 CURVE SMOOTH",
"327 331 OFFCURVE",
"326 375 OFFCURVE",
"312 415 CURVE SMOOTH",
"302 444 OFFCURVE",
"280 477 OFFCURVE",
"253 493 CURVE SMOOTH",
"225 509 OFFCURVE",
"180 511 OFFCURVE",
"150 511 CURVE SMOOTH",
"99 511 OFFCURVE",
"64 470 OFFCURVE",
"44 427 CURVE SMOOTH",
"28 393 OFFCURVE",
"26 359 OFFCURVE",
"26 323 CURVE SMOOTH",
"26 282 LINE SMOOTH",
"26 229 OFFCURVE",
"28 173 OFFCURVE",
"38 120 CURVE SMOOTH",
"46 77 OFFCURVE",
"71 44 OFFCURVE",
"105 16 CURVE SMOOTH",
"122 2 OFFCURVE",
"144 -4 OFFCURVE",
"166 -10 CURVE SMOOTH",
"177 -13 OFFCURVE",
"201 -15 OFFCURVE",
"216 -15 CURVE SMOOTH"
);
},
{
closed = 1;
nodes = (
"200 30 OFFCURVE",
"178 32 OFFCURVE",
"168 35 CURVE SMOOTH",
"144 42 OFFCURVE",
"123 55 OFFCURVE",
"107 74 CURVE",
"76 119 OFFCURVE",
"74 173 OFFCURVE",
"72 226 CURVE SMOOTH",
"71 249 OFFCURVE",
"69 277 OFFCURVE",
"69 307 CURVE SMOOTH",
"69 383 OFFCURVE",
"83 466 OFFCURVE",
"165 466 CURVE SMOOTH",
"189 466 OFFCURVE",
"224 463 OFFCURVE",
"242 444 CURVE SMOOTH",
"259 426 OFFCURVE",
"270 405 OFFCURVE",
"275 381 CURVE SMOOTH",
"282 347 OFFCURVE",
"282 315 OFFCURVE",
"282 281 CURVE SMOOTH",
"282 230 LINE SMOOTH",
"282 212 OFFCURVE",
"282 195 OFFCURVE",
"281 177 CURVE SMOOTH",
"280 152 OFFCURVE",
"278 126 OFFCURVE",
"274 100 CURVE SMOOTH",
"269 65 OFFCURVE",
"269 61 OFFCURVE",
"241 37 CURVE",
"233 32 OFFCURVE",
"223 30 OFFCURVE",
"213 30 CURVE SMOOTH"
);
}
);
width = 368;
}
);
leftKerningGroup = o;
rightKerningGroup = o;
unicode = 006F;
},
{
glyphname = oslash;
lastChange = "2017-07-23 21:07:22 +0000";
layers = (
{
layerId = "A32222FF-B936-4048-B269-9E41D1D80F08";
paths = (
{
closed = 1;
nodes = (
"229 -15 OFFCURVE",
"240 -13 OFFCURVE",
"251 -9 CURVE",
"270 1 OFFCURVE",
"290 18 OFFCURVE",
"301 35 CURVE SMOOTH",
"315 56 OFFCURVE",
"317 84 OFFCURVE",
"320 109 CURVE SMOOTH",
"327 168 OFFCURVE",
"327 229 OFFCURVE",
"327 288 CURVE SMOOTH",
"327 331 OFFCURVE",
"326 375 OFFCURVE",
"312 415 CURVE SMOOTH",
"302 444 OFFCURVE",
"280 477 OFFCURVE",
"253 493 CURVE SMOOTH",
"225 509 OFFCURVE",
"180 511 OFFCURVE",
"150 511 CURVE SMOOTH",
"99 511 OFFCURVE",
"64 470 OFFCURVE",
"44 427 CURVE SMOOTH",
"28 393 OFFCURVE",
"26 359 OFFCURVE",
"26 323 CURVE SMOOTH",
"26 282 LINE SMOOTH",
"26 229 OFFCURVE",
"28 173 OFFCURVE",
"38 120 CURVE SMOOTH",
"46 77 OFFCURVE",
"71 44 OFFCURVE",
"105 16 CURVE SMOOTH",
"122 2 OFFCURVE",
"144 -4 OFFCURVE",
"166 -10 CURVE SMOOTH",
"177 -13 OFFCURVE",
"201 -15 OFFCURVE",
"216 -15 CURVE SMOOTH"
);
},
{
closed = 1;
nodes = (
"200 30 OFFCURVE",
"178 32 OFFCURVE",
"168 35 CURVE SMOOTH",
"144 42 OFFCURVE",
"123 55 OFFCURVE",
"107 74 CURVE",
"76 119 OFFCURVE",
"74 173 OFFCURVE",
"72 226 CURVE SMOOTH",
"71 249 OFFCURVE",
"69 277 OFFCURVE",
"69 307 CURVE SMOOTH",
"69 383 OFFCURVE",
"83 466 OFFCURVE",
"165 466 CURVE SMOOTH",
"189 466 OFFCURVE",
"224 463 OFFCURVE",
"242 444 CURVE SMOOTH",
"259 426 OFFCURVE",
"270 405 OFFCURVE",
"275 381 CURVE SMOOTH",
"282 347 OFFCURVE",
"282 315 OFFCURVE",
"282 281 CURVE SMOOTH",
"282 230 LINE SMOOTH",
"282 212 OFFCURVE",
"282 195 OFFCURVE",
"281 177 CURVE SMOOTH",
"280 152 OFFCURVE",
"278 126 OFFCURVE",
"274 100 CURVE SMOOTH",
"269 65 OFFCURVE",
"269 61 OFFCURVE",
"241 37 CURVE",
"233 32 OFFCURVE",
"223 30 OFFCURVE",
"213 30 CURVE SMOOTH"
);
},
{
closed = 1;
nodes = (
"138 -71 OFFCURVE",
"137 -30 OFFCURVE",
"139 -15 CURVE SMOOTH",
"142 12 OFFCURVE",
"150 35 OFFCURVE",
"152 57 CURVE SMOOTH",
"156 104 OFFCURVE",
"171 147 OFFCURVE",
"182 190 CURVE SMOOTH",
"193 233 OFFCURVE",
"187 208 OFFCURVE",
"200 252 CURVE SMOOTH",
"205 269 OFFCURVE",
"214 312 OFFCURVE",
"226 357 CURVE SMOOTH",
"238 402 OFFCURVE",
"249 445 OFFCURVE",
"264 488 CURVE",
"270 508 OFFCURVE",
"276 517 OFFCURVE",
"285 535 CURVE SMOOTH",
"287 539 OFFCURVE",
"289 547 OFFCURVE",
"290 551 CURVE SMOOTH",
"293 563 OFFCURVE",
"284 575 OFFCURVE",
"269 575 CURVE SMOOTH",
"250 575 OFFCURVE",
"241 549 OFFCURVE",
"231 523 CURVE",
"221 501 OFFCURVE",
"216 478 OFFCURVE",
"208 455 CURVE SMOOTH",
"193 412 OFFCURVE",
"182 366 OFFCURVE",
"170 319 CURVE SMOOTH",
"148 232 OFFCURVE",
"147 239 OFFCURVE",
"127 151 CURVE SMOOTH",
"117 106 OFFCURVE",
"109 61 OFFCURVE",
"100 16 CURVE SMOOTH",
"96 -3 OFFCURVE",
"96 -24 OFFCURVE",
"90 -45 CURVE",
"85 -60 OFFCURVE",
"103 -71 OFFCURVE",
"114 -71 CURVE SMOOTH"
);
}
);
width = 368;
}
);
leftKerningGroup = o;
leftMetricsKey = "=o";
rightKerningGroup = o;
rightMetricsKey = "=o";
unicode = 00F8;
},
{
glyphname = p;
lastChange = "2017-07-23 21:07:22 +0000";
layers = (
{
layerId = "A32222FF-B936-4048-B269-9E41D1D80F08";
paths = (
{
closed = 1;
nodes = (
"116 -186 OFFCURVE",
"121 -185 OFFCURVE",
"126 -181 CURVE",
"130 -177 OFFCURVE",
"133 -171 OFFCURVE",
"133 -165 CURVE SMOOTH",
"133 -162 OFFCURVE",
"132 -158 OFFCURVE",
"130 -155 CURVE",
"124 -144 OFFCURVE",
"112 -144 OFFCURVE",
"100 -143 CURVE",
"96 -142 OFFCURVE",
"92 -142 OFFCURVE",
"89 -141 CURVE",
"89 -136 OFFCURVE",
"88 -131 OFFCURVE",
"88 -126 CURVE SMOOTH",
"88 -74 OFFCURVE",
"86 -22 OFFCURVE",
"85 30 CURVE",
"85 42 OFFCURVE",
"85 54 OFFCURVE",
"84 66 CURVE",
"91 58 OFFCURVE",
"97 50 OFFCURVE",
"105 43 CURVE SMOOTH",
"133 17 OFFCURVE",
"170 -4 OFFCURVE",
"210 -4 CURVE SMOOTH",
"252 -4 OFFCURVE",
"292 10 OFFCURVE",
"308 51 CURVE SMOOTH",
"323 88 OFFCURVE",
"328 133 OFFCURVE",
"331 174 CURVE SMOOTH",
"332 190 OFFCURVE",
"332 206 OFFCURVE",
"332 222 CURVE SMOOTH",
"332 252 OFFCURVE",
"331 282 OFFCURVE",
"329 312 CURVE SMOOTH",
"326 355 OFFCURVE",
"318 398 OFFCURVE",
"303 439 CURVE SMOOTH",
"291 474 OFFCURVE",
"265 504 OFFCURVE",
"226 504 CURVE",
"203 503 OFFCURVE",
"180 502 OFFCURVE",
"159 492 CURVE SMOOTH",
"137 482 OFFCURVE",
"121 465 OFFCURVE",
"103 449 CURVE SMOOTH",
"94 441 OFFCURVE",
"85 432 OFFCURVE",
"78 423 CURVE",
"78 436 LINE",
"77 446 OFFCURVE",
"76 466 OFFCURVE",
"74 482 CURVE",
"87 483 OFFCURVE",
"97 487 OFFCURVE",
"101 498 CURVE SMOOTH",
"102 501 OFFCURVE",
"103 504 OFFCURVE",
"103 507 CURVE SMOOTH",
"103 529 OFFCURVE",
"68 525 OFFCURVE",
"52 525 CURVE",
"41 526 OFFCURVE",
"22 533 OFFCURVE",
"7 533 CURVE SMOOTH",
"-5 533 OFFCURVE",
"-15 527 OFFCURVE",
"-15 511 CURVE SMOOTH",
"-15 491 OFFCURVE",
"16 487 OFFCURVE",
"31 485 CURVE",
"35 447 LINE SMOOTH",
"36 434 OFFCURVE",
"36 420 OFFCURVE",
"36 406 CURVE SMOOTH",
"36 365 LINE SMOOTH",
"35 332 OFFCURVE",
"33 299 OFFCURVE",
"33 266 CURVE SMOOTH",
"33 248 OFFCURVE",
"33 230 OFFCURVE",
"35 212 CURVE SMOOTH",
"43 110 OFFCURVE",
"46 6 OFFCURVE",
"46 -96 CURVE SMOOTH",
"46 -107 OFFCURVE",
"43 -123 OFFCURVE",
"44 -137 CURVE",
"38 -137 OFFCURVE",
"31 -137 OFFCURVE",
"25 -143 CURVE SMOOTH",
"21 -147 OFFCURVE",
"19 -153 OFFCURVE",
"19 -158 CURVE SMOOTH",
"19 -161 OFFCURVE",
"19 -164 OFFCURVE",
"20 -166 CURVE",
"26 -180 OFFCURVE",
"41 -179 OFFCURVE",
"53 -180 CURVE SMOOTH",
"66 -181 OFFCURVE",
"79 -182 OFFCURVE",
"92 -184 CURVE SMOOTH",
"98 -185 OFFCURVE",
"105 -186 OFFCURVE",
"111 -186 CURVE SMOOTH"
);
},
{
closed = 1;
nodes = (
"178 39 OFFCURVE",
"144 59 OFFCURVE",
"120 88 CURVE SMOOTH",
"108 102 OFFCURVE",
"98 117 OFFCURVE",
"88 133 CURVE",
"81 143 LINE",
"79 192 OFFCURVE",
"76 241 OFFCURVE",
"76 291 CURVE SMOOTH",
"76 306 OFFCURVE",
"77 320 OFFCURVE",
"77 335 CURVE",
"83 355 OFFCURVE",
"93 380 OFFCURVE",
"124 411 CURVE SMOOTH",
"140 427 OFFCURVE",
"158 445 OFFCURVE",
"178 455 CURVE",
"189 459 OFFCURVE",
"204 462 OFFCURVE",
"218 462 CURVE SMOOTH",
"228 462 OFFCURVE",
"237 460 OFFCURVE",
"244 456 CURVE",
"261 441 OFFCURVE",
"266 419 OFFCURVE",
"272 398 CURVE SMOOTH",
"278 374 OFFCURVE",
"283 350 OFFCURVE",
"286 325 CURVE SMOOTH",
"289 293 OFFCURVE",
"290 261 OFFCURVE",
"290 228 CURVE SMOOTH",
"290 212 OFFCURVE",
"290 196 OFFCURVE",
"289 180 CURVE SMOOTH",
"287 155 OFFCURVE",
"283 130 OFFCURVE",
"279 105 CURVE SMOOTH",
"275 83 OFFCURVE",
"271 56 OFFCURVE",
"249 45 CURVE",
"237 41 OFFCURVE",
"226 39 OFFCURVE",
"214 39 CURVE SMOOTH"
);
}
);
width = 373;
}
);
leftKerningGroup = n;
leftMetricsKey = "=n-15";
rightKerningGroup = o;
rightMetricsKey = "=o";
unicode = 0070;
},
{
glyphname = q;
lastChange = "2017-07-23 21:07:22 +0000";
layers = (
{
layerId = "A32222FF-B936-4048-B269-9E41D1D80F08";
paths = (
{
closed = 1;
nodes = (
"315 -176 OFFCURVE",
"336 -173 OFFCURVE",
"343 -165 CURVE",
"346 -161 OFFCURVE",
"346 -154 OFFCURVE",
"346 -150 CURVE SMOOTH",
"346 -137 OFFCURVE",
"320 -135 OFFCURVE",
"308 -135 CURVE SMOOTH",
"308 -135 OFFCURVE",
"305 -94 OFFCURVE",
"306 -75 CURVE SMOOTH",
"310 25 OFFCURVE",
"315 62 OFFCURVE",
"315 161 CURVE SMOOTH",
"315 245 LINE SMOOTH",
"315 293 OFFCURVE",
"316 341 OFFCURVE",
"318 388 CURVE",
"318 398 OFFCURVE",
"319 411 OFFCURVE",
"319 426 CURVE SMOOTH",
"319 447 OFFCURVE",
"318 470 OFFCURVE",
"317 485 CURVE",
"322 485 OFFCURVE",
"326 487 OFFCURVE",
"330 489 CURVE",
"336 493 OFFCURVE",
"339 500 OFFCURVE",
"339 506 CURVE SMOOTH",
"339 515 OFFCURVE",
"333 525 OFFCURVE",
"322 527 CURVE",
"310 530 OFFCURVE",
"297 529 OFFCURVE",
"285 530 CURVE",
"278 531 OFFCURVE",
"269 534 OFFCURVE",
"262 534 CURVE SMOOTH",
"258 534 OFFCURVE",
"254 533 OFFCURVE",
"250 531 CURVE SMOOTH",
"242 527 OFFCURVE",
"239 520 OFFCURVE",
"239 514 CURVE SMOOTH",
"239 504 OFFCURVE",
"248 494 OFFCURVE",
"260 492 CURVE",
"273 489 LINE",
"276 470 LINE",
"276 467 OFFCURVE",
"277 465 OFFCURVE",
"277 462 CURVE",
"244 490 OFFCURVE",
"201 504 OFFCURVE",
"158 504 CURVE SMOOTH",
"149 504 OFFCURVE",
"139 503 OFFCURVE",
"130 502 CURVE",
"83 494 OFFCURVE",
"57 453 OFFCURVE",
"42 411 CURVE SMOOTH",
"25 364 OFFCURVE",
"26 311 OFFCURVE",
"26 261 CURVE SMOOTH",
"26 213 LINE SMOOTH",
"26 132 OFFCURVE",
"33 32 OFFCURVE",
"118 7 CURVE SMOOTH",
"135 2 OFFCURVE",
"153 -1 OFFCURVE",
"171 -1 CURVE SMOOTH",
"200 -1 OFFCURVE",
"228 7 OFFCURVE",
"250 30 CURVE SMOOTH",
"258 38 OFFCURVE",
"265 47 OFFCURVE",
"271 57 CURVE",
"269 9 OFFCURVE",
"264 -38 OFFCURVE",
"264 -86 CURVE SMOOTH",
"264 -102 OFFCURVE",
"265 -117 OFFCURVE",
"266 -133 CURVE",
"266 -137 LINE",
"264 -140 OFFCURVE",
"253 -136 OFFCURVE",
"248 -150 CURVE",
"246 -154 OFFCURVE",
"246 -165 OFFCURVE",
"252 -169 CURVE SMOOTH",
"258 -173 OFFCURVE",
"276 -176 OFFCURVE",
"295 -176 CURVE SMOOTH"
);
},
{
closed = 1;
nodes = (
"157 40 OFFCURVE",
"143 43 OFFCURVE",
"130 47 CURVE SMOOTH",
"104 55 OFFCURVE",
"91 76 OFFCURVE",
"82 100 CURVE SMOOTH",
"69 135 OFFCURVE",
"69 171 OFFCURVE",
"69 208 CURVE SMOOTH",
"69 231 OFFCURVE",
"68 254 OFFCURVE",
"68 276 CURVE SMOOTH",
"68 293 OFFCURVE",
"69 310 OFFCURVE",
"70 327 CURVE SMOOTH",
"73 363 OFFCURVE",
"78 394 OFFCURVE",
"95 426 CURVE SMOOTH",
"110 453 OFFCURVE",
"133 462 OFFCURVE",
"159 462 CURVE SMOOTH",
"168 462 OFFCURVE",
"178 461 OFFCURVE",
"188 459 CURVE SMOOTH",
"218 454 OFFCURVE",
"247 435 OFFCURVE",
"266 412 CURVE SMOOTH",
"276 399 LINE",
"275 363 OFFCURVE",
"275 327 OFFCURVE",
"273 290 CURVE SMOOTH",
"272 264 OFFCURVE",
"272 238 OFFCURVE",
"272 211 CURVE SMOOTH",
"272 132 LINE",
"260 117 OFFCURVE",
"251 104 OFFCURVE",
"244 93 CURVE SMOOTH",
"232 73 OFFCURVE",
"219 51 OFFCURVE",
"196 44 CURVE",
"188 41 OFFCURVE",
"180 40 OFFCURVE",
"171 40 CURVE SMOOTH"
);
}
);
width = 374;
}
);
leftKerningGroup = o;
leftMetricsKey = "=o";
rightKerningGroup = n;
rightMetricsKey = "=n";
unicode = 0071;
},
{
glyphname = r;
lastChange = "2017-07-23 21:07:22 +0000";
layers = (
{
layerId = "A32222FF-B936-4048-B269-9E41D1D80F08";
paths = (
{
closed = 1;
nodes = (
"89 0 OFFCURVE",
"104 2 OFFCURVE",
"115 7 CURVE",
"123 11 OFFCURVE",
"127 18 OFFCURVE",
"127 25 CURVE SMOOTH",
"127 37 OFFCURVE",
"115 50 OFFCURVE",
"100 47 CURVE",
"98 47 OFFCURVE",
"96 47 OFFCURVE",
"95 46 CURVE",
"95 57 LINE",
"94 77 OFFCURVE",
"94 98 OFFCURVE",
"93 119 CURVE",
"93 164 OFFCURVE",
"90 209 OFFCURVE",
"88 254 CURVE SMOOTH",
"87 293 OFFCURVE",
"84 332 OFFCURVE",
"82 371 CURVE",
"102 377 OFFCURVE",
"125 392 OFFCURVE",
"134 397 CURVE",
"166 418 OFFCURVE",
"198 441 OFFCURVE",
"234 453 CURVE",
"238 442 OFFCURVE",
"238 423 OFFCURVE",
"246 414 CURVE SMOOTH",
"251 408 OFFCURVE",
"256 406 OFFCURVE",
"262 406 CURVE SMOOTH",
"271 406 OFFCURVE",
"279 412 OFFCURVE",
"283 421 CURVE",
"284 424 OFFCURVE",
"284 426 OFFCURVE",
"284 430 CURVE SMOOTH",
"284 445 OFFCURVE",
"277 464 OFFCURVE",
"271 476 CURVE SMOOTH",
"264 490 OFFCURVE",
"250 502 OFFCURVE",
"234 498 CURVE SMOOTH",
"197 490 OFFCURVE",
"162 467 OFFCURVE",
"131 446 CURVE",
"116 437 OFFCURVE",
"101 427 OFFCURVE",
"85 418 CURVE",
"85 418 OFFCURVE",
"84 417 OFFCURVE",
"83 417 CURVE",
"83 436 OFFCURVE",
"83 459 OFFCURVE",
"78 475 CURVE",
"89 475 LINE",
"100 476 OFFCURVE",
"110 474 OFFCURVE",
"118 485 CURVE",
"120 488 OFFCURVE",
"121 492 OFFCURVE",
"121 496 CURVE SMOOTH",
"121 502 OFFCURVE",
"119 508 OFFCURVE",
"115 512 CURVE",
"108 517 OFFCURVE",
"100 518 OFFCURVE",
"92 518 CURVE SMOOTH",
"80 518 LINE",
"65 517 OFFCURVE",
"50 515 OFFCURVE",
"35 513 CURVE SMOOTH",
"23 511 OFFCURVE",
"10 512 OFFCURVE",
"3 500 CURVE",
"1 497 OFFCURVE",
"0 493 OFFCURVE",
"0 490 CURVE SMOOTH",
"0 482 OFFCURVE",
"4 475 OFFCURVE",
"11 471 CURVE",
"15 469 OFFCURVE",
"20 469 OFFCURVE",
"25 469 CURVE SMOOTH",
"29 469 OFFCURVE",
"33 469 OFFCURVE",
"37 470 CURVE",
"37 463 OFFCURVE",
"38 456 OFFCURVE",
"38 450 CURVE",
"39 429 OFFCURVE",
"39 409 OFFCURVE",
"39 389 CURVE",
"41 343 OFFCURVE",
"44 297 OFFCURVE",
"45 251 CURVE SMOOTH",
"47 209 OFFCURVE",
"50 166 OFFCURVE",
"51 124 CURVE SMOOTH",
"51 103 OFFCURVE",
"52 83 OFFCURVE",
"52 62 CURVE SMOOTH",
"52 57 OFFCURVE",
"52 51 OFFCURVE",
"53 45 CURVE",
"45 46 OFFCURVE",
"38 46 OFFCURVE",
"32 43 CURVE SMOOTH",
"24 39 OFFCURVE",
"21 33 OFFCURVE",
"21 26 CURVE SMOOTH",
"21 16 OFFCURVE",
"31 5 OFFCURVE",
"43 3 CURVE",
"52 1 OFFCURVE",
"63 0 OFFCURVE",
"75 0 CURVE SMOOTH"
);
}
);
width = 284;
}
);
leftKerningGroup = n;
leftMetricsKey = "=n";
unicode = 0072;
},
{
glyphname = s;
lastChange = "2017-07-23 21:07:22 +0000";
layers = (
{
layerId = "A32222FF-B936-4048-B269-9E41D1D80F08";
paths = (
{
closed = 1;
nodes = (
"205 0 OFFCURVE",
"246 16 OFFCURVE",
"271 44 CURVE SMOOTH",
"287 63 OFFCURVE",
"293 87 OFFCURVE",
"293 112 CURVE SMOOTH",
"293 131 OFFCURVE",
"289 151 OFFCURVE",
"286 168 CURVE",
"277 210 OFFCURVE",
"257 254 OFFCURVE",
"214 268 CURVE SMOOTH",
"191 275 OFFCURVE",
"171 275 OFFCURVE",
"148 276 CURVE",
"130 278 OFFCURVE",
"107 280 OFFCURVE",
"94 294 CURVE",
"83 311 OFFCURVE",
"77 335 OFFCURVE",
"77 359 CURVE SMOOTH",
"77 382 OFFCURVE",
"82 404 OFFCURVE",
"92 421 CURVE SMOOTH",
"102 437 OFFCURVE",
"114 457 OFFCURVE",
"134 462 CURVE",
"139 464 OFFCURVE",
"145 464 OFFCURVE",
"151 464 CURVE SMOOTH",
"169 464 OFFCURVE",
"187 459 OFFCURVE",
"202 452 CURVE",
"211 447 OFFCURVE",
"221 443 OFFCURVE",
"230 437 CURVE",
"234 434 LINE",
"218 421 LINE SMOOTH",
"213 417 OFFCURVE",
"212 412 OFFCURVE",
"212 408 CURVE SMOOTH",
"212 397 OFFCURVE",
"222 386 OFFCURVE",
"233 386 CURVE SMOOTH",
"244 386 OFFCURVE",
"256 398 OFFCURVE",
"265 406 CURVE",
"276 414 OFFCURVE",
"286 423 OFFCURVE",
"297 430 CURVE",
"304 434 OFFCURVE",
"307 441 OFFCURVE",
"307 448 CURVE SMOOTH",
"307 458 OFFCURVE",
"299 469 OFFCURVE",
"288 469 CURVE SMOOTH",
"284 469 OFFCURVE",
"281 468 OFFCURVE",
"277 465 CURVE",
"274 464 OFFCURVE",
"272 462 OFFCURVE",
"269 460 CURVE",
"259 468 OFFCURVE",
"246 475 OFFCURVE",
"236 480 CURVE SMOOTH",
"213 491 OFFCURVE",
"192 500 OFFCURVE",
"166 503 CURVE SMOOTH",
"157 504 OFFCURVE",
"147 504 OFFCURVE",
"138 504 CURVE",
"96 502 OFFCURVE",
"64 463 OFFCURVE",
"49 427 CURVE SMOOTH",
"41 407 OFFCURVE",
"37 383 OFFCURVE",
"37 359 CURVE SMOOTH",
"37 335 OFFCURVE",
"41 312 OFFCURVE",
"49 293 CURVE SMOOTH",
"68 249 OFFCURVE",
"108 238 OFFCURVE",
"152 236 CURVE SMOOTH",
"172 235 OFFCURVE",
"195 236 OFFCURVE",
"213 225 CURVE",
"231 208 OFFCURVE",
"239 187 OFFCURVE",
"245 164 CURVE SMOOTH",
"250 142 OFFCURVE",
"252 119 OFFCURVE",
"251 97 CURVE SMOOTH",
"250 73 OFFCURVE",
"228 56 OFFCURVE",
"207 49 CURVE SMOOTH",
"194 45 OFFCURVE",
"179 41 OFFCURVE",
"165 41 CURVE SMOOTH",
"157 41 OFFCURVE",
"149 42 OFFCURVE",
"142 45 CURVE",
"122 55 OFFCURVE",
"101 67 OFFCURVE",
"88 86 CURVE",
"84 94 OFFCURVE",
"80 106 OFFCURVE",
"75 115 CURVE",
"81 117 OFFCURVE",
"86 120 OFFCURVE",
"92 122 CURVE",
"101 127 OFFCURVE",
"106 135 OFFCURVE",
"106 142 CURVE SMOOTH",
"106 153 OFFCURVE",
"98 162 OFFCURVE",
"87 162 CURVE SMOOTH",
"83 162 OFFCURVE",
"80 162 OFFCURVE",
"76 160 CURVE SMOOTH",
"55 150 OFFCURVE",
"33 144 OFFCURVE",
"12 135 CURVE",
"4 132 OFFCURVE",
"0 125 OFFCURVE",
"0 118 CURVE SMOOTH",
"0 107 OFFCURVE",
"9 95 OFFCURVE",
"22 96 CURVE",
"27 97 OFFCURVE",
"32 98 OFFCURVE",
"38 101 CURVE",
"40 93 OFFCURVE",
"43 86 OFFCURVE",
"45 81 CURVE",
"63 42 OFFCURVE",
"106 7 OFFCURVE",
"150 1 CURVE SMOOTH",
"156 0 OFFCURVE",
"161 0 OFFCURVE",
"167 0 CURVE SMOOTH"
);
}
);
width = 327;
}
);
leftKerningGroup = o;
unicode = 0073;
},
{
glyphname = t;
lastChange = "2017-07-23 21:07:22 +0000";
layers = (
{
layerId = "A32222FF-B936-4048-B269-9E41D1D80F08";
paths = (
{
closed = 1;
nodes = (
"191 -10 OFFCURVE",
"194 -10 OFFCURVE",
"197 -9 CURVE",
"212 -7 OFFCURVE",
"242 6 OFFCURVE",
"246 22 CURVE",
"251 39 OFFCURVE",
"239 47 OFFCURVE",
"226 47 CURVE SMOOTH",
"220 47 OFFCURVE",
"215 46 OFFCURVE",
"210 43 CURVE SMOOTH",
"203 39 OFFCURVE",
"195 33 OFFCURVE",
"187 33 CURVE SMOOTH",
"185 33 OFFCURVE",
"184 33 OFFCURVE",
"182 34 CURVE",
"173 39 OFFCURVE",
"162 43 OFFCURVE",
"153 49 CURVE",
"135 65 OFFCURVE",
"131 89 OFFCURVE",
"127 112 CURVE SMOOTH",
"118 162 OFFCURVE",
"121 216 OFFCURVE",
"118 266 CURVE SMOOTH",
"116 301 OFFCURVE",
"116 336 OFFCURVE",
"114 371 CURVE SMOOTH",
"112 400 OFFCURVE",
"110 429 OFFCURVE",
"109 458 CURVE",
"170 458 LINE SMOOTH",
"187 458 OFFCURVE",
"218 453 OFFCURVE",
"222 476 CURVE",
"227 498 OFFCURVE",
"205 501 OFFCURVE",
"189 501 CURVE",
"167 500 OFFCURVE",
"145 501 OFFCURVE",
"123 501 CURVE SMOOTH",
"107 501 LINE",
"106 528 OFFCURVE",
"103 555 OFFCURVE",
"101 582 CURVE SMOOTH",
"100 600 OFFCURVE",
"104 657 OFFCURVE",
"76 657 CURVE SMOOTH",
"58 657 OFFCURVE",
"54 646 OFFCURVE",
"54 633 CURVE SMOOTH",
"54 623 OFFCURVE",
"57 611 OFFCURVE",
"58 602 CURVE SMOOTH",
"61 575 OFFCURVE",
"62 548 OFFCURVE",
"63 522 CURVE",
"64 515 OFFCURVE",
"64 508 OFFCURVE",
"64 502 CURVE",
"57 502 LINE",
"48 503 OFFCURVE",
"34 508 OFFCURVE",
"22 508 CURVE SMOOTH",
"11 508 OFFCURVE",
"0 504 OFFCURVE",
"0 487 CURVE SMOOTH",
"0 464 OFFCURVE",
"37 459 OFFCURVE",
"67 458 CURVE",
"68 429 OFFCURVE",
"70 399 OFFCURVE",
"71 370 CURVE SMOOTH",
"73 319 OFFCURVE",
"76 268 OFFCURVE",
"78 217 CURVE SMOOTH",
"80 167 OFFCURVE",
"76 113 OFFCURVE",
"94 65 CURVE SMOOTH",
"102 43 OFFCURVE",
"113 24 OFFCURVE",
"133 11 CURVE SMOOTH",
"149 1 OFFCURVE",
"169 -10 OFFCURVE",
"188 -10 CURVE SMOOTH"
);
}
);
width = 248;
}
);
leftKerningGroup = t;
leftMetricsKey = "=n";
rightKerningGroup = t;
unicode = 0074;
},
{
glyphname = u;
lastChange = "2017-07-23 21:07:22 +0000";
layers = (
{
layerId = "A32222FF-B936-4048-B269-9E41D1D80F08";
paths = (
{
closed = 1;
nodes = (
"251 0 OFFCURVE",
"273 34 OFFCURVE",
"289 70 CURVE SMOOTH",
"305 109 OFFCURVE",
"307 150 OFFCURVE",
"310 192 CURVE SMOOTH",
"313 234 OFFCURVE",
"313 276 OFFCURVE",
"313 319 CURVE SMOOTH",
"313 368 OFFCURVE",
"311 419 OFFCURVE",
"311 468 CURVE SMOOTH",
"311 479 LINE",
"317 480 OFFCURVE",
"325 481 OFFCURVE",
"331 483 CURVE",
"341 487 OFFCURVE",
"345 496 OFFCURVE",
"345 504 CURVE SMOOTH",
"345 516 OFFCURVE",
"337 529 OFFCURVE",
"323 528 CURVE SMOOTH",
"301 526 OFFCURVE",
"281 521 OFFCURVE",
"261 521 CURVE SMOOTH",
"257 521 OFFCURVE",
"252 521 OFFCURVE",
"248 522 CURVE",
"233 522 OFFCURVE",
"225 512 OFFCURVE",
"225 502 CURVE SMOOTH",
"225 490 OFFCURVE",
"234 478 OFFCURVE",
"248 476 CURVE",
"253 475 OFFCURVE",
"259 475 OFFCURVE",
"264 475 CURVE",
"264 473 OFFCURVE",
"265 450 OFFCURVE",
"265 437 CURVE SMOOTH",
"265 408 OFFCURVE",
"267 379 OFFCURVE",
"267 350 CURVE SMOOTH",
"267 292 OFFCURVE",
"267 234 OFFCURVE",
"263 176 CURVE SMOOTH",
"261 150 OFFCURVE",
"260 123 OFFCURVE",
"250 98 CURVE",
"243 78 OFFCURVE",
"232 46 OFFCURVE",
"207 46 CURVE",
"182 47 OFFCURVE",
"161 53 OFFCURVE",
"144 72 CURVE",
"129 94 OFFCURVE",
"121 119 OFFCURVE",
"110 143 CURVE SMOOTH",
"88 190 OFFCURVE",
"89 247 OFFCURVE",
"83 298 CURVE SMOOTH",
"81 315 OFFCURVE",
"81 332 OFFCURVE",
"81 348 CURVE SMOOTH",
"81 386 OFFCURVE",
"84 424 OFFCURVE",
"83 461 CURVE",
"83 467 LINE",
"88 467 OFFCURVE",
"94 467 OFFCURVE",
"99 468 CURVE",
"110 471 OFFCURVE",
"115 479 OFFCURVE",
"115 487 CURVE SMOOTH",
"115 499 OFFCURVE",
"106 511 OFFCURVE",
"92 513 CURVE SMOOTH",
"79 515 OFFCURVE",
"66 516 OFFCURVE",
"54 516 CURVE SMOOTH",
"41 516 OFFCURVE",
"28 515 OFFCURVE",
"15 513 CURVE SMOOTH",
"4 511 OFFCURVE",
"-1 502 OFFCURVE",
"-1 492 CURVE SMOOTH",
"-1 480 OFFCURVE",
"7 467 OFFCURVE",
"21 468 CURVE",
"35 468 LINE",
"36 457 OFFCURVE",
"37 446 OFFCURVE",
"37 438 CURVE SMOOTH",
"37 413 OFFCURVE",
"36 388 OFFCURVE",
"36 363 CURVE SMOOTH",
"36 334 OFFCURVE",
"37 305 OFFCURVE",
"40 276 CURVE SMOOTH",
"45 235 OFFCURVE",
"44 190 OFFCURVE",
"57 151 CURVE SMOOTH",
"63 132 OFFCURVE",
"72 115 OFFCURVE",
"80 97 CURVE",
"87 79 OFFCURVE",
"96 60 OFFCURVE",
"108 44 CURVE",
"133 13 OFFCURVE",
"169 0 OFFCURVE",
"207 0 CURVE SMOOTH"
);
}
);
width = 386;
}
);
leftKerningGroup = o;
rightKerningGroup = o;
unicode = 0075;
},
{
glyphname = v;
lastChange = "2017-07-23 21:07:22 +0000";
layers = (
{
layerId = "A32222FF-B936-4048-B269-9E41D1D80F08";
paths = (
{
closed = 1;
nodes = (
"177 7 OFFCURVE",
"182 28 OFFCURVE",
"187 42 CURVE SMOOTH",
"200 78 OFFCURVE",
"204 117 OFFCURVE",
"214 153 CURVE SMOOTH",
"224 192 OFFCURVE",
"235 230 OFFCURVE",
"241 269 CURVE SMOOTH",
"252 336 OFFCURVE",
"254 369 OFFCURVE",
"267 433 CURVE SMOOTH",
"269 442 OFFCURVE",
"272 457 OFFCURVE",
"274 470 CURVE",
"285 471 OFFCURVE",
"294 476 OFFCURVE",
"297 488 CURVE",
"302 512 OFFCURVE",
"275 513 OFFCURVE",
"259 514 CURVE",
"249 514 OFFCURVE",
"233 519 OFFCURVE",
"220 519 CURVE SMOOTH",
"210 519 OFFCURVE",
"201 516 OFFCURVE",
"198 504 CURVE SMOOTH",
"192 482 OFFCURVE",
"215 476 OFFCURVE",
"232 473 CURVE",
"230 466 OFFCURVE",
"215 385 OFFCURVE",
"211 358 CURVE",
"210 354 OFFCURVE",
"205 313 OFFCURVE",
"203 298 CURVE",
"197 265 LINE SMOOTH",
"193 244 OFFCURVE",
"189 224 OFFCURVE",
"184 204 CURVE SMOOTH",
"173 162 OFFCURVE",
"163 120 OFFCURVE",
"153 78 CURVE",
"125 156 OFFCURVE",
"106 236 OFFCURVE",
"92 318 CURVE SMOOTH",
"85 359 OFFCURVE",
"79 401 OFFCURVE",
"76 443 CURVE",
"75 450 OFFCURVE",
"76 460 OFFCURVE",
"75 469 CURVE",
"96 469 LINE SMOOTH",
"109 469 OFFCURVE",
"117 479 OFFCURVE",
"117 490 CURVE SMOOTH",
"117 501 OFFCURVE",
"109 512 OFFCURVE",
"89 512 CURVE SMOOTH",
"76 512 LINE",
"61 511 OFFCURVE",
"45 511 OFFCURVE",
"29 510 CURVE SMOOTH",
"16 509 OFFCURVE",
"8 499 OFFCURVE",
"8 488 CURVE SMOOTH",
"8 482 OFFCURVE",
"11 475 OFFCURVE",
"17 471 CURVE",
"21 468 OFFCURVE",
"26 467 OFFCURVE",
"31 467 CURVE",
"36 393 OFFCURVE",
"47 319 OFFCURVE",
"61 246 CURVE SMOOTH",
"67 211 OFFCURVE",
"79 177 OFFCURVE",
"89 143 CURVE SMOOTH",
"101 103 OFFCURVE",
"111 63 OFFCURVE",
"128 24 CURVE SMOOTH",
"134 11 OFFCURVE",
"144 -5 OFFCURVE",
"162 1 CURVE"
);
}
);
width = 342;
}
);
unicode = 0076;
},
{
glyphname = w;
lastChange = "2017-07-23 21:07:22 +0000";
layers = (
{
layerId = "A32222FF-B936-4048-B269-9E41D1D80F08";
paths = (
{
closed = 1;
nodes = (
"311 -8 OFFCURVE",
"318 -4 OFFCURVE",
"326 5 CURVE SMOOTH",
"350 32 OFFCURVE",
"351 82 OFFCURVE",
"355 116 CURVE SMOOTH",
"360 161 OFFCURVE",
"363 205 OFFCURVE",
"366 250 CURVE SMOOTH",
"370 296 OFFCURVE",
"374 342 OFFCURVE",
"382 387 CURVE SMOOTH",
"386 414 OFFCURVE",
"392 456 OFFCURVE",
"393 457 CURVE",
"400 458 OFFCURVE",
"407 459 OFFCURVE",
"413 462 CURVE",
"419 466 OFFCURVE",
"422 473 OFFCURVE",
"422 480 CURVE SMOOTH",
"422 491 OFFCURVE",
"414 502 OFFCURVE",
"401 502 CURVE SMOOTH",
"384 502 OFFCURVE",
"368 500 OFFCURVE",
"348 500 CURVE SMOOTH",
"340 500 OFFCURVE",
"332 500 OFFCURVE",
"326 495 CURVE",
"320 491 OFFCURVE",
"317 484 OFFCURVE",
"317 477 CURVE SMOOTH",
"317 466 OFFCURVE",
"325 455 OFFCURVE",
"338 455 CURVE SMOOTH",
"348 455 LINE",
"348 447 OFFCURVE",
"341 407 OFFCURVE",
"337 382 CURVE SMOOTH",
"332 345 OFFCURVE",
"328 308 OFFCURVE",
"325 270 CURVE SMOOTH",
"318 197 OFFCURVE",
"319 121 OFFCURVE",
"300 49 CURVE",
"279 84 OFFCURVE",
"270 125 OFFCURVE",
"256 162 CURVE",
"251 177 OFFCURVE",
"245 201 OFFCURVE",
"226 201 CURVE SMOOTH",
"210 201 OFFCURVE",
"206 192 OFFCURVE",
"206 182 CURVE SMOOTH",
"206 177 OFFCURVE",
"207 172 OFFCURVE",
"208 167 CURVE",
"205 161 OFFCURVE",
"204 154 OFFCURVE",
"202 148 CURVE",
"193 114 OFFCURVE",
"184 80 OFFCURVE",
"173 48 CURVE",
"158 72 OFFCURVE",
"156 102 OFFCURVE",
"151 130 CURVE SMOOTH",
"145 158 OFFCURVE",
"139 187 OFFCURVE",
"134 215 CURVE SMOOTH",
"123 276 OFFCURVE",
"117 337 OFFCURVE",
"108 398 CURVE",
"110 387 OFFCURVE",
"107 407 OFFCURVE",
"107 407 CURVE",
"104 424 LINE",
"103 434 OFFCURVE",
"102 443 OFFCURVE",
"100 452 CURVE",
"106 452 LINE SMOOTH",
"119 452 OFFCURVE",
"127 463 OFFCURVE",
"127 474 CURVE SMOOTH",
"127 485 OFFCURVE",
"119 497 OFFCURVE",
"99 497 CURVE SMOOTH",
"93 497 OFFCURVE",
"87 496 OFFCURVE",
"82 496 CURVE SMOOTH",
"67 496 OFFCURVE",
"53 495 OFFCURVE",
"38 495 CURVE",
"25 494 OFFCURVE",
"16 483 OFFCURVE",
"16 472 CURVE SMOOTH",
"16 466 OFFCURVE",
"19 459 OFFCURVE",
"26 455 CURVE",
"30 452 OFFCURVE",
"35 451 OFFCURVE",
"41 451 CURVE SMOOTH",
"46 451 OFFCURVE",
"51 452 OFFCURVE",
"56 452 CURVE",
"66 387 LINE",
"71 351 LINE",
"73 342 OFFCURVE",
"74 333 OFFCURVE",
"75 325 CURVE SMOOTH",
"77 307 OFFCURVE",
"79 289 OFFCURVE",
"82 271 CURVE SMOOTH",
"87 235 OFFCURVE",
"92 200 OFFCURVE",
"99 164 CURVE SMOOTH",
"117 70 LINE SMOOTH",
"123 42 OFFCURVE",
"139 7 OFFCURVE",
"169 0 CURVE SMOOTH",
"173 -1 OFFCURVE",
"176 -1 OFFCURVE",
"179 -1 CURVE SMOOTH",
"206 -1 OFFCURVE",
"215 36 OFFCURVE",
"221 58 CURVE",
"233 96 LINE",
"250 48 OFFCURVE",
"275 -8 OFFCURVE",
"303 -8 CURVE SMOOTH"
);
}
);
width = 446;
}
);
unicode = 0077;
},
{
glyphname = x;
lastChange = "2017-07-23 21:07:22 +0000";
layers = (
{
layerId = "A32222FF-B936-4048-B269-9E41D1D80F08";
paths = (
{
closed = 1;
nodes = (
"62 -11 OFFCURVE",
"79 -9 OFFCURVE",
"94 -6 CURVE SMOOTH",
"104 -4 OFFCURVE",
"109 6 OFFCURVE",
"109 15 CURVE SMOOTH",
"109 24 OFFCURVE",
"104 33 OFFCURVE",
"95 35 CURVE",
"98 40 OFFCURVE",
"100 45 OFFCURVE",
"102 49 CURVE",
"115 71 OFFCURVE",
"125 94 OFFCURVE",
"136 117 CURVE SMOOTH",
"147 141 OFFCURVE",
"159 167 OFFCURVE",
"170 192 CURVE",
"182 167 OFFCURVE",
"194 142 OFFCURVE",
"205 117 CURVE SMOOTH",
"215 95 OFFCURVE",
"230 74 OFFCURVE",
"242 53 CURVE SMOOTH",
"245 48 OFFCURVE",
"248 40 OFFCURVE",
"252 34 CURVE",
"237 33 OFFCURVE",
"223 29 OFFCURVE",
"223 12 CURVE SMOOTH",
"223 -16 OFFCURVE",
"264 -10 OFFCURVE",
"281 -10 CURVE SMOOTH",
"288 -10 OFFCURVE",
"298 -11 OFFCURVE",
"308 -11 CURVE SMOOTH",
"326 -11 OFFCURVE",
"345 -8 OFFCURVE",
"345 11 CURVE SMOOTH",
"345 36 OFFCURVE",
"316 34 OFFCURVE",
"299 33 CURVE",
"296 40 OFFCURVE",
"291 49 OFFCURVE",
"288 56 CURVE SMOOTH",
"278 78 OFFCURVE",
"264 99 OFFCURVE",
"251 120 CURVE SMOOTH",
"239 138 OFFCURVE",
"232 159 OFFCURVE",
"223 179 CURVE",
"215 201 OFFCURVE",
"204 222 OFFCURVE",
"193 242 CURVE",
"199 258 LINE SMOOTH",
"218 305 OFFCURVE",
"239 350 OFFCURVE",
"258 397 CURVE SMOOTH",
"267 418 OFFCURVE",
"278 439 OFFCURVE",
"284 459 CURVE",
"286 463 OFFCURVE",
"287 468 OFFCURVE",
"288 472 CURVE",
"296 474 OFFCURVE",
"304 476 OFFCURVE",
"308 482 CURVE",
"310 486 OFFCURVE",
"311 490 OFFCURVE",
"311 493 CURVE SMOOTH",
"311 505 OFFCURVE",
"303 515 OFFCURVE",
"290 515 CURVE SMOOTH",
"273 515 OFFCURVE",
"238 516 OFFCURVE",
"226 502 CURVE",
"222 498 OFFCURVE",
"221 494 OFFCURVE",
"221 489 CURVE SMOOTH",
"221 484 OFFCURVE",
"222 480 OFFCURVE",
"225 476 CURVE SMOOTH",
"230 469 OFFCURVE",
"236 468 OFFCURVE",
"243 468 CURVE",
"242 464 OFFCURVE",
"205 376 OFFCURVE",
"205 375 CURVE",
"193 345 OFFCURVE",
"180 316 OFFCURVE",
"167 287 CURVE",
"154 308 LINE SMOOTH",
"140 331 OFFCURVE",
"131 354 OFFCURVE",
"120 378 CURVE",
"113 398 OFFCURVE",
"105 419 OFFCURVE",
"94 438 CURVE SMOOTH",
"89 447 OFFCURVE",
"82 457 OFFCURVE",
"76 467 CURVE",
"73 473 LINE",
"79 476 LINE",
"83 480 OFFCURVE",
"85 485 OFFCURVE",
"85 490 CURVE SMOOTH",
"85 501 OFFCURVE",
"77 512 OFFCURVE",
"66 512 CURVE SMOOTH",
"64 512 LINE SMOOTH",
"52 512 OFFCURVE",
"40 511 OFFCURVE",
"28 512 CURVE",
"23 512 OFFCURVE",
"18 513 OFFCURVE",
"13 513 CURVE SMOOTH",
"7 513 OFFCURVE",
"2 512 OFFCURVE",
"-3 507 CURVE SMOOTH",
"-7 503 OFFCURVE",
"-9 497 OFFCURVE",
"-9 492 CURVE SMOOTH",
"-9 489 OFFCURVE",
"-9 486 OFFCURVE",
"-8 484 CURVE",
"-3 473 OFFCURVE",
"7 472 OFFCURVE",
"17 470 CURVE",
"25 470 LINE",
"29 463 OFFCURVE",
"34 456 OFFCURVE",
"37 450 CURVE",
"50 430 OFFCURVE",
"63 408 OFFCURVE",
"73 385 CURVE SMOOTH",
"83 363 OFFCURVE",
"92 340 OFFCURVE",
"101 319 CURVE SMOOTH",
"111 296 OFFCURVE",
"125 275 OFFCURVE",
"138 254 CURVE",
"140 249 OFFCURVE",
"143 244 OFFCURVE",
"146 239 CURVE",
"126 193 OFFCURVE",
"106 146 OFFCURVE",
"83 102 CURVE SMOOTH",
"72 80 OFFCURVE",
"60 59 OFFCURVE",
"48 39 CURVE",
"45 33 LINE",
"40 34 OFFCURVE",
"35 34 OFFCURVE",
"30 34 CURVE SMOOTH",
"26 34 OFFCURVE",
"22 34 OFFCURVE",
"19 33 CURVE",
"9 31 OFFCURVE",
"3 22 OFFCURVE",
"3 13 CURVE SMOOTH",
"3 3 OFFCURVE",
"9 -6 OFFCURVE",
"19 -8 CURVE SMOOTH",
"28 -10 OFFCURVE",
"37 -11 OFFCURVE",
"46 -11 CURVE SMOOTH"
);
}
);
width = 345;
}
);
unicode = 0078;
},
{
glyphname = y;
lastChange = "2017-07-23 21:07:22 +0000";
layers = (
{
layerId = "A32222FF-B936-4048-B269-9E41D1D80F08";
paths = (
{
closed = 1;
nodes = (
"75 -195 OFFCURVE",
"86 -188 OFFCURVE",
"86 -174 CURVE SMOOTH",
"86 -166 OFFCURVE",
"86 -159 OFFCURVE",
"85 -154 CURVE",
"97 -153 OFFCURVE",
"113 -153 OFFCURVE",
"122 -153 CURVE SMOOTH",
"156 -153 LINE SMOOTH",
"195 -153 OFFCURVE",
"237 -151 OFFCURVE",
"269 -130 CURVE SMOOTH",
"314 -100 OFFCURVE",
"318 -38 OFFCURVE",
"318 15 CURVE SMOOTH",
"318 388 LINE SMOOTH",
"318 411 OFFCURVE",
"316 436 OFFCURVE",
"322 459 CURVE",
"342 458 OFFCURVE",
"366 459 OFFCURVE",
"366 480 CURVE SMOOTH",
"366 500 OFFCURVE",
"346 504 OFFCURVE",
"328 504 CURVE SMOOTH",
"319 504 OFFCURVE",
"310 503 OFFCURVE",
"304 503 CURVE SMOOTH",
"297 503 OFFCURVE",
"285 505 OFFCURVE",
"274 505 CURVE SMOOTH",
"259 505 OFFCURVE",
"244 501 OFFCURVE",
"244 483 CURVE SMOOTH",
"244 466 OFFCURVE",
"261 461 OFFCURVE",
"277 460 CURVE",
"275 449 OFFCURVE",
"275 437 OFFCURVE",
"275 429 CURVE",
"274 401 OFFCURVE",
"274 372 OFFCURVE",
"274 344 CURVE SMOOTH",
"274 129 LINE",
"271 126 LINE",
"248 109 OFFCURVE",
"234 91 OFFCURVE",
"215 74 CURVE",
"197 59 OFFCURVE",
"177 43 OFFCURVE",
"152 45 CURVE",
"126 50 OFFCURVE",
"121 69 OFFCURVE",
"113 93 CURVE",
"105 114 OFFCURVE",
"97 136 OFFCURVE",
"93 158 CURVE",
"87 185 OFFCURVE",
"86 214 OFFCURVE",
"83 242 CURVE SMOOTH",
"78 292 OFFCURVE",
"71 342 OFFCURVE",
"71 392 CURVE SMOOTH",
"71 413 OFFCURVE",
"72 434 OFFCURVE",
"73 457 CURVE",
"80 456 OFFCURVE",
"88 456 OFFCURVE",
"97 456 CURVE SMOOTH",
"115 456 OFFCURVE",
"132 459 OFFCURVE",
"132 478 CURVE SMOOTH",
"132 508 OFFCURVE",
"88 500 OFFCURVE",
"70 501 CURVE",
"61 501 OFFCURVE",
"47 503 OFFCURVE",
"34 503 CURVE SMOOTH",
"16 503 OFFCURVE",
"0 499 OFFCURVE",
"0 481 CURVE SMOOTH",
"0 465 OFFCURVE",
"13 460 OFFCURVE",
"28 458 CURVE",
"27 453 OFFCURVE",
"27 448 OFFCURVE",
"27 442 CURVE SMOOTH",
"27 431 OFFCURVE",
"28 420 OFFCURVE",
"28 413 CURVE SMOOTH",
"27 383 OFFCURVE",
"29 356 OFFCURVE",
"32 326 CURVE SMOOTH",
"36 272 OFFCURVE",
"39 216 OFFCURVE",
"48 162 CURVE SMOOTH",
"51 140 OFFCURVE",
"60 117 OFFCURVE",
"67 95 CURVE SMOOTH",
"74 72 OFFCURVE",
"80 46 OFFCURVE",
"96 26 CURVE",
"112 9 OFFCURVE",
"132 1 OFFCURVE",
"153 1 CURVE SMOOTH",
"177 1 OFFCURVE",
"201 10 OFFCURVE",
"221 24 CURVE",
"235 35 OFFCURVE",
"262 59 OFFCURVE",
"274 73 CURVE",
"274 48 OFFCURVE",
"275 22 OFFCURVE",
"274 -2 CURVE SMOOTH",
"273 -29 OFFCURVE",
"271 -56 OFFCURVE",
"257 -80 CURVE SMOOTH",
"246 -99 OFFCURVE",
"221 -104 OFFCURVE",
"199 -107 CURVE SMOOTH",
"172 -110 OFFCURVE",
"143 -109 OFFCURVE",
"116 -110 CURVE",
"83 -110 LINE",
"82 -102 OFFCURVE",
"82 -92 OFFCURVE",
"81 -82 CURVE SMOOTH",
"80 -68 OFFCURVE",
"69 -61 OFFCURVE",
"58 -61 CURVE SMOOTH",
"47 -61 OFFCURVE",
"37 -68 OFFCURVE",
"37 -82 CURVE",
"39 -112 OFFCURVE",
"42 -143 OFFCURVE",
"42 -174 CURVE",
"43 -188 OFFCURVE",
"54 -195 OFFCURVE",
"64 -195 CURVE SMOOTH"
);
}
);
width = 404;
}
);
leftMetricsKey = "=n";
rightMetricsKey = "=n+10";
unicode = 0079;
},
{
glyphname = z;
lastChange = "2017-07-23 21:07:22 +0000";
layers = (
{
layerId = "A32222FF-B936-4048-B269-9E41D1D80F08";
paths = (
{
closed = 1;
nodes = (
"129 -11 OFFCURVE",
"174 1 OFFCURVE",
"221 2 CURVE SMOOTH",
"228 2 OFFCURVE",
"236 1 OFFCURVE",
"244 1 CURVE SMOOTH",
"257 1 OFFCURVE",
"270 3 OFFCURVE",
"279 14 CURVE",
"287 25 OFFCURVE",
"289 38 OFFCURVE",
"289 51 CURVE SMOOTH",
"289 58 OFFCURVE",
"289 66 OFFCURVE",
"288 73 CURVE SMOOTH",
"286 88 OFFCURVE",
"282 109 OFFCURVE",
"264 109 CURVE SMOOTH",
"247 109 OFFCURVE",
"242 100 OFFCURVE",
"242 90 CURVE SMOOTH",
"242 81 OFFCURVE",
"246 70 OFFCURVE",
"246 62 CURVE",
"247 59 OFFCURVE",
"247 56 OFFCURVE",
"247 53 CURVE SMOOTH",
"247 50 OFFCURVE",
"247 47 OFFCURVE",
"246 44 CURVE",
"231 44 LINE SMOOTH",
"219 44 OFFCURVE",
"208 44 OFFCURVE",
"197 43 CURVE SMOOTH",
"171 41 OFFCURVE",
"147 35 OFFCURVE",
"121 33 CURVE SMOOTH",
"112 32 OFFCURVE",
"102 31 OFFCURVE",
"92 31 CURVE SMOOTH",
"85 31 OFFCURVE",
"78 32 OFFCURVE",
"71 32 CURVE",
"94 72 OFFCURVE",
"116 115 OFFCURVE",
"142 153 CURVE SMOOTH",
"160 181 OFFCURVE",
"177 209 OFFCURVE",
"193 238 CURVE",
"202 238 OFFCURVE",
"209 239 OFFCURVE",
"218 239 CURVE",
"231 240 OFFCURVE",
"252 238 OFFCURVE",
"262 248 CURVE SMOOTH",
"266 252 OFFCURVE",
"268 257 OFFCURVE",
"268 262 CURVE SMOOTH",
"268 268 OFFCURVE",
"266 273 OFFCURVE",
"262 278 CURVE",
"257 283 OFFCURVE",
"249 284 OFFCURVE",
"240 284 CURVE SMOOTH",
"227 284 OFFCURVE",
"215 281 OFFCURVE",
"214 281 CURVE",
"234 328 OFFCURVE",
"259 370 OFFCURVE",
"282 416 CURVE SMOOTH",
"290 432 OFFCURVE",
"301 450 OFFCURVE",
"301 469 CURVE SMOOTH",
"301 472 OFFCURVE",
"301 475 OFFCURVE",
"300 478 CURVE",
"296 501 OFFCURVE",
"276 502 OFFCURVE",
"256 502 CURVE SMOOTH",
"217 502 OFFCURVE",
"176 504 OFFCURVE",
"137 504 CURVE SMOOTH",
"112 504 OFFCURVE",
"87 503 OFFCURVE",
"63 501 CURVE SMOOTH",
"48 500 OFFCURVE",
"30 499 OFFCURVE",
"19 487 CURVE",
"14 482 OFFCURVE",
"12 476 OFFCURVE",
"12 470 CURVE SMOOTH",
"12 461 OFFCURVE",
"16 451 OFFCURVE",
"19 443 CURVE",
"24 432 OFFCURVE",
"31 416 OFFCURVE",
"44 416 CURVE SMOOTH",
"48 416 OFFCURVE",
"52 418 OFFCURVE",
"56 420 CURVE",
"63 424 OFFCURVE",
"65 429 OFFCURVE",
"65 435 CURVE SMOOTH",
"65 443 OFFCURVE",
"62 451 OFFCURVE",
"59 458 CURVE",
"84 460 OFFCURVE",
"110 461 OFFCURVE",
"136 461 CURVE SMOOTH",
"176 461 OFFCURVE",
"216 459 OFFCURVE",
"255 460 CURVE",
"239 414 OFFCURVE",
"208 372 OFFCURVE",
"189 328 CURVE SMOOTH",
"182 312 OFFCURVE",
"175 296 OFFCURVE",
"167 280 CURVE",
"158 281 OFFCURVE",
"149 287 OFFCURVE",
"140 287 CURVE SMOOTH",
"137 287 OFFCURVE",
"133 286 OFFCURVE",
"130 284 CURVE",
"123 280 OFFCURVE",
"120 273 OFFCURVE",
"120 266 CURVE SMOOTH",
"120 260 OFFCURVE",
"121 255 OFFCURVE",
"125 250 CURVE",
"131 245 OFFCURVE",
"138 242 OFFCURVE",
"146 240 CURVE",
"137 224 OFFCURVE",
"127 207 OFFCURVE",
"116 191 CURVE SMOOTH",
"90 151 OFFCURVE",
"68 110 OFFCURVE",
"43 68 CURVE SMOOTH",
"36 56 OFFCURVE",
"20 37 OFFCURVE",
"20 20 CURVE SMOOTH",
"20 17 OFFCURVE",
"20 13 OFFCURVE",
"22 10 CURVE",
"32 -13 OFFCURVE",
"63 -11 OFFCURVE",
"81 -11 CURVE SMOOTH"
);
}
);
width = 329;
}
);
unicode = 007A;
},
{
glyphname = f_b;
lastChange = "2017-07-23 21:07:22 +0000";
layers = (
{
layerId = "A32222FF-B936-4048-B269-9E41D1D80F08";
paths = (
{
closed = 1;
nodes = (
"317 -4 OFFCURVE",
"327 10 OFFCURVE",
"326 24 CURVE",
"326 26 OFFCURVE",
"326 30 OFFCURVE",
"325 32 CURVE",
"327 32 OFFCURVE",
"328 31 OFFCURVE",
"330 30 CURVE",
"358 11 OFFCURVE",
"387 0 OFFCURVE",
"419 0 CURVE SMOOTH",
"457 0 OFFCURVE",
"495 10 OFFCURVE",
"523 38 CURVE SMOOTH",
"549 64 OFFCURVE",
"562 102 OFFCURVE",
"569 136 CURVE",
"572 154 OFFCURVE",
"572 172 OFFCURVE",
"572 190 CURVE SMOOTH",
"572 208 OFFCURVE",
"572 226 OFFCURVE",
"571 243 CURVE SMOOTH",
"569 282 OFFCURVE",
"566 320 OFFCURVE",
"559 357 CURVE SMOOTH",
"547 418 OFFCURVE",
"521 504 OFFCURVE",
"444 500 CURVE",
"422 498 OFFCURVE",
"400 494 OFFCURVE",
"380 482 CURVE",
"361 472 OFFCURVE",
"344 455 OFFCURVE",
"327 439 CURVE",
"323 434 OFFCURVE",
"314 425 OFFCURVE",
"306 413 CURVE",
"300 469 LINE SMOOTH",
"296 508 OFFCURVE",
"296 547 OFFCURVE",
"292 586 CURVE SMOOTH",
"287 637 OFFCURVE",
"291 657 OFFCURVE",
"238 683 CURVE SMOOTH",
"217 693 OFFCURVE",
"192 695 OFFCURVE",
"168 694 CURVE SMOOTH",
"121 691 OFFCURVE",
"96 648 OFFCURVE",
"81 609 CURVE SMOOTH",
"68 578 OFFCURVE",
"62 545 OFFCURVE",
"59 512 CURVE",
"51 513 OFFCURVE",
"38 515 OFFCURVE",
"27 515 CURVE SMOOTH",
"21 515 OFFCURVE",
"15 515 OFFCURVE",
"11 512 CURVE",
"4 508 OFFCURVE",
"0 501 OFFCURVE",
"0 494 CURVE SMOOTH",
"0 487 OFFCURVE",
"3 481 OFFCURVE",
"8 477 CURVE SMOOTH",
"17 470 OFFCURVE",
"24 471 OFFCURVE",
"56 470 CURVE",
"56 462 LINE",
"55 437 OFFCURVE",
"54 411 OFFCURVE",
"54 386 CURVE SMOOTH",
"54 311 OFFCURVE",
"60 236 OFFCURVE",
"70 163 CURVE SMOOTH",
"73 141 OFFCURVE",
"75 120 OFFCURVE",
"77 99 CURVE",
"77 88 OFFCURVE",
"80 77 OFFCURVE",
"81 66 CURVE",
"82 59 OFFCURVE",
"82 52 OFFCURVE",
"82 46 CURVE",
"76 46 OFFCURVE",
"69 48 OFFCURVE",
"62 48 CURVE SMOOTH",
"54 48 OFFCURVE",
"47 46 OFFCURVE",
"42 41 CURVE SMOOTH",
"38 37 OFFCURVE",
"36 32 OFFCURVE",
"36 26 CURVE SMOOTH",
"36 21 OFFCURVE",
"38 16 OFFCURVE",
"42 11 CURVE",
"51 2 OFFCURVE",
"71 4 OFFCURVE",
"83 3 CURVE SMOOTH",
"102 1 OFFCURVE",
"122 0 OFFCURVE",
"141 0 CURVE SMOOTH",
"147 0 OFFCURVE",
"154 0 OFFCURVE",
"159 4 CURVE",
"165 8 OFFCURVE",
"169 15 OFFCURVE",
"169 22 CURVE SMOOTH",
"169 26 OFFCURVE",
"168 30 OFFCURVE",
"165 33 CURVE",
"159 42 OFFCURVE",
"149 43 OFFCURVE",
"139 43 CURVE SMOOTH",
"125 43 LINE",
"125 51 LINE SMOOTH",
"125 65 OFFCURVE",
"123 79 OFFCURVE",
"121 93 CURVE SMOOTH",
"108 183 OFFCURVE",
"98 272 OFFCURVE",
"98 364 CURVE SMOOTH",
"98 423 LINE SMOOTH",
"98 438 OFFCURVE",
"98 454 OFFCURVE",
"99 469 CURVE",
"111 469 LINE SMOOTH",
"127 469 OFFCURVE",
"149 468 OFFCURVE",
"163 475 CURVE",
"171 478 OFFCURVE",
"175 486 OFFCURVE",
"175 494 CURVE SMOOTH",
"175 500 OFFCURVE",
"173 506 OFFCURVE",
"168 510 CURVE SMOOTH",
"163 514 OFFCURVE",
"157 515 OFFCURVE",
"150 515 CURVE SMOOTH",
"139 515 OFFCURVE",
"127 512 OFFCURVE",
"118 512 CURVE SMOOTH",
"101 512 LINE",
"102 520 OFFCURVE",
"103 528 OFFCURVE",
"105 537 CURVE",
"109 563 OFFCURVE",
"117 588 OFFCURVE",
"129 613 CURVE SMOOTH",
"135 625 OFFCURVE",
"142 636 OFFCURVE",
"152 644 CURVE",
"161 650 OFFCURVE",
"170 651 OFFCURVE",
"179 651 CURVE SMOOTH",
"190 651 LINE SMOOTH",
"229 650 OFFCURVE",
"245 633 OFFCURVE",
"248 598 CURVE SMOOTH",
"270 361 OFFCURVE",
"271 351 OFFCURVE",
"271 323 CURVE SMOOTH",
"271 298 OFFCURVE",
"270 262 OFFCURVE",
"279 64 CURVE",
"281 47 OFFCURVE",
"277 16 OFFCURVE",
"290 3 CURVE SMOOTH",
"295 -2 OFFCURVE",
"300 -4 OFFCURVE",
"305 -4 CURVE SMOOTH"
);
},
{
closed = 1;
nodes = (
"405 44 OFFCURVE",
"393 45 OFFCURVE",
"381 50 CURVE SMOOTH",
"372 54 OFFCURVE",
"362 59 OFFCURVE",
"354 66 CURVE",
"346 72 OFFCURVE",
"334 78 OFFCURVE",
"325 83 CURVE",
"323 164 OFFCURVE",
"320 235 OFFCURVE",
"316 315 CURVE",
"316 320 OFFCURVE",
"315 325 OFFCURVE",
"315 330 CURVE SMOOTH",
"315 334 OFFCURVE",
"316 338 OFFCURVE",
"317 341 CURVE",
"319 348 OFFCURVE",
"324 360 OFFCURVE",
"328 368 CURVE",
"339 388 OFFCURVE",
"353 405 OFFCURVE",
"369 420 CURVE",
"393 439 OFFCURVE",
"412 456 OFFCURVE",
"449 456 CURVE SMOOTH",
"464 456 OFFCURVE",
"477 451 OFFCURVE",
"486 435 CURVE SMOOTH",
"509 394 OFFCURVE",
"519 349 OFFCURVE",
"523 303 CURVE SMOOTH",
"526 271 OFFCURVE",
"530 237 OFFCURVE",
"530 204 CURVE SMOOTH",
"530 186 OFFCURVE",
"529 168 OFFCURVE",
"527 151 CURVE",
"520 106 OFFCURVE",
"500 58 OFFCURVE",
"451 47 CURVE",
"440 45 OFFCURVE",
"429 44 OFFCURVE",
"417 44 CURVE SMOOTH"
);
}
);
width = 613;
}
);
leftKerningGroup = t;
leftMetricsKey = "=f";
rightKerningGroup = o;
rightMetricsKey = "=b";
},
{
glyphname = f_h;
lastChange = "2017-07-23 21:07:22 +0000";
layers = (
{
layerId = "A32222FF-B936-4048-B269-9E41D1D80F08";
paths = (
{
closed = 1;
nodes = (
"364 -10 OFFCURVE",
"370 -9 OFFCURVE",
"375 -6 CURVE",
"381 -2 OFFCURVE",
"385 5 OFFCURVE",
"385 12 CURVE SMOOTH",
"385 15 OFFCURVE",
"384 18 OFFCURVE",
"383 20 CURVE",
"378 31 OFFCURVE",
"368 33 OFFCURVE",
"357 33 CURVE",
"349 34 OFFCURVE",
"342 34 OFFCURVE",
"336 34 CURVE",
"333 48 LINE",
"330 68 OFFCURVE",
"317 241 OFFCURVE",
"313 281 CURVE SMOOTH",
"311 299 OFFCURVE",
"310 317 OFFCURVE",
"309 335 CURVE",
"315 339 OFFCURVE",
"322 345 OFFCURVE",
"326 349 CURVE",
"346 367 OFFCURVE",
"365 385 OFFCURVE",
"385 402 CURVE",
"402 418 OFFCURVE",
"423 432 OFFCURVE",
"444 443 CURVE",
"455 448 OFFCURVE",
"466 451 OFFCURVE",
"479 451 CURVE",
"491 452 OFFCURVE",
"491 430 OFFCURVE",
"492 420 CURVE",
"500 367 OFFCURVE",
"498 313 OFFCURVE",
"502 260 CURVE SMOOTH",
"506 204 OFFCURVE",
"512 148 OFFCURVE",
"512 92 CURVE SMOOTH",
"512 75 OFFCURVE",
"510 56 OFFCURVE",
"511 39 CURVE",
"494 39 LINE SMOOTH",
"479 39 OFFCURVE",
"471 29 OFFCURVE",
"471 19 CURVE SMOOTH",
"471 8 OFFCURVE",
"480 -3 OFFCURVE",
"496 -3 CURVE SMOOTH",
"550 -3 LINE SMOOTH",
"561 -3 OFFCURVE",
"576 -5 OFFCURVE",
"585 2 CURVE SMOOTH",
"591 7 OFFCURVE",
"593 13 OFFCURVE",
"593 19 CURVE SMOOTH",
"593 31 OFFCURVE",
"582 43 OFFCURVE",
"567 40 CURVE",
"564 39 OFFCURVE",
"560 39 OFFCURVE",
"556 39 CURVE",
"556 46 OFFCURVE",
"555 53 OFFCURVE",
"555 59 CURVE SMOOTH",
"555 98 LINE",
"554 126 OFFCURVE",
"553 154 OFFCURVE",
"551 182 CURVE SMOOTH",
"547 241 OFFCURVE",
"542 300 OFFCURVE",
"540 359 CURVE SMOOTH",
"539 388 OFFCURVE",
"537 417 OFFCURVE",
"531 445 CURVE SMOOTH",
"526 470 OFFCURVE",
"514 494 OFFCURVE",
"486 494 CURVE SMOOTH",
"437 494 OFFCURVE",
"396 467 OFFCURVE",
"360 437 CURVE SMOOTH",
"342 422 OFFCURVE",
"326 406 OFFCURVE",
"309 391 CURVE",
"308 390 OFFCURVE",
"307 390 OFFCURVE",
"307 389 CURVE",
"306 414 OFFCURVE",
"306 439 OFFCURVE",
"306 464 CURVE SMOOTH",
"306 509 OFFCURVE",
"307 555 OFFCURVE",
"310 600 CURVE",
"310 608 OFFCURVE",
"312 628 OFFCURVE",
"312 641 CURVE",
"317 640 OFFCURVE",
"325 640 OFFCURVE",
"333 640 CURVE SMOOTH",
"339 640 OFFCURVE",
"346 640 OFFCURVE",
"352 642 CURVE",
"363 645 OFFCURVE",
"367 653 OFFCURVE",
"367 662 CURVE SMOOTH",
"367 672 OFFCURVE",
"361 684 OFFCURVE",
"348 684 CURVE SMOOTH",
"346 684 OFFCURVE",
"344 684 OFFCURVE",
"341 683 CURVE",
"336 682 OFFCURVE",
"331 682 OFFCURVE",
"326 682 CURVE SMOOTH",
"306 682 OFFCURVE",
"282 685 OFFCURVE",
"266 688 CURVE",
"261 688 LINE",
"238 691 OFFCURVE",
"191 695 OFFCURVE",
"168 694 CURVE SMOOTH",
"121 691 OFFCURVE",
"96 648 OFFCURVE",
"81 609 CURVE SMOOTH",
"68 578 OFFCURVE",
"62 545 OFFCURVE",
"59 512 CURVE",
"51 513 OFFCURVE",
"38 515 OFFCURVE",
"27 515 CURVE SMOOTH",
"21 515 OFFCURVE",
"15 515 OFFCURVE",
"11 512 CURVE",
"4 508 OFFCURVE",
"0 501 OFFCURVE",
"0 494 CURVE SMOOTH",
"0 487 OFFCURVE",
"3 481 OFFCURVE",
"8 477 CURVE SMOOTH",
"17 470 OFFCURVE",
"24 471 OFFCURVE",
"56 470 CURVE",
"56 462 LINE",
"55 437 OFFCURVE",
"54 411 OFFCURVE",
"54 386 CURVE SMOOTH",
"54 311 OFFCURVE",
"60 236 OFFCURVE",
"70 163 CURVE SMOOTH",
"73 141 OFFCURVE",
"75 120 OFFCURVE",
"77 99 CURVE",
"77 88 OFFCURVE",
"80 77 OFFCURVE",
"81 66 CURVE",
"82 59 OFFCURVE",
"82 52 OFFCURVE",
"82 46 CURVE",
"76 46 OFFCURVE",
"69 48 OFFCURVE",
"62 48 CURVE SMOOTH",
"54 48 OFFCURVE",
"47 46 OFFCURVE",
"42 41 CURVE SMOOTH",
"38 37 OFFCURVE",
"36 32 OFFCURVE",
"36 26 CURVE SMOOTH",
"36 21 OFFCURVE",
"38 16 OFFCURVE",
"42 11 CURVE",
"51 2 OFFCURVE",
"71 4 OFFCURVE",
"83 3 CURVE SMOOTH",
"102 1 OFFCURVE",
"122 0 OFFCURVE",
"141 0 CURVE SMOOTH",
"147 0 OFFCURVE",
"154 0 OFFCURVE",
"159 4 CURVE",
"165 8 OFFCURVE",
"169 15 OFFCURVE",
"169 22 CURVE SMOOTH",
"169 26 OFFCURVE",
"168 30 OFFCURVE",
"165 33 CURVE",
"159 42 OFFCURVE",
"149 43 OFFCURVE",
"139 43 CURVE SMOOTH",
"125 43 LINE",
"125 51 LINE SMOOTH",
"125 65 OFFCURVE",
"123 79 OFFCURVE",
"121 93 CURVE SMOOTH",
"108 183 OFFCURVE",
"98 272 OFFCURVE",
"98 364 CURVE SMOOTH",
"98 423 LINE SMOOTH",
"98 438 OFFCURVE",
"98 454 OFFCURVE",
"99 469 CURVE",
"111 469 LINE SMOOTH",
"127 469 OFFCURVE",
"149 468 OFFCURVE",
"163 475 CURVE",
"171 478 OFFCURVE",
"175 486 OFFCURVE",
"175 494 CURVE SMOOTH",
"175 500 OFFCURVE",
"173 506 OFFCURVE",
"168 510 CURVE SMOOTH",
"163 514 OFFCURVE",
"157 515 OFFCURVE",
"150 515 CURVE SMOOTH",
"139 515 OFFCURVE",
"127 512 OFFCURVE",
"118 512 CURVE SMOOTH",
"101 512 LINE",
"102 520 OFFCURVE",
"103 528 OFFCURVE",
"105 537 CURVE",
"109 563 OFFCURVE",
"117 588 OFFCURVE",
"129 613 CURVE SMOOTH",
"135 625 OFFCURVE",
"142 636 OFFCURVE",
"152 644 CURVE",
"161 650 OFFCURVE",
"170 651 OFFCURVE",
"179 651 CURVE SMOOTH",
"190 651 LINE",
"208 650 OFFCURVE",
"254 646 OFFCURVE",
"268 645 CURVE",
"268 641 LINE SMOOTH",
"268 589 OFFCURVE",
"262 537 OFFCURVE",
"262 484 CURVE SMOOTH",
"262 429 OFFCURVE",
"263 375 OFFCURVE",
"267 320 CURVE SMOOTH",
"271 266 OFFCURVE",
"274 213 OFFCURVE",
"278 160 CURVE SMOOTH",
"283 91 OFFCURVE",
"290 52 OFFCURVE",
"291 41 CURVE",
"284 42 OFFCURVE",
"276 42 OFFCURVE",
"271 39 CURVE SMOOTH",
"264 35 OFFCURVE",
"260 27 OFFCURVE",
"260 19 CURVE SMOOTH",
"260 16 OFFCURVE",
"261 12 OFFCURVE",
"263 9 CURVE",
"269 -2 OFFCURVE",
"283 -2 OFFCURVE",
"294 -4 CURVE",
"308 -6 OFFCURVE",
"323 -8 OFFCURVE",
"337 -9 CURVE",
"343 -9 OFFCURVE",
"351 -10 OFFCURVE",
"358 -10 CURVE SMOOTH"
);
}
);
width = 621;
}
);
leftKerningGroup = t;
leftMetricsKey = "=f";
rightKerningGroup = n;
rightMetricsKey = "=h";
},
